<?xml version="1.0" encoding="utf-8"?>
<!-- Generator: Adobe Illustrator 28.0.0, SVG Export Plug-In . SVG Version: 6.00 Build 0)  -->
<svg version="1.1" id="_图层_1" xmlns="http://www.w3.org/2000/svg" xmlns:xlink="http://www.w3.org/1999/xlink" x="0px" y="0px"
	 viewBox="0 0 2219.9 1243.3" style="enable-background:new 0 0 2219.9 1243.3;" xml:space="preserve">
<style type="text/css">
	.st0{fill:#231815;}
	.st1{fill:none;stroke:#231815;stroke-width:1.35;stroke-miterlimit:3.86;}
	.st2{fill-rule:evenodd;clip-rule:evenodd;fill:#231815;}
	.st3{fill:none;stroke:#231815;stroke-width:0.28;stroke-miterlimit:3.86;}
	.st4{fill:none;stroke:#231815;stroke-width:0.27;stroke-miterlimit:3.86;}
</style>
<path class="st0" d="M136.1,912.4c-10.5,4-20.4,9.3-30.3,14.7c-1,0.5-0.5,1.9,0.6,1.6c16.2-5,32.4-9.8,49.1-12.7
	c13.5-2.3,27.1-3.4,40.8-4.2c18.3-1,48.9-0.3,67.2,0.7c0.5,0,0.9-0.4,0.9-0.8l0.4-14.3c0-0.5-0.4-0.9-0.8-0.9
	C225.9,896.7,172.5,898.4,136.1,912.4L136.1,912.4z"/>
<path class="st0" d="M493.5,1093.3c16.1-2.9,27.2-6,27.2-6c1.1-0.3,0.9-1.8-0.3-1.7c-20.6,1.5-38.6,3.7-56.5,4.2s-35.6-0.8-55.6-6.3
	c-32.7-9.1-61.6-27.9-88.6-49c-13.7-10.7-27.2-21.7-41.3-31.8c-29.6-21.4-59.2-35.3-94.4-43c-11.1-2.4-24.2-4.5-35.6-4.4
	c-10.3,0-20.4,1.7-30.6,3.8c-1.1,0.2-1,1.8,0.2,1.7c11.6-0.4,22.9-0.4,34.4,1.2c9.6,1.3,19.3,3.6,28.6,6.5
	c39.4,12.3,56.9,22.8,83.7,42.6c16.3,12,36.2,27.9,52.4,40c37.4,28.1,73.5,45.1,119.7,47C456.5,1099,477.4,1096.2,493.5,1093.3
	L493.5,1093.3z"/>
<path class="st0" d="M582.8,1170.2c1.1,0.3,1.9,0.7,2.7,1c0.9,0.3,1.8,0.6,3.1,0.6l15.3-3c9.2-1.8,18.4-3.7,27.6-5.5
	c12-2.4,24-4.9,36-7.5l6.5-1.4l6.1-1.4c16.9-3.9,33.8-8.1,50.3-13.1c7.9-2.4,15.8-4.8,23.4-8.1c9.5-4.1,18.8-8.5,20.5-20.8
	c0.4-2.9,0.5-6,0.2-8.9c-0.8-8.9-4.5-16-11.7-21.1c-4.3-3.1-9.7-4.6-15.1-5.4c-5.4-0.8-11-0.8-15.9-0.9s-9.7-0.1-14.6-0.1
	c-11.3,0-22.7,0.1-34,0.1c-27.8,0.2-55.7,0.6-83.5-0.2c-29.8-0.8-53.2-4.1-82.5-10.2c-43-8.9-83.1-26.1-121.7-47.8
	c-24.5-13.8-46.8-28.5-71.5-41.8c-24.9-13.5-46.2-24.4-79.4-33.7c-20.2-5.7-36.9-8.7-57.8-10c-16.3-1-38.4-1-57.1,4.6
	c-6.4,2-11.2,3.7-17.2,6.7c-1,0.5-0.6,1.9,0.5,1.6c11.3-2.5,23.6-3.4,35.2-4.1c14.4-0.9,29.8,0.3,44,2.3c16.8,2.3,25.6,5.1,38.2,8.4
	c23.4,6.2,43.7,13.5,65.4,24.7c15.1,7.8,34.2,20.1,48.7,29.2c19.8,12.4,36.5,21.8,57.2,32.7c16.7,8.8,33.8,17.1,51.4,23.9
	c19.4,7.4,39.6,13,59.9,17.2c28.8,6,57.1,8.2,86.4,9.3c17.9,0.7,35.9,0.9,53.9,0.5c18.3-0.3,36.6-1,55-1c10.6,0,21.5-0.3,32,1.1
	c6.8,0.9,16.8,2.8,19.8,9.6c1.2,2.7,1.2,5.7,0.9,8.7c-1.1,8.2-6.1,11.3-13.5,14.1c-4.4,1.7-9,3.1-13.5,4.5c-9,2.7-18.2,5-27.2,7.3
	c-15,3.9-30.2,7.6-45.2,11.2c-29.9,7.3-59.8,14.3-89.8,21.4c-0.1,0-0.5,0.3-0.5,0.4l-0.2,0.3c-0.3,0.6-0.1,1.1,0.5,1.3L582.8,1170.2
	L582.8,1170.2z"/>
<path class="st1" d="M662.5,331.2c0.1-5.2,4.4-9.5,9.6-9.6c5.1-0.1,9.3,4.1,9.2,9.2c0,5.2-4.3,9.5-9.5,9.6S662.5,336.5,662.5,331.2z
	"/>
<polyline class="st1" points="656,331 685,331 685,324 "/>
<polyline class="st1" points="677.4,317 671.9,317 671.9,347.2 "/>
<path class="st2" d="M660.8,320.4l0.2,0.2c0.2-0.1,0.4-0.1,0.6-0.1h2l-0.5-0.5l-0.3,0.3h-2V320.4z M660.2,321.7l0.2,0.2
	c0.2-0.1,0.4-0.1,0.6-0.1h0.7c-0.2,0.5-0.4,0.9-0.7,1.3s-0.6,0.7-0.8,0.7l0.4,0.6c0.2-0.2,0.5-0.3,1.1-0.4s1.1-0.2,1.7-0.2
	c0.1,0.2,0.2,0.4,0.2,0.5s0.1,0.1,0.2,0c0.1-0.1,0.2-0.2,0.2-0.4c0-0.1,0-0.3-0.2-0.5s-0.5-0.5-1-0.9l-0.1,0.1
	c0.4,0.5,0.6,0.9,0.7,1l-2.6,0.2c0.3-0.2,0.7-0.8,1.3-1.6l0.2-0.1l-0.4-0.4h2.5l-0.5-0.5l-0.4,0.4L660.2,321.7L660.2,321.7z
	 M662,317.3c-0.2,0.6-0.4,1.3-0.8,1.9s-0.8,1.1-1.4,1.6l0.1,0.1c0.7-0.5,1.2-1,1.5-1.4s0.6-0.9,0.8-1.4c0.2,0.6,0.5,1,0.9,1.5
	c0.3,0.4,0.7,0.7,1.1,1c0.2-0.2,0.3-0.4,0.6-0.4v-0.1c-0.5-0.2-0.9-0.4-1.3-0.8s-0.8-0.8-1.1-1.5l0.3-0.2L662,317.3L662,317.3z
	 M657.9,320c0.4-0.5,0.9-1.2,1.3-2.1l0.3-0.2l-0.7-0.4c-0.1,0.4-0.3,1-0.6,1.6c-0.3,0.7-0.6,1-0.8,1l0.4,0.5
	c0.1-0.1,0.3-0.2,0.5-0.2s0.5-0.1,0.8-0.1c-0.5,0.7-0.8,1.1-1,1.4s-0.4,0.4-0.5,0.4l0.3,0.6c0.2-0.1,0.5-0.2,0.8-0.4
	c0.4-0.1,0.8-0.2,1.4-0.4v-0.1l-2,0.3c0.7-0.7,1.3-1.5,2-2.6l0.3-0.2l-0.6-0.4c-0.2,0.5-0.4,0.9-0.6,1.3L657.9,320L657.9,320z
	 M657.5,323.5l0.3,0.5c0.2-0.2,1.1-0.6,2.5-1l-0.1-0.1C658.8,323.2,657.8,323.4,657.5,323.5L657.5,323.5z"/>
<path class="st3" d="M660.8,320.4l0.2,0.2c0.2-0.1,0.4-0.1,0.6-0.1h2l-0.5-0.5l-0.3,0.3h-2V320.4z M660.2,321.7l0.2,0.2
	c0.2-0.1,0.4-0.1,0.6-0.1h0.7c-0.2,0.5-0.4,0.9-0.7,1.3s-0.6,0.7-0.8,0.7l0.4,0.6c0.2-0.2,0.5-0.3,1.1-0.4s1.1-0.2,1.7-0.2
	c0.1,0.2,0.2,0.4,0.2,0.5s0.1,0.1,0.2,0c0.1-0.1,0.2-0.2,0.2-0.4c0-0.1,0-0.3-0.2-0.5s-0.5-0.5-1-0.9l-0.1,0.1
	c0.4,0.5,0.6,0.9,0.7,1l-2.6,0.2c0.3-0.2,0.7-0.8,1.3-1.6l0.2-0.1l-0.4-0.4h2.5l-0.5-0.5l-0.4,0.4L660.2,321.7L660.2,321.7z
	 M662,317.3c-0.2,0.6-0.4,1.3-0.8,1.9s-0.8,1.1-1.4,1.6l0.1,0.1c0.7-0.5,1.2-1,1.5-1.4s0.6-0.9,0.8-1.4c0.2,0.6,0.5,1,0.9,1.5
	c0.3,0.4,0.7,0.7,1.1,1c0.2-0.2,0.3-0.4,0.6-0.4v-0.1c-0.5-0.2-0.9-0.4-1.3-0.8s-0.8-0.8-1.1-1.5l0.3-0.2L662,317.3L662,317.3z
	 M657.9,320c0.4-0.5,0.9-1.2,1.3-2.1l0.3-0.2l-0.7-0.4c-0.1,0.4-0.3,1-0.6,1.6c-0.3,0.7-0.6,1-0.8,1l0.4,0.5
	c0.1-0.1,0.3-0.2,0.5-0.2s0.5-0.1,0.8-0.1c-0.5,0.7-0.8,1.1-1,1.4s-0.4,0.4-0.5,0.4l0.3,0.6c0.2-0.1,0.5-0.2,0.8-0.4
	c0.4-0.1,0.8-0.2,1.4-0.4v-0.1l-2,0.3c0.7-0.7,1.3-1.5,2-2.6l0.3-0.2l-0.6-0.4c-0.2,0.5-0.4,0.9-0.6,1.3L657.9,320L657.9,320z
	 M657.5,323.5l0.3,0.5c0.2-0.2,1.1-0.6,2.5-1l-0.1-0.1C658.8,323.2,657.8,323.4,657.5,323.5L657.5,323.5z"/>
<path class="st2" d="M680.3,344.9v0.1c0.4,0.1,0.7,0.4,0.8,0.6c0.3-0.1,0.4-0.2,0.5-0.3c0.1-0.1,0.1-0.3,0.1-0.5V340l0.2-0.1
	l-0.4-0.4l-0.3,0.3h-0.9l0.5-0.8l0.2-0.1l-0.6-0.3c0,0.4-0.1,0.8-0.2,1.2h-0.3l-0.4-0.3c0,0.5,0,0.9,0,1.4v1.3h-0.8l0.2,0.2l0.3-0.1
	h0.3c0,0.6,0,1.2-0.1,1.8s-0.3,1.1-0.7,1.7l0.1,0.1c0.5-0.5,0.8-1.1,0.9-1.5c0.1-0.5,0.2-1.1,0.2-2h1.3v2.5c0,0.1,0,0.2-0.1,0.2
	S680.8,345,680.3,344.9L680.3,344.9z M679.9,339.9h1.3v2.2h-1.3V339.9z M680.3,340.4c0.1,0.3,0.2,0.6,0.2,0.8c0,0.3,0.1,0.4,0.2,0.3
	s0.2-0.1,0.2-0.3c0-0.1,0-0.3-0.1-0.4S680.5,340.5,680.3,340.4L680.3,340.4z M680.3,342.6L680.3,342.6c0.1,0.4,0.3,0.7,0.3,1
	c0,0.2,0.1,0.3,0.2,0.3c0.1,0,0.2-0.1,0.2-0.3s0-0.3-0.1-0.4S680.6,342.8,680.3,342.6L680.3,342.6z M683.2,338.8
	c0.2,0.4,0.3,0.6,0.4,0.9s0.2,0.4,0.3,0.3s0.2-0.2,0.2-0.3s0-0.3-0.2-0.4S683.4,338.9,683.2,338.8L683.2,338.8z M684.8,340.2h-2.9
	l0.2,0.2c0.2-0.1,0.4-0.1,0.6-0.1h2.9l-0.5-0.5L684.8,340.2L684.8,340.2z M684.6,344.8v-3.2l0.2-0.2l-0.4-0.4l-0.3,0.3h-1l-0.5-0.3
	c0,0.8,0,1.4,0,2s-0.1,1-0.2,1.4c-0.1,0.4-0.4,0.8-0.8,1.2l0.1,0.1c0.5-0.4,0.9-0.8,1.1-1.3s0.3-0.9,0.3-1.4s0-1,0-1.6h1.1v3.6
	c0,0.3,0.2,0.5,0.5,0.5h0.7c0,0,0.1,0,0.2-0.1s0.2-0.2,0.3-0.4c-0.2,0-0.3-0.2-0.3-0.4c0-0.2-0.1-0.5-0.1-0.8h-0.2
	c0,0.4,0,0.7,0,0.9c0,0.2-0.1,0.3-0.2,0.3h-0.3C684.6,345.2,684.5,345.1,684.6,344.8L684.6,344.8z"/>
<path class="st4" d="M680.3,344.9v0.1c0.4,0.1,0.7,0.4,0.8,0.6c0.3-0.1,0.4-0.2,0.5-0.3c0.1-0.1,0.1-0.3,0.1-0.5V340l0.2-0.1
	l-0.4-0.4l-0.3,0.3h-0.9l0.5-0.8l0.2-0.1l-0.6-0.3c0,0.4-0.1,0.8-0.2,1.2h-0.3l-0.4-0.3c0,0.5,0,0.9,0,1.4v1.3h-0.8l0.2,0.2l0.3-0.1
	h0.3c0,0.6,0,1.2-0.1,1.8s-0.3,1.1-0.7,1.7l0.1,0.1c0.5-0.5,0.8-1.1,0.9-1.5c0.1-0.5,0.2-1.1,0.2-2h1.3v2.5c0,0.1,0,0.2-0.1,0.2
	S680.8,345,680.3,344.9L680.3,344.9z M679.9,339.9h1.3v2.2h-1.3V339.9z M680.3,340.4c0.1,0.3,0.2,0.6,0.2,0.8c0,0.3,0.1,0.4,0.2,0.3
	s0.2-0.1,0.2-0.3c0-0.1,0-0.3-0.1-0.4S680.5,340.5,680.3,340.4L680.3,340.4z M680.3,342.6L680.3,342.6c0.1,0.4,0.3,0.7,0.3,1
	c0,0.2,0.1,0.3,0.2,0.3c0.1,0,0.2-0.1,0.2-0.3s0-0.3-0.1-0.4S680.6,342.8,680.3,342.6L680.3,342.6z M683.2,338.8
	c0.2,0.4,0.3,0.6,0.4,0.9s0.2,0.4,0.3,0.3s0.2-0.2,0.2-0.3s0-0.3-0.2-0.4S683.4,338.9,683.2,338.8L683.2,338.8z M684.8,340.2h-2.9
	l0.2,0.2c0.2-0.1,0.4-0.1,0.6-0.1h2.9l-0.5-0.5L684.8,340.2L684.8,340.2z M684.6,344.8v-3.2l0.2-0.2l-0.4-0.4l-0.3,0.3h-1l-0.5-0.3
	c0,0.8,0,1.4,0,2s-0.1,1-0.2,1.4c-0.1,0.4-0.4,0.8-0.8,1.2l0.1,0.1c0.5-0.4,0.9-0.8,1.1-1.3s0.3-0.9,0.3-1.4s0-1,0-1.6h1.1v3.6
	c0,0.3,0.2,0.5,0.5,0.5h0.7c0,0,0.1,0,0.2-0.1s0.2-0.2,0.3-0.4c-0.2,0-0.3-0.2-0.3-0.4c0-0.2-0.1-0.5-0.1-0.8h-0.2
	c0,0.4,0,0.7,0,0.9c0,0.2-0.1,0.3-0.2,0.3h-0.3C684.6,345.2,684.5,345.1,684.6,344.8L684.6,344.8z"/>
<path class="st2" d="M655.4,346.9c0-0.7,0.4-1.3,1-1.9s1.4-1.4,2.3-2.6s1.5-2.1,1.8-2.8s0.4-1.2,0.3-1.7s-0.3-0.9-0.7-1.2
	s-0.8-0.4-1.3-0.4s-1,0.2-1.4,0.6c-0.5,0.3-0.8,0.8-1,1.5l-1.3-0.2c0.4-1.1,0.9-1.9,1.4-2.4s1.3-0.8,2.1-0.8c0.5,0,0.9,0,1.3,0
	c0.4,0.1,0.8,0.2,1.2,0.5s0.7,0.6,1,1.2c0.3,0.5,0.3,1.1,0.3,1.9s-0.4,1.6-1.1,2.6c-0.7,1-1.9,2.6-3.8,4.8h5.1v1.3h-7.1L655.4,346.9
	L655.4,346.9z"/>
<path class="st1" d="M258.5,331.2c0.1-5.2,4.4-9.5,9.6-9.6c5.1-0.1,9.3,4.1,9.2,9.2c0,5.2-4.3,9.5-9.5,9.6S258.5,336.5,258.5,331.2
	L258.5,331.2z"/>
<polyline class="st1" points="252,331 281,331 281,324 "/>
<polyline class="st1" points="273.4,317 267.9,317 267.9,347.2 "/>
<path class="st2" d="M256.9,320.4l0.2,0.2c0.2-0.1,0.4-0.1,0.6-0.1h2l-0.5-0.5l-0.3,0.3h-2V320.4z M256.2,321.7l0.2,0.2
	c0.2-0.1,0.4-0.1,0.6-0.1h0.7c-0.2,0.5-0.4,0.9-0.7,1.3s-0.6,0.7-0.8,0.7l0.4,0.6c0.2-0.2,0.5-0.3,1.1-0.4s1.1-0.2,1.7-0.2
	c0.1,0.2,0.1,0.4,0.2,0.5c0,0.1,0.1,0.1,0.2,0s0.2-0.2,0.2-0.4c0-0.1,0-0.3-0.2-0.5s-0.5-0.5-1-0.9l-0.1,0.1c0.4,0.5,0.6,0.9,0.7,1
	l-2.6,0.2c0.3-0.2,0.7-0.8,1.3-1.6l0.2-0.1l-0.4-0.4h2.5l-0.5-0.5l-0.4,0.4L256.2,321.7L256.2,321.7z M258,317.3
	c-0.2,0.6-0.4,1.3-0.8,1.9s-0.8,1.1-1.4,1.6l0.1,0.1c0.7-0.5,1.2-1,1.5-1.4c0.4-0.5,0.6-0.9,0.9-1.4c0.2,0.6,0.5,1,0.9,1.5
	c0.4,0.4,0.7,0.7,1.1,1c0.1-0.2,0.4-0.4,0.6-0.4v-0.1c-0.5-0.2-0.9-0.4-1.3-0.8s-0.8-0.8-1.1-1.5l0.3-0.2L258,317.3L258,317.3z
	 M253.9,320c0.4-0.5,0.9-1.2,1.4-2.1l0.3-0.2l-0.7-0.4c-0.1,0.4-0.3,1-0.6,1.6c-0.3,0.7-0.6,1-0.8,1l0.4,0.5
	c0.1-0.1,0.3-0.2,0.5-0.2s0.5-0.1,0.8-0.1c-0.5,0.7-0.8,1.1-1,1.4s-0.4,0.4-0.5,0.4l0.3,0.6c0.2-0.1,0.5-0.2,0.8-0.4
	c0.4-0.1,0.8-0.2,1.4-0.4v-0.1l-1.9,0.3c0.6-0.7,1.3-1.5,2-2.6l0.3-0.2l-0.6-0.4c-0.2,0.5-0.4,0.9-0.6,1.3L253.9,320L253.9,320z
	 M253.5,323.5l0.3,0.5c0.2-0.2,1.1-0.6,2.5-1l-0.1-0.1C254.8,323.2,253.9,323.4,253.5,323.5L253.5,323.5z"/>
<path class="st3" d="M256.9,320.4l0.2,0.2c0.2-0.1,0.4-0.1,0.6-0.1h2l-0.5-0.5l-0.3,0.3h-2V320.4z M256.2,321.7l0.2,0.2
	c0.2-0.1,0.4-0.1,0.6-0.1h0.7c-0.2,0.5-0.4,0.9-0.7,1.3s-0.6,0.7-0.8,0.7l0.4,0.6c0.2-0.2,0.5-0.3,1.1-0.4s1.1-0.2,1.7-0.2
	c0.1,0.2,0.1,0.4,0.2,0.5c0,0.1,0.1,0.1,0.2,0s0.2-0.2,0.2-0.4c0-0.1,0-0.3-0.2-0.5s-0.5-0.5-1-0.9l-0.1,0.1c0.4,0.5,0.6,0.9,0.7,1
	l-2.6,0.2c0.3-0.2,0.7-0.8,1.3-1.6l0.2-0.1l-0.4-0.4h2.5l-0.5-0.5l-0.4,0.4L256.2,321.7L256.2,321.7z M258,317.3
	c-0.2,0.6-0.4,1.3-0.8,1.9s-0.8,1.1-1.4,1.6l0.1,0.1c0.7-0.5,1.2-1,1.5-1.4c0.4-0.5,0.6-0.9,0.9-1.4c0.2,0.6,0.5,1,0.9,1.5
	c0.4,0.4,0.7,0.7,1.1,1c0.1-0.2,0.4-0.4,0.6-0.4v-0.1c-0.5-0.2-0.9-0.4-1.3-0.8s-0.8-0.8-1.1-1.5l0.3-0.2L258,317.3L258,317.3z
	 M253.9,320c0.4-0.5,0.9-1.2,1.4-2.1l0.3-0.2l-0.7-0.4c-0.1,0.4-0.3,1-0.6,1.6c-0.3,0.7-0.6,1-0.8,1l0.4,0.5
	c0.1-0.1,0.3-0.2,0.5-0.2s0.5-0.1,0.8-0.1c-0.5,0.7-0.8,1.1-1,1.4s-0.4,0.4-0.5,0.4l0.3,0.6c0.2-0.1,0.5-0.2,0.8-0.4
	c0.4-0.1,0.8-0.2,1.4-0.4v-0.1l-1.9,0.3c0.6-0.7,1.3-1.5,2-2.6l0.3-0.2l-0.6-0.4c-0.2,0.5-0.4,0.9-0.6,1.3L253.9,320L253.9,320z
	 M253.5,323.5l0.3,0.5c0.2-0.2,1.1-0.6,2.5-1l-0.1-0.1C254.8,323.2,253.9,323.4,253.5,323.5L253.5,323.5z"/>
<path class="st2" d="M276.3,344.9v0.1c0.4,0.1,0.7,0.4,0.8,0.6c0.3-0.1,0.4-0.2,0.5-0.3c0.1-0.1,0.1-0.3,0.1-0.5V340l0.2-0.1
	l-0.4-0.4l-0.3,0.3h-0.9l0.5-0.8l0.2-0.1l-0.6-0.3c0,0.4-0.1,0.8-0.2,1.2h-0.3l-0.4-0.3c0,0.5,0,0.9,0,1.4v1.3h-0.8l0.2,0.2l0.3-0.1
	h0.3c0,0.6,0,1.2-0.1,1.8s-0.3,1.1-0.7,1.7l0.1,0.1c0.5-0.5,0.8-1.1,0.9-1.5c0.1-0.5,0.2-1.1,0.2-2h1.4v2.5c0,0.1,0,0.2-0.1,0.2
	S276.8,345,276.3,344.9L276.3,344.9z M275.9,339.9h1.4v2.2h-1.4V339.9z M276.3,340.4c0.1,0.3,0.2,0.6,0.2,0.8c0,0.3,0.1,0.4,0.2,0.3
	c0.1,0,0.2-0.1,0.2-0.3s0-0.3-0.1-0.4S276.5,340.5,276.3,340.4L276.3,340.4z M276.3,342.6L276.3,342.6c0.1,0.4,0.3,0.7,0.3,1
	c0,0.2,0.1,0.3,0.2,0.3s0.2-0.1,0.2-0.3s0-0.3-0.1-0.4S276.5,342.8,276.3,342.6L276.3,342.6z M279.1,338.8c0.2,0.4,0.3,0.6,0.4,0.9
	s0.1,0.4,0.3,0.3s0.2-0.2,0.2-0.3s0-0.3-0.2-0.4C279.7,339.1,279.4,338.9,279.1,338.8L279.1,338.8z M280.8,340.2h-2.9l0.2,0.2
	c0.2-0.1,0.4-0.1,0.6-0.1h2.9l-0.5-0.5L280.8,340.2L280.8,340.2z M280.6,344.8v-3.2l0.2-0.2l-0.4-0.4l-0.3,0.3h-1l-0.5-0.3
	c0,0.8,0,1.4,0,2s-0.1,1-0.2,1.4s-0.4,0.8-0.8,1.2l0.1,0.1c0.5-0.4,0.9-0.8,1.1-1.3s0.3-0.9,0.3-1.4s0-1,0-1.6h1.1v3.6
	c0,0.3,0.2,0.5,0.5,0.5h0.7c0,0,0.1,0,0.2-0.1c0.1,0,0.2-0.2,0.4-0.4c-0.2,0-0.3-0.2-0.3-0.4s-0.1-0.5-0.1-0.8h-0.1
	c0,0.4,0,0.7,0,0.9c0,0.2-0.1,0.3-0.2,0.3H281C280.6,345.2,280.6,345.1,280.6,344.8L280.6,344.8z"/>
<path class="st4" d="M276.3,344.9v0.1c0.4,0.1,0.7,0.4,0.8,0.6c0.3-0.1,0.4-0.2,0.5-0.3c0.1-0.1,0.1-0.3,0.1-0.5V340l0.2-0.1
	l-0.4-0.4l-0.3,0.3h-0.9l0.5-0.8l0.2-0.1l-0.6-0.3c0,0.4-0.1,0.8-0.2,1.2h-0.3l-0.4-0.3c0,0.5,0,0.9,0,1.4v1.3h-0.8l0.2,0.2l0.3-0.1
	h0.3c0,0.6,0,1.2-0.1,1.8s-0.3,1.1-0.7,1.7l0.1,0.1c0.5-0.5,0.8-1.1,0.9-1.5c0.1-0.5,0.2-1.1,0.2-2h1.4v2.5c0,0.1,0,0.2-0.1,0.2
	S276.8,345,276.3,344.9L276.3,344.9z M275.9,339.9h1.4v2.2h-1.4V339.9z M276.3,340.4c0.1,0.3,0.2,0.6,0.2,0.8c0,0.3,0.1,0.4,0.2,0.3
	c0.1,0,0.2-0.1,0.2-0.3s0-0.3-0.1-0.4S276.5,340.5,276.3,340.4L276.3,340.4z M276.3,342.6L276.3,342.6c0.1,0.4,0.3,0.7,0.3,1
	c0,0.2,0.1,0.3,0.2,0.3s0.2-0.1,0.2-0.3s0-0.3-0.1-0.4S276.5,342.8,276.3,342.6L276.3,342.6z M279.1,338.8c0.2,0.4,0.3,0.6,0.4,0.9
	s0.1,0.4,0.3,0.3s0.2-0.2,0.2-0.3s0-0.3-0.2-0.4C279.7,339.1,279.4,338.9,279.1,338.8L279.1,338.8z M280.8,340.2h-2.9l0.2,0.2
	c0.2-0.1,0.4-0.1,0.6-0.1h2.9l-0.5-0.5L280.8,340.2L280.8,340.2z M280.6,344.8v-3.2l0.2-0.2l-0.4-0.4l-0.3,0.3h-1l-0.5-0.3
	c0,0.8,0,1.4,0,2s-0.1,1-0.2,1.4s-0.4,0.8-0.8,1.2l0.1,0.1c0.5-0.4,0.9-0.8,1.1-1.3s0.3-0.9,0.3-1.4s0-1,0-1.6h1.1v3.6
	c0,0.3,0.2,0.5,0.5,0.5h0.7c0,0,0.1,0,0.2-0.1c0.1,0,0.2-0.2,0.4-0.4c-0.2,0-0.3-0.2-0.3-0.4s-0.1-0.5-0.1-0.8h-0.1
	c0,0.4,0,0.7,0,0.9c0,0.2-0.1,0.3-0.2,0.3H281C280.6,345.2,280.6,345.1,280.6,344.8L280.6,344.8z"/>
<path class="st2" d="M251.4,346.9c0.1-0.7,0.4-1.3,1-1.9s1.4-1.4,2.3-2.6s1.5-2.1,1.8-2.8s0.4-1.2,0.3-1.7s-0.3-0.9-0.7-1.2
	s-0.8-0.4-1.3-0.4s-1,0.2-1.4,0.6s-0.8,0.8-1,1.5l-1.3-0.2c0.4-1.1,0.9-1.9,1.4-2.4s1.3-0.8,2.1-0.8c0.5,0,0.9,0,1.3,0
	c0.4,0.1,0.8,0.2,1.2,0.5s0.7,0.6,1,1.2c0.3,0.5,0.4,1.1,0.3,1.9s-0.4,1.6-1.1,2.6s-1.9,2.6-3.8,4.8h5.1v1.3h-7.1L251.4,346.9
	L251.4,346.9z"/>
<path class="st1" d="M760.5,910.2c0.1-5.2,4.4-9.5,9.6-9.6c5.1-0.1,9.3,4.1,9.2,9.2c0,5.2-4.3,9.5-9.5,9.6
	C764.6,919.6,760.5,915.5,760.5,910.2z"/>
<polyline class="st1" points="754,910 783,910 783,903 "/>
<polyline class="st1" points="775.4,896 769.9,896 769.9,926.2 "/>
<path class="st2" d="M758.8,899.4l0.2,0.2c0.2-0.1,0.4-0.1,0.6-0.1h2l-0.5-0.5l-0.3,0.3L758.8,899.4L758.8,899.4z M758.2,900.7
	l0.2,0.2c0.2-0.1,0.4-0.1,0.6-0.1h0.7c-0.2,0.5-0.4,0.9-0.7,1.3c-0.3,0.4-0.6,0.7-0.8,0.7l0.4,0.6c0.2-0.2,0.5-0.3,1.1-0.4
	c0.6-0.1,1.1-0.2,1.7-0.2c0.1,0.2,0.2,0.3,0.2,0.5c0,0.1,0.1,0.1,0.2,0s0.2-0.2,0.2-0.4s0-0.3-0.2-0.5s-0.5-0.5-1-0.9l-0.1,0.1
	c0.4,0.5,0.6,0.9,0.7,1l-2.6,0.2c0.3-0.2,0.7-0.8,1.3-1.6l0.2-0.1l-0.4-0.3h2.5l-0.5-0.5l-0.4,0.4H758.2L758.2,900.7z M760,896.3
	c-0.2,0.7-0.4,1.3-0.8,1.9s-0.8,1.1-1.4,1.6l0.1,0.1c0.7-0.5,1.2-1,1.5-1.4s0.6-0.9,0.8-1.4c0.2,0.6,0.5,1,0.9,1.5
	c0.3,0.4,0.7,0.7,1.1,1c0.2-0.2,0.3-0.3,0.6-0.3v-0.1c-0.5-0.2-0.9-0.4-1.3-0.8s-0.8-0.8-1.1-1.5l0.3-0.2L760,896.3L760,896.3z
	 M755.9,899c0.4-0.5,0.9-1.2,1.3-2.1l0.3-0.2l-0.7-0.4c-0.1,0.4-0.3,1-0.6,1.6c-0.3,0.7-0.6,1-0.8,1l0.4,0.5
	c0.1-0.1,0.3-0.2,0.5-0.2s0.5-0.1,0.8-0.1c-0.5,0.7-0.8,1.2-1,1.4s-0.4,0.3-0.5,0.4l0.3,0.6c0.2-0.1,0.5-0.2,0.8-0.4
	s0.8-0.2,1.4-0.4v-0.1l-2,0.3c0.7-0.7,1.3-1.5,2-2.6l0.3-0.2l-0.6-0.4c-0.2,0.5-0.4,0.9-0.6,1.3L755.9,899L755.9,899z M755.5,902.5
	l0.3,0.5c0.2-0.2,1.1-0.6,2.5-1l-0.1-0.1C756.8,902.2,755.8,902.5,755.5,902.5L755.5,902.5z"/>
<path class="st3" d="M758.8,899.4l0.2,0.2c0.2-0.1,0.4-0.1,0.6-0.1h2l-0.5-0.5l-0.3,0.3L758.8,899.4L758.8,899.4z M758.2,900.7
	l0.2,0.2c0.2-0.1,0.4-0.1,0.6-0.1h0.7c-0.2,0.5-0.4,0.9-0.7,1.3c-0.3,0.4-0.6,0.7-0.8,0.7l0.4,0.6c0.2-0.2,0.5-0.3,1.1-0.4
	c0.6-0.1,1.1-0.2,1.7-0.2c0.1,0.2,0.2,0.3,0.2,0.5c0,0.1,0.1,0.1,0.2,0s0.2-0.2,0.2-0.4s0-0.3-0.2-0.5s-0.5-0.5-1-0.9l-0.1,0.1
	c0.4,0.5,0.6,0.9,0.7,1l-2.6,0.2c0.3-0.2,0.7-0.8,1.3-1.6l0.2-0.1l-0.4-0.3h2.5l-0.5-0.5l-0.4,0.4H758.2L758.2,900.7z M760,896.3
	c-0.2,0.7-0.4,1.3-0.8,1.9s-0.8,1.1-1.4,1.6l0.1,0.1c0.7-0.5,1.2-1,1.5-1.4s0.6-0.9,0.8-1.4c0.2,0.6,0.5,1,0.9,1.5
	c0.3,0.4,0.7,0.7,1.1,1c0.2-0.2,0.3-0.3,0.6-0.3v-0.1c-0.5-0.2-0.9-0.4-1.3-0.8s-0.8-0.8-1.1-1.5l0.3-0.2L760,896.3L760,896.3z
	 M755.9,899c0.4-0.5,0.9-1.2,1.3-2.1l0.3-0.2l-0.7-0.4c-0.1,0.4-0.3,1-0.6,1.6c-0.3,0.7-0.6,1-0.8,1l0.4,0.5
	c0.1-0.1,0.3-0.2,0.5-0.2s0.5-0.1,0.8-0.1c-0.5,0.7-0.8,1.2-1,1.4s-0.4,0.3-0.5,0.4l0.3,0.6c0.2-0.1,0.5-0.2,0.8-0.4
	s0.8-0.2,1.4-0.4v-0.1l-2,0.3c0.7-0.7,1.3-1.5,2-2.6l0.3-0.2l-0.6-0.4c-0.2,0.5-0.4,0.9-0.6,1.3L755.9,899L755.9,899z M755.5,902.5
	l0.3,0.5c0.2-0.2,1.1-0.6,2.5-1l-0.1-0.1C756.8,902.2,755.8,902.5,755.5,902.5L755.5,902.5z"/>
<path class="st2" d="M778.3,923.9L778.3,923.9c0.4,0.2,0.7,0.4,0.8,0.7c0.3-0.1,0.4-0.2,0.5-0.3s0.1-0.3,0.1-0.5V919l0.2-0.2
	l-0.4-0.4l-0.3,0.3h-0.9l0.5-0.8l0.2-0.1l-0.6-0.3c0,0.4-0.1,0.8-0.2,1.2h-0.3l-0.4-0.3c0,0.5,0,0.9,0,1.4v1.3h-0.8l0.2,0.2l0.3-0.1
	h0.3c0,0.6,0,1.2-0.1,1.8s-0.3,1.1-0.7,1.7l0.1,0.1c0.5-0.5,0.8-1.1,0.9-1.5c0.1-0.5,0.2-1.1,0.2-2h1.3v2.5c0,0.1,0,0.2-0.1,0.2
	S778.8,923.9,778.3,923.9L778.3,923.9z M777.9,918.8h1.3v2.2h-1.3V918.8z M778.3,919.4c0.1,0.3,0.2,0.6,0.2,0.8
	c0,0.3,0.1,0.4,0.2,0.3c0.1,0,0.2-0.1,0.2-0.3c0-0.1,0-0.3-0.1-0.4S778.5,919.5,778.3,919.4L778.3,919.4z M778.3,921.6L778.3,921.6
	c0.1,0.4,0.3,0.7,0.3,1c0,0.2,0.1,0.3,0.2,0.3c0.1,0,0.2-0.1,0.2-0.3s0-0.3-0.1-0.4C778.8,922,778.6,921.8,778.3,921.6L778.3,921.6z
	 M781.2,917.8c0.2,0.4,0.3,0.7,0.4,0.9c0.1,0.3,0.2,0.3,0.3,0.3s0.2-0.2,0.2-0.3s0-0.3-0.2-0.4S781.4,917.9,781.2,917.8L781.2,917.8
	z M782.8,919.2h-2.9l0.2,0.2c0.2-0.1,0.4-0.1,0.6-0.1h2.9l-0.5-0.5L782.8,919.2L782.8,919.2z M782.6,923.8v-3.2l0.2-0.2l-0.4-0.4
	l-0.3,0.3h-1l-0.5-0.3c0,0.8,0,1.4,0,2c0,0.5-0.1,1-0.2,1.4c-0.1,0.4-0.4,0.8-0.8,1.2l0.1,0.1c0.5-0.4,0.9-0.8,1.1-1.3
	c0.2-0.5,0.3-0.9,0.3-1.4s0-1,0-1.6h1.1v3.6c0,0.3,0.2,0.5,0.5,0.5h0.7c0,0,0.1,0,0.2-0.1s0.2-0.2,0.3-0.3c-0.2,0-0.3-0.2-0.3-0.3
	c0-0.2-0.1-0.5-0.1-0.8h-0.2c0,0.4,0,0.7,0,0.9s-0.1,0.3-0.2,0.3h-0.3C782.6,924.2,782.5,924.1,782.6,923.8L782.6,923.8z"/>
<path class="st4" d="M778.3,923.9L778.3,923.9c0.4,0.2,0.7,0.4,0.8,0.7c0.3-0.1,0.4-0.2,0.5-0.3s0.1-0.3,0.1-0.5V919l0.2-0.2
	l-0.4-0.4l-0.3,0.3h-0.9l0.5-0.8l0.2-0.1l-0.6-0.3c0,0.4-0.1,0.8-0.2,1.2h-0.3l-0.4-0.3c0,0.5,0,0.9,0,1.4v1.3h-0.8l0.2,0.2l0.3-0.1
	h0.3c0,0.6,0,1.2-0.1,1.8s-0.3,1.1-0.7,1.7l0.1,0.1c0.5-0.5,0.8-1.1,0.9-1.5c0.1-0.5,0.2-1.1,0.2-2h1.3v2.5c0,0.1,0,0.2-0.1,0.2
	S778.8,923.9,778.3,923.9L778.3,923.9z M777.9,918.8h1.3v2.2h-1.3V918.8z M778.3,919.4c0.1,0.3,0.2,0.6,0.2,0.8
	c0,0.3,0.1,0.4,0.2,0.3c0.1,0,0.2-0.1,0.2-0.3c0-0.1,0-0.3-0.1-0.4S778.5,919.5,778.3,919.4L778.3,919.4z M778.3,921.6L778.3,921.6
	c0.1,0.4,0.3,0.7,0.3,1c0,0.2,0.1,0.3,0.2,0.3c0.1,0,0.2-0.1,0.2-0.3s0-0.3-0.1-0.4C778.8,922,778.6,921.8,778.3,921.6L778.3,921.6z
	 M781.2,917.8c0.2,0.4,0.3,0.7,0.4,0.9c0.1,0.3,0.2,0.3,0.3,0.3s0.2-0.2,0.2-0.3s0-0.3-0.2-0.4S781.4,917.9,781.2,917.8L781.2,917.8
	z M782.8,919.2h-2.9l0.2,0.2c0.2-0.1,0.4-0.1,0.6-0.1h2.9l-0.5-0.5L782.8,919.2L782.8,919.2z M782.6,923.8v-3.2l0.2-0.2l-0.4-0.4
	l-0.3,0.3h-1l-0.5-0.3c0,0.8,0,1.4,0,2c0,0.5-0.1,1-0.2,1.4c-0.1,0.4-0.4,0.8-0.8,1.2l0.1,0.1c0.5-0.4,0.9-0.8,1.1-1.3
	c0.2-0.5,0.3-0.9,0.3-1.4s0-1,0-1.6h1.1v3.6c0,0.3,0.2,0.5,0.5,0.5h0.7c0,0,0.1,0,0.2-0.1s0.2-0.2,0.3-0.3c-0.2,0-0.3-0.2-0.3-0.3
	c0-0.2-0.1-0.5-0.1-0.8h-0.2c0,0.4,0,0.7,0,0.9s-0.1,0.3-0.2,0.3h-0.3C782.6,924.2,782.5,924.1,782.6,923.8L782.6,923.8z"/>
<path class="st2" d="M753.4,925.9c0-0.7,0.4-1.3,1-1.9s1.4-1.4,2.3-2.6s1.5-2.1,1.8-2.8s0.4-1.2,0.3-1.7s-0.3-0.9-0.7-1.2
	s-0.8-0.4-1.3-0.4s-1,0.2-1.4,0.6c-0.5,0.3-0.8,0.8-1,1.5l-1.3-0.2c0.4-1.1,0.9-1.9,1.4-2.4s1.3-0.8,2.1-0.8c0.5,0,0.9,0,1.3,0
	c0.4,0.1,0.8,0.2,1.2,0.5s0.7,0.6,1,1.2s0.3,1.1,0.3,1.9c-0.1,0.7-0.4,1.6-1.1,2.6c-0.7,1-1.9,2.6-3.8,4.8h5.1v1.3h-7.1L753.4,925.9
	L753.4,925.9z"/>
<path class="st1" d="M356.5,910.2c0.1-5.2,4.4-9.5,9.6-9.6c5.1-0.1,9.3,4.1,9.2,9.2c0,5.2-4.3,9.5-9.5,9.6
	C360.6,919.6,356.5,915.5,356.5,910.2L356.5,910.2z"/>
<polyline class="st1" points="350,910 379,910 379,903 "/>
<polyline class="st1" points="371.4,896 365.9,896 365.9,926.2 "/>
<path class="st2" d="M354.9,899.4l0.2,0.2c0.2-0.1,0.4-0.1,0.6-0.1h2l-0.5-0.5l-0.3,0.3L354.9,899.4L354.9,899.4z M354.2,900.7
	l0.2,0.2c0.2-0.1,0.4-0.1,0.6-0.1h0.7c-0.2,0.5-0.4,0.9-0.7,1.3c-0.3,0.4-0.6,0.7-0.8,0.7l0.4,0.6c0.2-0.2,0.5-0.3,1.1-0.4
	s1.1-0.2,1.7-0.2c0.1,0.2,0.1,0.3,0.2,0.5c0,0.1,0.1,0.1,0.2,0s0.2-0.2,0.2-0.4s0-0.3-0.2-0.5s-0.5-0.5-1-0.9l-0.1,0.1
	c0.4,0.5,0.6,0.9,0.7,1l-2.6,0.2c0.3-0.2,0.7-0.8,1.3-1.6l0.2-0.1l-0.4-0.3h2.5l-0.5-0.5l-0.4,0.4H354.2L354.2,900.7z M356,896.3
	c-0.2,0.7-0.4,1.3-0.8,1.9s-0.8,1.1-1.4,1.6l0.1,0.1c0.7-0.5,1.2-1,1.5-1.4c0.4-0.5,0.6-0.9,0.9-1.4c0.2,0.6,0.5,1,0.9,1.5
	c0.4,0.4,0.7,0.7,1.1,1c0.1-0.2,0.4-0.3,0.6-0.3v-0.1c-0.5-0.2-0.9-0.4-1.3-0.8s-0.8-0.8-1.1-1.5l0.3-0.2L356,896.3L356,896.3z
	 M351.9,899c0.4-0.5,0.9-1.2,1.4-2.1l0.3-0.2l-0.7-0.4c-0.1,0.4-0.3,1-0.6,1.6c-0.3,0.7-0.6,1-0.8,1l0.4,0.5
	c0.1-0.1,0.3-0.2,0.5-0.2s0.5-0.1,0.8-0.1c-0.5,0.7-0.8,1.2-1,1.4s-0.4,0.3-0.5,0.4l0.3,0.6c0.2-0.1,0.5-0.2,0.8-0.4
	s0.8-0.2,1.4-0.4v-0.1l-2,0.3c0.6-0.7,1.3-1.5,2-2.6l0.3-0.2l-0.6-0.4c-0.2,0.5-0.4,0.9-0.6,1.3L351.9,899L351.9,899z M351.5,902.5
	l0.3,0.5c0.2-0.2,1.1-0.6,2.5-1l-0.1-0.1C352.8,902.2,351.9,902.5,351.5,902.5L351.5,902.5z"/>
<path class="st3" d="M354.9,899.4l0.2,0.2c0.2-0.1,0.4-0.1,0.6-0.1h2l-0.5-0.5l-0.3,0.3L354.9,899.4L354.9,899.4z M354.2,900.7
	l0.2,0.2c0.2-0.1,0.4-0.1,0.6-0.1h0.7c-0.2,0.5-0.4,0.9-0.7,1.3c-0.3,0.4-0.6,0.7-0.8,0.7l0.4,0.6c0.2-0.2,0.5-0.3,1.1-0.4
	s1.1-0.2,1.7-0.2c0.1,0.2,0.1,0.3,0.2,0.5c0,0.1,0.1,0.1,0.2,0s0.2-0.2,0.2-0.4s0-0.3-0.2-0.5s-0.5-0.5-1-0.9l-0.1,0.1
	c0.4,0.5,0.6,0.9,0.7,1l-2.6,0.2c0.3-0.2,0.7-0.8,1.3-1.6l0.2-0.1l-0.4-0.3h2.5l-0.5-0.5l-0.4,0.4H354.2L354.2,900.7z M356,896.3
	c-0.2,0.7-0.4,1.3-0.8,1.9s-0.8,1.1-1.4,1.6l0.1,0.1c0.7-0.5,1.2-1,1.5-1.4c0.4-0.5,0.6-0.9,0.9-1.4c0.2,0.6,0.5,1,0.9,1.5
	c0.4,0.4,0.7,0.7,1.1,1c0.1-0.2,0.4-0.3,0.6-0.3v-0.1c-0.5-0.2-0.9-0.4-1.3-0.8s-0.8-0.8-1.1-1.5l0.3-0.2L356,896.3L356,896.3z
	 M351.9,899c0.4-0.5,0.9-1.2,1.4-2.1l0.3-0.2l-0.7-0.4c-0.1,0.4-0.3,1-0.6,1.6c-0.3,0.7-0.6,1-0.8,1l0.4,0.5
	c0.1-0.1,0.3-0.2,0.5-0.2s0.5-0.1,0.8-0.1c-0.5,0.7-0.8,1.2-1,1.4s-0.4,0.3-0.5,0.4l0.3,0.6c0.2-0.1,0.5-0.2,0.8-0.4
	s0.8-0.2,1.4-0.4v-0.1l-2,0.3c0.6-0.7,1.3-1.5,2-2.6l0.3-0.2l-0.6-0.4c-0.2,0.5-0.4,0.9-0.6,1.3L351.9,899L351.9,899z M351.5,902.5
	l0.3,0.5c0.2-0.2,1.1-0.6,2.5-1l-0.1-0.1C352.8,902.2,351.9,902.5,351.5,902.5L351.5,902.5z"/>
<path class="st2" d="M374.3,923.9L374.3,923.9c0.4,0.2,0.7,0.4,0.8,0.7c0.3-0.1,0.4-0.2,0.5-0.3s0.1-0.3,0.1-0.5V919l0.2-0.2
	l-0.4-0.4l-0.3,0.3h-0.9l0.5-0.8l0.2-0.1l-0.6-0.3c0,0.4-0.1,0.8-0.2,1.2h-0.3l-0.4-0.3c0,0.5,0,0.9,0,1.4v1.3h-0.8l0.2,0.2l0.3-0.1
	h0.3c0,0.6,0,1.2-0.1,1.8s-0.3,1.1-0.7,1.7l0.1,0.1c0.5-0.5,0.8-1.1,0.9-1.5s0.2-1.1,0.2-2h1.4v2.5c0,0.1,0,0.2-0.1,0.2
	S374.8,923.9,374.3,923.9L374.3,923.9z M373.9,918.8h1.4v2.2h-1.4V918.8z M374.3,919.4c0.1,0.3,0.2,0.6,0.2,0.8
	c0,0.3,0.1,0.4,0.2,0.3c0.1,0,0.2-0.1,0.2-0.3s0-0.3-0.1-0.4S374.5,919.5,374.3,919.4L374.3,919.4z M374.3,921.6L374.3,921.6
	c0.1,0.4,0.3,0.7,0.3,1c0,0.2,0.1,0.3,0.2,0.3s0.2-0.1,0.2-0.3s0-0.3-0.1-0.4C374.8,922,374.5,921.8,374.3,921.6L374.3,921.6z
	 M377.1,917.8c0.2,0.4,0.3,0.7,0.4,0.9c0.1,0.3,0.1,0.3,0.3,0.3s0.2-0.2,0.2-0.3s0-0.3-0.2-0.4C377.7,918.1,377.4,917.9,377.1,917.8
	L377.1,917.8z M378.8,919.2h-2.9l0.2,0.2c0.2-0.1,0.4-0.1,0.6-0.1h2.9l-0.5-0.5L378.8,919.2L378.8,919.2z M378.6,923.8v-3.2l0.2-0.2
	l-0.4-0.4l-0.3,0.3h-1l-0.5-0.3c0,0.8,0,1.4,0,2c0,0.5-0.1,1-0.2,1.4s-0.4,0.8-0.8,1.2l0.1,0.1c0.5-0.4,0.9-0.8,1.1-1.3
	s0.3-0.9,0.3-1.4s0-1,0-1.6h1.1v3.6c0,0.3,0.2,0.5,0.5,0.5h0.7c0,0,0.1,0,0.2-0.1c0.1,0,0.2-0.2,0.4-0.3c-0.2,0-0.3-0.2-0.3-0.3
	s-0.1-0.5-0.1-0.8h-0.1c0,0.4,0,0.7,0,0.9s-0.1,0.3-0.2,0.3H379C378.6,924.2,378.6,924.1,378.6,923.8L378.6,923.8z"/>
<path class="st4" d="M374.3,923.9L374.3,923.9c0.4,0.2,0.7,0.4,0.8,0.7c0.3-0.1,0.4-0.2,0.5-0.3s0.1-0.3,0.1-0.5V919l0.2-0.2
	l-0.4-0.4l-0.3,0.3h-0.9l0.5-0.8l0.2-0.1l-0.6-0.3c0,0.4-0.1,0.8-0.2,1.2h-0.3l-0.4-0.3c0,0.5,0,0.9,0,1.4v1.3h-0.8l0.2,0.2l0.3-0.1
	h0.3c0,0.6,0,1.2-0.1,1.8s-0.3,1.1-0.7,1.7l0.1,0.1c0.5-0.5,0.8-1.1,0.9-1.5s0.2-1.1,0.2-2h1.4v2.5c0,0.1,0,0.2-0.1,0.2
	S374.8,923.9,374.3,923.9L374.3,923.9z M373.9,918.8h1.4v2.2h-1.4V918.8z M374.3,919.4c0.1,0.3,0.2,0.6,0.2,0.8
	c0,0.3,0.1,0.4,0.2,0.3c0.1,0,0.2-0.1,0.2-0.3s0-0.3-0.1-0.4S374.5,919.5,374.3,919.4L374.3,919.4z M374.3,921.6L374.3,921.6
	c0.1,0.4,0.3,0.7,0.3,1c0,0.2,0.1,0.3,0.2,0.3s0.2-0.1,0.2-0.3s0-0.3-0.1-0.4C374.8,922,374.5,921.8,374.3,921.6L374.3,921.6z
	 M377.1,917.8c0.2,0.4,0.3,0.7,0.4,0.9c0.1,0.3,0.1,0.3,0.3,0.3s0.2-0.2,0.2-0.3s0-0.3-0.2-0.4C377.7,918.1,377.4,917.9,377.1,917.8
	L377.1,917.8z M378.8,919.2h-2.9l0.2,0.2c0.2-0.1,0.4-0.1,0.6-0.1h2.9l-0.5-0.5L378.8,919.2L378.8,919.2z M378.6,923.8v-3.2l0.2-0.2
	l-0.4-0.4l-0.3,0.3h-1l-0.5-0.3c0,0.8,0,1.4,0,2c0,0.5-0.1,1-0.2,1.4s-0.4,0.8-0.8,1.2l0.1,0.1c0.5-0.4,0.9-0.8,1.1-1.3
	s0.3-0.9,0.3-1.4s0-1,0-1.6h1.1v3.6c0,0.3,0.2,0.5,0.5,0.5h0.7c0,0,0.1,0,0.2-0.1c0.1,0,0.2-0.2,0.4-0.3c-0.2,0-0.3-0.2-0.3-0.3
	s-0.1-0.5-0.1-0.8h-0.1c0,0.4,0,0.7,0,0.9s-0.1,0.3-0.2,0.3H379C378.6,924.2,378.6,924.1,378.6,923.8L378.6,923.8z"/>
<path class="st2" d="M349.4,925.9c0-0.7,0.4-1.3,1-1.9s1.4-1.4,2.3-2.6s1.5-2.1,1.8-2.8s0.4-1.2,0.3-1.7s-0.3-0.9-0.7-1.2
	s-0.8-0.4-1.3-0.4s-1,0.2-1.4,0.6s-0.8,0.8-1,1.5l-1.3-0.2c0.4-1.1,0.9-1.9,1.4-2.4s1.3-0.8,2.1-0.8c0.5,0,0.9,0,1.3,0
	c0.4,0.1,0.8,0.2,1.2,0.5s0.7,0.6,1,1.2s0.4,1.1,0.3,1.9c-0.1,0.7-0.4,1.6-1.1,2.6s-1.9,2.6-3.8,4.8h5.1v1.3h-7.1L349.4,925.9
	L349.4,925.9z"/>
<path class="st0" d="M894,335c10.5,4,20.4,9.3,30.3,14.7c1,0.5,0.5,1.9-0.6,1.6c-16.2-5-32.4-9.8-49.1-12.7
	c-13.5-2.3-27.2-3.4-40.8-4.2c-18.3-1-48.9-0.3-67.2,0.7c-0.5,0-0.9-0.4-0.9-0.9l-0.4-14.3c0-0.5,0.4-0.9,0.8-0.9
	C804.2,319.4,857.6,321,894,335L894,335z"/>
<path class="st0" d="M536.5,516c-16.1-2.9-27.2-6-27.2-6c-1.1-0.3-0.9-1.8,0.3-1.7c20.6,1.5,38.6,3.7,56.5,4.2s35.6-0.8,55.6-6.3
	c32.7-9.1,61.6-27.9,88.6-49c13.7-10.7,27.2-21.6,41.3-31.8c29.6-21.4,59.2-35.4,94.4-43c11.2-2.4,24.2-4.5,35.6-4.4
	c10.3,0,20.4,1.7,30.5,3.8c1.1,0.2,1,1.8-0.2,1.7c-11.6-0.4-22.9-0.4-34.5,1.2c-9.5,1.3-19.3,3.6-28.5,6.5
	c-39.3,12.3-56.9,22.8-83.7,42.6c-16.3,12-36.2,27.9-52.3,40c-37.4,28.1-73.5,45.1-119.7,47C573.6,521.6,552.6,518.9,536.5,516
	L536.5,516z"/>
<path class="st0" d="M447.3,592.8c-1.1,0.3-1.9,0.7-2.7,1c-0.9,0.3-1.9,0.6-3.1,0.6l-15.4-3c-9.2-1.8-18.4-3.7-27.6-5.5
	c-12-2.4-24-4.9-36-7.5L356,577l-6.1-1.4c-16.9-3.9-33.8-8.1-50.4-13.1c-7.9-2.4-15.8-4.8-23.4-8.1c-9.5-4.1-18.8-8.5-20.5-20.8
	c-0.4-3-0.5-6-0.2-8.9c0.8-8.9,4.5-16,11.7-21c4.4-3.1,9.7-4.6,15.1-5.4s11-0.8,15.9-0.9s9.7-0.1,14.6-0.1c11.3,0,22.7,0.1,34,0.1
	c27.8,0.1,55.7,0.6,83.5-0.2c29.9-0.8,53.2-4.1,82.5-10.2c43-8.9,83.1-26.1,121.7-47.8c24.5-13.8,46.8-28.5,71.5-41.8
	c24.8-13.5,46.2-24.4,79.5-33.7c20.2-5.7,36.9-8.7,57.8-10c16.3-1,38.4-1,57.1,4.6c6.4,2,11.2,3.7,17.2,6.7c1,0.5,0.6,1.9-0.5,1.6
	c-11.3-2.5-23.5-3.4-35.2-4.1c-14.3-0.9-29.8,0.3-44,2.3c-16.8,2.3-25.6,5.1-38.2,8.4c-23.4,6.2-43.7,13.5-65.4,24.7
	c-15.1,7.8-34.2,20.1-48.7,29.2c-19.8,12.4-36.5,21.8-57.2,32.7c-16.7,8.8-33.8,17.1-51.4,23.9c-19.4,7.4-39.6,13-59.9,17.2
	c-28.8,6-57.1,8.2-86.4,9.3c-17.9,0.7-35.9,0.9-53.9,0.5c-18.3-0.4-36.6-1-55-1c-10.6,0-21.5-0.3-32,1.1c-6.8,0.9-16.9,2.8-19.8,9.6
	c-1.1,2.7-1.2,5.7-0.9,8.7c1.1,8.2,6.1,11.3,13.5,14.1c4.4,1.7,9,3.1,13.5,4.5c9,2.7,18.1,5,27.2,7.3c15,3.9,30.1,7.6,45.2,11.2
	c29.9,7.3,59.8,14.3,89.8,21.4c0.1,0,0.5,0.3,0.5,0.4l0.2,0.3c0.3,0.6,0.1,1.1-0.5,1.3L447.3,592.8L447.3,592.8z"/>
<path class="st1" d="M1830.5,331.2c0.1-5.2,4.4-9.5,9.6-9.6c5.1-0.1,9.3,4.1,9.2,9.2c0,5.2-4.3,9.5-9.5,9.6
	S1830.5,336.5,1830.5,331.2z"/>
<polyline class="st1" points="1824,331 1853,331 1853,324 "/>
<polyline class="st1" points="1845.4,317 1839.9,317 1839.9,347.2 "/>
<path class="st2" d="M1828.8,320.4l0.2,0.2c0.2-0.1,0.4-0.1,0.6-0.1h2l-0.5-0.5l-0.3,0.3h-2V320.4z M1828.2,321.7l0.2,0.2
	c0.2-0.1,0.4-0.1,0.6-0.1h0.7c-0.2,0.5-0.4,0.9-0.7,1.3c-0.3,0.4-0.6,0.7-0.8,0.7l0.4,0.6c0.2-0.2,0.5-0.3,1.1-0.4s1.1-0.2,1.7-0.2
	c0.1,0.2,0.2,0.4,0.2,0.5s0.1,0.1,0.2,0s0.2-0.2,0.2-0.4c0-0.1-0.1-0.3-0.2-0.5s-0.5-0.5-1.1-0.9l-0.1,0.1c0.4,0.5,0.6,0.9,0.7,1
	l-2.6,0.2c0.3-0.2,0.7-0.8,1.3-1.6l0.2-0.1l-0.4-0.4h2.5l-0.5-0.5l-0.4,0.4L1828.2,321.7L1828.2,321.7z M1829.9,317.3
	c-0.2,0.6-0.4,1.3-0.8,1.9s-0.8,1.1-1.4,1.6l0.1,0.1c0.7-0.5,1.2-1,1.5-1.4s0.6-0.9,0.8-1.4c0.2,0.6,0.5,1,0.9,1.5
	c0.3,0.4,0.7,0.7,1.1,1c0.2-0.2,0.3-0.4,0.6-0.4v-0.1c-0.5-0.2-0.9-0.4-1.3-0.8s-0.8-0.8-1.1-1.5l0.3-0.2L1829.9,317.3L1829.9,317.3
	z M1825.9,320c0.4-0.5,0.9-1.2,1.3-2.1l0.3-0.2l-0.7-0.4c-0.1,0.4-0.3,1-0.6,1.6c-0.3,0.7-0.6,1-0.8,1l0.4,0.5
	c0.1-0.1,0.3-0.2,0.5-0.2s0.5-0.1,0.8-0.1c-0.5,0.7-0.8,1.1-1,1.4s-0.4,0.4-0.5,0.4l0.3,0.6c0.2-0.1,0.5-0.2,0.8-0.4
	c0.4-0.1,0.8-0.2,1.4-0.4v-0.1l-1.9,0.3c0.7-0.7,1.3-1.5,2-2.6l0.3-0.2l-0.6-0.4c-0.2,0.5-0.4,0.9-0.6,1.3L1825.9,320L1825.9,320z
	 M1825.5,323.5l0.3,0.5c0.2-0.2,1.1-0.6,2.4-1l-0.1-0.1C1826.7,323.2,1825.8,323.4,1825.5,323.5L1825.5,323.5z"/>
<path class="st3" d="M1828.8,320.4l0.2,0.2c0.2-0.1,0.4-0.1,0.6-0.1h2l-0.5-0.5l-0.3,0.3h-2V320.4z M1828.2,321.7l0.2,0.2
	c0.2-0.1,0.4-0.1,0.6-0.1h0.7c-0.2,0.5-0.4,0.9-0.7,1.3c-0.3,0.4-0.6,0.7-0.8,0.7l0.4,0.6c0.2-0.2,0.5-0.3,1.1-0.4s1.1-0.2,1.7-0.2
	c0.1,0.2,0.2,0.4,0.2,0.5s0.1,0.1,0.2,0s0.2-0.2,0.2-0.4c0-0.1-0.1-0.3-0.2-0.5s-0.5-0.5-1.1-0.9l-0.1,0.1c0.4,0.5,0.6,0.9,0.7,1
	l-2.6,0.2c0.3-0.2,0.7-0.8,1.3-1.6l0.2-0.1l-0.4-0.4h2.5l-0.5-0.5l-0.4,0.4L1828.2,321.7L1828.2,321.7z M1829.9,317.3
	c-0.2,0.6-0.4,1.3-0.8,1.9s-0.8,1.1-1.4,1.6l0.1,0.1c0.7-0.5,1.2-1,1.5-1.4s0.6-0.9,0.8-1.4c0.2,0.6,0.5,1,0.9,1.5
	c0.3,0.4,0.7,0.7,1.1,1c0.2-0.2,0.3-0.4,0.6-0.4v-0.1c-0.5-0.2-0.9-0.4-1.3-0.8s-0.8-0.8-1.1-1.5l0.3-0.2L1829.9,317.3L1829.9,317.3
	z M1825.9,320c0.4-0.5,0.9-1.2,1.3-2.1l0.3-0.2l-0.7-0.4c-0.1,0.4-0.3,1-0.6,1.6c-0.3,0.7-0.6,1-0.8,1l0.4,0.5
	c0.1-0.1,0.3-0.2,0.5-0.2s0.5-0.1,0.8-0.1c-0.5,0.7-0.8,1.1-1,1.4s-0.4,0.4-0.5,0.4l0.3,0.6c0.2-0.1,0.5-0.2,0.8-0.4
	c0.4-0.1,0.8-0.2,1.4-0.4v-0.1l-1.9,0.3c0.7-0.7,1.3-1.5,2-2.6l0.3-0.2l-0.6-0.4c-0.2,0.5-0.4,0.9-0.6,1.3L1825.9,320L1825.9,320z
	 M1825.5,323.5l0.3,0.5c0.2-0.2,1.1-0.6,2.4-1l-0.1-0.1C1826.7,323.2,1825.8,323.4,1825.5,323.5L1825.5,323.5z"/>
<path class="st2" d="M1848.3,344.9v0.1c0.4,0.1,0.7,0.4,0.8,0.6c0.3-0.1,0.4-0.2,0.5-0.3c0.1-0.1,0.1-0.3,0.1-0.5V340l0.2-0.1
	l-0.4-0.4l-0.3,0.3h-0.9l0.5-0.8l0.2-0.1l-0.6-0.3c0,0.4-0.1,0.8-0.2,1.2h-0.3l-0.4-0.3c0,0.5,0,0.9,0,1.4v1.3h-0.8l0.2,0.2l0.3-0.1
	h0.3c0,0.6,0,1.2-0.1,1.8s-0.3,1.1-0.7,1.7l0.1,0.1c0.5-0.5,0.8-1.1,0.9-1.5c0.1-0.5,0.2-1.1,0.2-2h1.3v2.5c0,0.1,0,0.2-0.1,0.2
	S1848.8,345,1848.3,344.9L1848.3,344.9z M1847.9,339.9h1.3v2.2h-1.3V339.9z M1848.3,340.4c0.1,0.3,0.2,0.6,0.2,0.8
	c0,0.3,0.1,0.4,0.2,0.3s0.2-0.1,0.2-0.3c0.1-0.1,0-0.3-0.1-0.4S1848.5,340.5,1848.3,340.4L1848.3,340.4z M1848.3,342.6L1848.3,342.6
	c0.1,0.4,0.3,0.7,0.3,1c0,0.2,0.1,0.3,0.2,0.3s0.2-0.1,0.2-0.3c0-0.1,0-0.3-0.1-0.4S1848.5,342.8,1848.3,342.6L1848.3,342.6z
	 M1851.2,338.8c0.2,0.4,0.3,0.6,0.4,0.9s0.2,0.4,0.3,0.3s0.2-0.2,0.2-0.3s0-0.3-0.2-0.4S1851.4,338.9,1851.2,338.8L1851.2,338.8z
	 M1852.8,340.2h-2.9l0.2,0.2c0.2-0.1,0.4-0.1,0.6-0.1h2.9l-0.5-0.5L1852.8,340.2L1852.8,340.2z M1852.6,344.8v-3.2l0.2-0.2l-0.4-0.4
	l-0.3,0.3h-1l-0.5-0.3c0,0.8,0,1.4,0,2s-0.1,1-0.2,1.4s-0.4,0.8-0.8,1.2l0.1,0.1c0.6-0.4,0.9-0.8,1.1-1.3s0.3-0.9,0.3-1.4s0-1,0-1.6
	h1.1v3.6c0,0.3,0.2,0.5,0.5,0.5h0.7c0,0,0.1,0,0.2-0.1s0.2-0.2,0.3-0.4c-0.2,0-0.3-0.2-0.3-0.4c0-0.2-0.1-0.5-0.1-0.8h-0.2
	c0,0.4,0,0.7-0.1,0.9c0,0.2-0.1,0.3-0.2,0.3h-0.3C1852.6,345.2,1852.6,345.1,1852.6,344.8L1852.6,344.8z"/>
<path class="st4" d="M1848.3,344.9v0.1c0.4,0.1,0.7,0.4,0.8,0.6c0.3-0.1,0.4-0.2,0.5-0.3c0.1-0.1,0.1-0.3,0.1-0.5V340l0.2-0.1
	l-0.4-0.4l-0.3,0.3h-0.9l0.5-0.8l0.2-0.1l-0.6-0.3c0,0.4-0.1,0.8-0.2,1.2h-0.3l-0.4-0.3c0,0.5,0,0.9,0,1.4v1.3h-0.8l0.2,0.2l0.3-0.1
	h0.3c0,0.6,0,1.2-0.1,1.8s-0.3,1.1-0.7,1.7l0.1,0.1c0.5-0.5,0.8-1.1,0.9-1.5c0.1-0.5,0.2-1.1,0.2-2h1.3v2.5c0,0.1,0,0.2-0.1,0.2
	S1848.8,345,1848.3,344.9L1848.3,344.9z M1847.9,339.9h1.3v2.2h-1.3V339.9z M1848.3,340.4c0.1,0.3,0.2,0.6,0.2,0.8
	c0,0.3,0.1,0.4,0.2,0.3s0.2-0.1,0.2-0.3c0.1-0.1,0-0.3-0.1-0.4S1848.5,340.5,1848.3,340.4L1848.3,340.4z M1848.3,342.6L1848.3,342.6
	c0.1,0.4,0.3,0.7,0.3,1c0,0.2,0.1,0.3,0.2,0.3s0.2-0.1,0.2-0.3c0-0.1,0-0.3-0.1-0.4S1848.5,342.8,1848.3,342.6L1848.3,342.6z
	 M1851.2,338.8c0.2,0.4,0.3,0.6,0.4,0.9s0.2,0.4,0.3,0.3s0.2-0.2,0.2-0.3s0-0.3-0.2-0.4S1851.4,338.9,1851.2,338.8L1851.2,338.8z
	 M1852.8,340.2h-2.9l0.2,0.2c0.2-0.1,0.4-0.1,0.6-0.1h2.9l-0.5-0.5L1852.8,340.2L1852.8,340.2z M1852.6,344.8v-3.2l0.2-0.2l-0.4-0.4
	l-0.3,0.3h-1l-0.5-0.3c0,0.8,0,1.4,0,2s-0.1,1-0.2,1.4s-0.4,0.8-0.8,1.2l0.1,0.1c0.6-0.4,0.9-0.8,1.1-1.3s0.3-0.9,0.3-1.4s0-1,0-1.6
	h1.1v3.6c0,0.3,0.2,0.5,0.5,0.5h0.7c0,0,0.1,0,0.2-0.1s0.2-0.2,0.3-0.4c-0.2,0-0.3-0.2-0.3-0.4c0-0.2-0.1-0.5-0.1-0.8h-0.2
	c0,0.4,0,0.7-0.1,0.9c0,0.2-0.1,0.3-0.2,0.3h-0.3C1852.6,345.2,1852.6,345.1,1852.6,344.8L1852.6,344.8z"/>
<path class="st2" d="M1823.4,346.9c0.1-0.7,0.4-1.3,1-1.9s1.4-1.4,2.3-2.6s1.6-2.1,1.8-2.8c0.3-0.7,0.4-1.2,0.3-1.7
	s-0.3-0.9-0.7-1.2s-0.8-0.4-1.3-0.4s-1,0.2-1.4,0.6c-0.4,0.3-0.8,0.8-1,1.5l-1.3-0.2c0.4-1.1,0.9-1.9,1.4-2.4s1.3-0.8,2.1-0.8
	c0.5,0,0.9,0,1.3,0c0.4,0.1,0.8,0.2,1.2,0.5c0.4,0.3,0.7,0.6,1,1.2c0.3,0.5,0.3,1.1,0.3,1.9s-0.4,1.6-1.1,2.6s-1.9,2.6-3.8,4.8h5.1
	v1.3h-7.1L1823.4,346.9L1823.4,346.9z"/>
<path class="st1" d="M1426.5,331.2c0.1-5.2,4.4-9.5,9.6-9.6c5.1-0.1,9.3,4.1,9.2,9.2c0,5.2-4.3,9.5-9.5,9.6
	S1426.5,336.5,1426.5,331.2z"/>
<polyline class="st1" points="1420,331 1449,331 1449,324 "/>
<polyline class="st1" points="1441.4,317 1435.9,317 1435.9,347.2 "/>
<path class="st2" d="M1424.8,320.4l0.2,0.2c0.2-0.1,0.4-0.1,0.6-0.1h2l-0.5-0.5l-0.3,0.3h-2V320.4z M1424.2,321.7l0.2,0.2
	c0.2-0.1,0.4-0.1,0.6-0.1h0.7c-0.2,0.5-0.4,0.9-0.7,1.3c-0.3,0.4-0.6,0.7-0.8,0.7l0.4,0.6c0.2-0.2,0.5-0.3,1.1-0.4s1.1-0.2,1.7-0.2
	c0.1,0.2,0.2,0.4,0.2,0.5s0.1,0.1,0.2,0s0.2-0.2,0.2-0.4c0-0.1-0.1-0.3-0.2-0.5s-0.5-0.5-1.1-0.9l-0.1,0.1c0.4,0.5,0.6,0.9,0.7,1
	l-2.6,0.2c0.3-0.2,0.7-0.8,1.3-1.6l0.2-0.1l-0.4-0.4h2.5l-0.5-0.5l-0.4,0.4L1424.2,321.7L1424.2,321.7z M1425.9,317.3
	c-0.2,0.6-0.4,1.3-0.8,1.9s-0.8,1.1-1.4,1.6l0.1,0.1c0.7-0.5,1.2-1,1.5-1.4s0.6-0.9,0.8-1.4c0.2,0.6,0.5,1,0.9,1.5
	c0.3,0.4,0.7,0.7,1.1,1c0.2-0.2,0.3-0.4,0.6-0.4v-0.1c-0.5-0.2-0.9-0.4-1.3-0.8s-0.8-0.8-1.1-1.5l0.3-0.2L1425.9,317.3L1425.9,317.3
	z M1421.9,320c0.4-0.5,0.9-1.2,1.3-2.1l0.3-0.2l-0.7-0.4c-0.1,0.4-0.3,1-0.6,1.6c-0.3,0.7-0.6,1-0.8,1l0.4,0.5
	c0.1-0.1,0.3-0.2,0.5-0.2s0.5-0.1,0.8-0.1c-0.5,0.7-0.8,1.1-1,1.4s-0.4,0.4-0.5,0.4l0.3,0.6c0.2-0.1,0.5-0.2,0.8-0.4
	c0.4-0.1,0.8-0.2,1.4-0.4v-0.1l-1.9,0.3c0.7-0.7,1.3-1.5,2-2.6l0.3-0.2l-0.6-0.4c-0.2,0.5-0.4,0.9-0.6,1.3L1421.9,320L1421.9,320z
	 M1421.5,323.5l0.3,0.5c0.2-0.2,1.1-0.6,2.4-1l-0.1-0.1C1422.7,323.2,1421.8,323.4,1421.5,323.5L1421.5,323.5z"/>
<path class="st3" d="M1424.8,320.4l0.2,0.2c0.2-0.1,0.4-0.1,0.6-0.1h2l-0.5-0.5l-0.3,0.3h-2V320.4z M1424.2,321.7l0.2,0.2
	c0.2-0.1,0.4-0.1,0.6-0.1h0.7c-0.2,0.5-0.4,0.9-0.7,1.3c-0.3,0.4-0.6,0.7-0.8,0.7l0.4,0.6c0.2-0.2,0.5-0.3,1.1-0.4s1.1-0.2,1.7-0.2
	c0.1,0.2,0.2,0.4,0.2,0.5s0.1,0.1,0.2,0s0.2-0.2,0.2-0.4c0-0.1-0.1-0.3-0.2-0.5s-0.5-0.5-1.1-0.9l-0.1,0.1c0.4,0.5,0.6,0.9,0.7,1
	l-2.6,0.2c0.3-0.2,0.7-0.8,1.3-1.6l0.2-0.1l-0.4-0.4h2.5l-0.5-0.5l-0.4,0.4L1424.2,321.7L1424.2,321.7z M1425.9,317.3
	c-0.2,0.6-0.4,1.3-0.8,1.9s-0.8,1.1-1.4,1.6l0.1,0.1c0.7-0.5,1.2-1,1.5-1.4s0.6-0.9,0.8-1.4c0.2,0.6,0.5,1,0.9,1.5
	c0.3,0.4,0.7,0.7,1.1,1c0.2-0.2,0.3-0.4,0.6-0.4v-0.1c-0.5-0.2-0.9-0.4-1.3-0.8s-0.8-0.8-1.1-1.5l0.3-0.2L1425.9,317.3L1425.9,317.3
	z M1421.9,320c0.4-0.5,0.9-1.2,1.3-2.1l0.3-0.2l-0.7-0.4c-0.1,0.4-0.3,1-0.6,1.6c-0.3,0.7-0.6,1-0.8,1l0.4,0.5
	c0.1-0.1,0.3-0.2,0.5-0.2s0.5-0.1,0.8-0.1c-0.5,0.7-0.8,1.1-1,1.4s-0.4,0.4-0.5,0.4l0.3,0.6c0.2-0.1,0.5-0.2,0.8-0.4
	c0.4-0.1,0.8-0.2,1.4-0.4v-0.1l-1.9,0.3c0.7-0.7,1.3-1.5,2-2.6l0.3-0.2l-0.6-0.4c-0.2,0.5-0.4,0.9-0.6,1.3L1421.9,320L1421.9,320z
	 M1421.5,323.5l0.3,0.5c0.2-0.2,1.1-0.6,2.4-1l-0.1-0.1C1422.7,323.2,1421.8,323.4,1421.5,323.5L1421.5,323.5z"/>
<path class="st2" d="M1444.3,344.9v0.1c0.4,0.1,0.7,0.4,0.8,0.6c0.3-0.1,0.4-0.2,0.5-0.3c0.1-0.1,0.1-0.3,0.1-0.5V340l0.2-0.1
	l-0.4-0.4l-0.3,0.3h-0.9l0.5-0.8l0.2-0.1l-0.6-0.3c0,0.4-0.1,0.8-0.2,1.2h-0.3l-0.4-0.3c0,0.5,0,0.9,0,1.4v1.3h-0.8l0.2,0.2l0.3-0.1
	h0.3c0,0.6,0,1.2-0.1,1.8s-0.3,1.1-0.7,1.7l0.1,0.1c0.5-0.5,0.8-1.1,0.9-1.5c0.1-0.5,0.2-1.1,0.2-2h1.3v2.5c0,0.1,0,0.2-0.1,0.2
	S1444.8,345,1444.3,344.9L1444.3,344.9z M1443.9,339.9h1.3v2.2h-1.3V339.9z M1444.3,340.4c0.1,0.3,0.2,0.6,0.2,0.8
	c0,0.3,0.1,0.4,0.2,0.3s0.2-0.1,0.2-0.3c0.1-0.1,0-0.3-0.1-0.4S1444.5,340.5,1444.3,340.4L1444.3,340.4z M1444.3,342.6L1444.3,342.6
	c0.1,0.4,0.3,0.7,0.3,1c0,0.2,0.1,0.3,0.2,0.3s0.2-0.1,0.2-0.3c0-0.1,0-0.3-0.1-0.4S1444.5,342.8,1444.3,342.6L1444.3,342.6z
	 M1447.2,338.8c0.2,0.4,0.3,0.6,0.4,0.9s0.2,0.4,0.3,0.3s0.2-0.2,0.2-0.3s0-0.3-0.2-0.4S1447.4,338.9,1447.2,338.8L1447.2,338.8z
	 M1448.8,340.2h-2.9l0.2,0.2c0.2-0.1,0.4-0.1,0.6-0.1h2.9l-0.5-0.5L1448.8,340.2L1448.8,340.2z M1448.6,344.8v-3.2l0.2-0.2l-0.4-0.4
	l-0.3,0.3h-1l-0.5-0.3c0,0.8,0,1.4,0,2s-0.1,1-0.2,1.4s-0.4,0.8-0.8,1.2l0.1,0.1c0.6-0.4,0.9-0.8,1.1-1.3s0.3-0.9,0.3-1.4s0-1,0-1.6
	h1.1v3.6c0,0.3,0.2,0.5,0.5,0.5h0.7c0,0,0.1,0,0.2-0.1s0.2-0.2,0.3-0.4c-0.2,0-0.3-0.2-0.3-0.4c0-0.2-0.1-0.5-0.1-0.8h-0.2
	c0,0.4,0,0.7-0.1,0.9c0,0.2-0.1,0.3-0.2,0.3h-0.3C1448.6,345.2,1448.6,345.1,1448.6,344.8L1448.6,344.8z"/>
<path class="st4" d="M1444.3,344.9v0.1c0.4,0.1,0.7,0.4,0.8,0.6c0.3-0.1,0.4-0.2,0.5-0.3c0.1-0.1,0.1-0.3,0.1-0.5V340l0.2-0.1
	l-0.4-0.4l-0.3,0.3h-0.9l0.5-0.8l0.2-0.1l-0.6-0.3c0,0.4-0.1,0.8-0.2,1.2h-0.3l-0.4-0.3c0,0.5,0,0.9,0,1.4v1.3h-0.8l0.2,0.2l0.3-0.1
	h0.3c0,0.6,0,1.2-0.1,1.8s-0.3,1.1-0.7,1.7l0.1,0.1c0.5-0.5,0.8-1.1,0.9-1.5c0.1-0.5,0.2-1.1,0.2-2h1.3v2.5c0,0.1,0,0.2-0.1,0.2
	S1444.8,345,1444.3,344.9L1444.3,344.9z M1443.9,339.9h1.3v2.2h-1.3V339.9z M1444.3,340.4c0.1,0.3,0.2,0.6,0.2,0.8
	c0,0.3,0.1,0.4,0.2,0.3s0.2-0.1,0.2-0.3c0.1-0.1,0-0.3-0.1-0.4S1444.5,340.5,1444.3,340.4L1444.3,340.4z M1444.3,342.6L1444.3,342.6
	c0.1,0.4,0.3,0.7,0.3,1c0,0.2,0.1,0.3,0.2,0.3s0.2-0.1,0.2-0.3c0-0.1,0-0.3-0.1-0.4S1444.5,342.8,1444.3,342.6L1444.3,342.6z
	 M1447.2,338.8c0.2,0.4,0.3,0.6,0.4,0.9s0.2,0.4,0.3,0.3s0.2-0.2,0.2-0.3s0-0.3-0.2-0.4S1447.4,338.9,1447.2,338.8L1447.2,338.8z
	 M1448.8,340.2h-2.9l0.2,0.2c0.2-0.1,0.4-0.1,0.6-0.1h2.9l-0.5-0.5L1448.8,340.2L1448.8,340.2z M1448.6,344.8v-3.2l0.2-0.2l-0.4-0.4
	l-0.3,0.3h-1l-0.5-0.3c0,0.8,0,1.4,0,2s-0.1,1-0.2,1.4s-0.4,0.8-0.8,1.2l0.1,0.1c0.6-0.4,0.9-0.8,1.1-1.3s0.3-0.9,0.3-1.4s0-1,0-1.6
	h1.1v3.6c0,0.3,0.2,0.5,0.5,0.5h0.7c0,0,0.1,0,0.2-0.1s0.2-0.2,0.3-0.4c-0.2,0-0.3-0.2-0.3-0.4c0-0.2-0.1-0.5-0.1-0.8h-0.2
	c0,0.4,0,0.7-0.1,0.9c0,0.2-0.1,0.3-0.2,0.3h-0.3C1448.6,345.2,1448.6,345.1,1448.6,344.8L1448.6,344.8z"/>
<path class="st2" d="M1419.4,346.9c0.1-0.7,0.4-1.3,1-1.9s1.4-1.4,2.3-2.6s1.6-2.1,1.8-2.8c0.3-0.7,0.4-1.2,0.3-1.7
	s-0.3-0.9-0.7-1.2s-0.8-0.4-1.3-0.4s-1,0.2-1.4,0.6c-0.4,0.3-0.8,0.8-1,1.5l-1.3-0.2c0.4-1.1,0.9-1.9,1.4-2.4s1.3-0.8,2.1-0.8
	c0.5,0,0.9,0,1.3,0c0.4,0.1,0.8,0.2,1.2,0.5c0.4,0.3,0.7,0.6,1,1.2c0.3,0.5,0.3,1.1,0.3,1.9s-0.4,1.6-1.1,2.6s-1.9,2.6-3.8,4.8h5.1
	v1.3h-7.1L1419.4,346.9L1419.4,346.9z"/>
<path class="st1" d="M1928.5,910.2c0.1-5.2,4.4-9.5,9.6-9.6c5.1-0.1,9.3,4.1,9.2,9.2c0,5.2-4.3,9.5-9.5,9.6
	C1932.6,919.6,1928.5,915.5,1928.5,910.2z"/>
<polyline class="st1" points="1922,910 1951,910 1951,903 "/>
<polyline class="st1" points="1943.4,896 1937.9,896 1937.9,926.2 "/>
<path class="st2" d="M1926.8,899.4l0.2,0.2c0.2-0.1,0.4-0.1,0.6-0.1h2l-0.5-0.5l-0.3,0.3L1926.8,899.4L1926.8,899.4z M1926.2,900.7
	l0.2,0.2c0.2-0.1,0.4-0.1,0.6-0.1h0.7c-0.2,0.5-0.4,0.9-0.7,1.3c-0.3,0.4-0.6,0.7-0.8,0.7l0.4,0.6c0.2-0.2,0.5-0.3,1.1-0.4
	s1.1-0.2,1.7-0.2c0.1,0.2,0.2,0.3,0.2,0.5c0,0.1,0.1,0.1,0.2,0s0.2-0.2,0.2-0.4s-0.1-0.3-0.2-0.5s-0.5-0.5-1.1-0.9l-0.1,0.1
	c0.4,0.5,0.6,0.9,0.7,1l-2.6,0.2c0.3-0.2,0.7-0.8,1.3-1.6l0.2-0.1l-0.4-0.3h2.5l-0.5-0.5l-0.4,0.4H1926.2L1926.2,900.7z
	 M1927.9,896.3c-0.2,0.7-0.4,1.3-0.8,1.9s-0.8,1.1-1.4,1.6l0.1,0.1c0.7-0.5,1.2-1,1.5-1.4s0.6-0.9,0.8-1.4c0.2,0.6,0.5,1,0.9,1.5
	c0.3,0.4,0.7,0.7,1.1,1c0.2-0.2,0.3-0.3,0.6-0.3v-0.1c-0.5-0.2-0.9-0.4-1.3-0.8s-0.8-0.8-1.1-1.5l0.3-0.2L1927.9,896.3L1927.9,896.3
	z M1923.9,899c0.4-0.5,0.9-1.2,1.3-2.1l0.3-0.2l-0.7-0.4c-0.1,0.4-0.3,1-0.6,1.6c-0.3,0.7-0.6,1-0.8,1l0.4,0.5
	c0.1-0.1,0.3-0.2,0.5-0.2s0.5-0.1,0.8-0.1c-0.5,0.7-0.8,1.2-1,1.4s-0.4,0.3-0.5,0.4l0.3,0.6c0.2-0.1,0.5-0.2,0.8-0.4
	s0.8-0.2,1.4-0.4v-0.1l-1.9,0.3c0.7-0.7,1.3-1.5,2-2.6l0.3-0.2l-0.6-0.4c-0.2,0.5-0.4,0.9-0.6,1.3L1923.9,899L1923.9,899z
	 M1923.5,902.5l0.3,0.5c0.2-0.2,1.1-0.6,2.4-1l-0.1-0.1C1924.7,902.2,1923.8,902.5,1923.5,902.5L1923.5,902.5z"/>
<path class="st3" d="M1926.8,899.4l0.2,0.2c0.2-0.1,0.4-0.1,0.6-0.1h2l-0.5-0.5l-0.3,0.3L1926.8,899.4L1926.8,899.4z M1926.2,900.7
	l0.2,0.2c0.2-0.1,0.4-0.1,0.6-0.1h0.7c-0.2,0.5-0.4,0.9-0.7,1.3c-0.3,0.4-0.6,0.7-0.8,0.7l0.4,0.6c0.2-0.2,0.5-0.3,1.1-0.4
	s1.1-0.2,1.7-0.2c0.1,0.2,0.2,0.3,0.2,0.5c0,0.1,0.1,0.1,0.2,0s0.2-0.2,0.2-0.4s-0.1-0.3-0.2-0.5s-0.5-0.5-1.1-0.9l-0.1,0.1
	c0.4,0.5,0.6,0.9,0.7,1l-2.6,0.2c0.3-0.2,0.7-0.8,1.3-1.6l0.2-0.1l-0.4-0.3h2.5l-0.5-0.5l-0.4,0.4H1926.2L1926.2,900.7z
	 M1927.9,896.3c-0.2,0.7-0.4,1.3-0.8,1.9s-0.8,1.1-1.4,1.6l0.1,0.1c0.7-0.5,1.2-1,1.5-1.4s0.6-0.9,0.8-1.4c0.2,0.6,0.5,1,0.9,1.5
	c0.3,0.4,0.7,0.7,1.1,1c0.2-0.2,0.3-0.3,0.6-0.3v-0.1c-0.5-0.2-0.9-0.4-1.3-0.8s-0.8-0.8-1.1-1.5l0.3-0.2L1927.9,896.3L1927.9,896.3
	z M1923.9,899c0.4-0.5,0.9-1.2,1.3-2.1l0.3-0.2l-0.7-0.4c-0.1,0.4-0.3,1-0.6,1.6c-0.3,0.7-0.6,1-0.8,1l0.4,0.5
	c0.1-0.1,0.3-0.2,0.5-0.2s0.5-0.1,0.8-0.1c-0.5,0.7-0.8,1.2-1,1.4s-0.4,0.3-0.5,0.4l0.3,0.6c0.2-0.1,0.5-0.2,0.8-0.4
	s0.8-0.2,1.4-0.4v-0.1l-1.9,0.3c0.7-0.7,1.3-1.5,2-2.6l0.3-0.2l-0.6-0.4c-0.2,0.5-0.4,0.9-0.6,1.3L1923.9,899L1923.9,899z
	 M1923.5,902.5l0.3,0.5c0.2-0.2,1.1-0.6,2.4-1l-0.1-0.1C1924.7,902.2,1923.8,902.5,1923.5,902.5L1923.5,902.5z"/>
<path class="st2" d="M1946.3,923.9L1946.3,923.9c0.4,0.2,0.7,0.4,0.8,0.7c0.3-0.1,0.4-0.2,0.5-0.3s0.1-0.3,0.1-0.5V919l0.2-0.2
	l-0.4-0.4l-0.3,0.3h-0.9l0.5-0.8l0.2-0.1l-0.6-0.3c0,0.4-0.1,0.8-0.2,1.2h-0.3l-0.4-0.3c0,0.5,0,0.9,0,1.4v1.3h-0.8l0.2,0.2l0.3-0.1
	h0.3c0,0.6,0,1.2-0.1,1.8s-0.3,1.1-0.7,1.7l0.1,0.1c0.5-0.5,0.8-1.1,0.9-1.5s0.2-1.1,0.2-2h1.3v2.5c0,0.1,0,0.2-0.1,0.2
	S1946.8,923.9,1946.3,923.9L1946.3,923.9z M1945.9,918.8h1.3v2.2h-1.3V918.8z M1946.3,919.4c0.1,0.3,0.2,0.6,0.2,0.8
	c0,0.3,0.1,0.4,0.2,0.3c0.1,0,0.2-0.1,0.2-0.3c0.1-0.1,0-0.3-0.1-0.4S1946.5,919.5,1946.3,919.4L1946.3,919.4z M1946.3,921.6
	L1946.3,921.6c0.1,0.4,0.3,0.7,0.3,1c0,0.2,0.1,0.3,0.2,0.3s0.2-0.1,0.2-0.3c0-0.1,0-0.3-0.1-0.4
	C1946.8,922,1946.5,921.8,1946.3,921.6L1946.3,921.6z M1949.2,917.8c0.2,0.4,0.3,0.7,0.4,0.9c0.1,0.3,0.2,0.3,0.3,0.3
	s0.2-0.2,0.2-0.3s0-0.3-0.2-0.4S1949.4,917.9,1949.2,917.8L1949.2,917.8z M1950.8,919.2h-2.9l0.2,0.2c0.2-0.1,0.4-0.1,0.6-0.1h2.9
	l-0.5-0.5L1950.8,919.2L1950.8,919.2z M1950.6,923.8v-3.2l0.2-0.2l-0.4-0.4l-0.3,0.3h-1l-0.5-0.3c0,0.8,0,1.4,0,2
	c0,0.5-0.1,1-0.2,1.4s-0.4,0.8-0.8,1.2l0.1,0.1c0.6-0.4,0.9-0.8,1.1-1.3s0.3-0.9,0.3-1.4s0-1,0-1.6h1.1v3.6c0,0.3,0.2,0.5,0.5,0.5
	h0.7c0,0,0.1,0,0.2-0.1s0.2-0.2,0.3-0.3c-0.2,0-0.3-0.2-0.3-0.3c0-0.2-0.1-0.5-0.1-0.8h-0.2c0,0.4,0,0.7-0.1,0.9
	c0,0.2-0.1,0.3-0.2,0.3h-0.3C1950.6,924.2,1950.6,924.1,1950.6,923.8L1950.6,923.8z"/>
<path class="st4" d="M1946.3,923.9L1946.3,923.9c0.4,0.2,0.7,0.4,0.8,0.7c0.3-0.1,0.4-0.2,0.5-0.3s0.1-0.3,0.1-0.5V919l0.2-0.2
	l-0.4-0.4l-0.3,0.3h-0.9l0.5-0.8l0.2-0.1l-0.6-0.3c0,0.4-0.1,0.8-0.2,1.2h-0.3l-0.4-0.3c0,0.5,0,0.9,0,1.4v1.3h-0.8l0.2,0.2l0.3-0.1
	h0.3c0,0.6,0,1.2-0.1,1.8s-0.3,1.1-0.7,1.7l0.1,0.1c0.5-0.5,0.8-1.1,0.9-1.5s0.2-1.1,0.2-2h1.3v2.5c0,0.1,0,0.2-0.1,0.2
	S1946.8,923.9,1946.3,923.9L1946.3,923.9z M1945.9,918.8h1.3v2.2h-1.3V918.8z M1946.3,919.4c0.1,0.3,0.2,0.6,0.2,0.8
	c0,0.3,0.1,0.4,0.2,0.3c0.1,0,0.2-0.1,0.2-0.3c0.1-0.1,0-0.3-0.1-0.4S1946.5,919.5,1946.3,919.4L1946.3,919.4z M1946.3,921.6
	L1946.3,921.6c0.1,0.4,0.3,0.7,0.3,1c0,0.2,0.1,0.3,0.2,0.3s0.2-0.1,0.2-0.3c0-0.1,0-0.3-0.1-0.4
	C1946.8,922,1946.5,921.8,1946.3,921.6L1946.3,921.6z M1949.2,917.8c0.2,0.4,0.3,0.7,0.4,0.9c0.1,0.3,0.2,0.3,0.3,0.3
	s0.2-0.2,0.2-0.3s0-0.3-0.2-0.4S1949.4,917.9,1949.2,917.8L1949.2,917.8z M1950.8,919.2h-2.9l0.2,0.2c0.2-0.1,0.4-0.1,0.6-0.1h2.9
	l-0.5-0.5L1950.8,919.2L1950.8,919.2z M1950.6,923.8v-3.2l0.2-0.2l-0.4-0.4l-0.3,0.3h-1l-0.5-0.3c0,0.8,0,1.4,0,2
	c0,0.5-0.1,1-0.2,1.4s-0.4,0.8-0.8,1.2l0.1,0.1c0.6-0.4,0.9-0.8,1.1-1.3s0.3-0.9,0.3-1.4s0-1,0-1.6h1.1v3.6c0,0.3,0.2,0.5,0.5,0.5
	h0.7c0,0,0.1,0,0.2-0.1s0.2-0.2,0.3-0.3c-0.2,0-0.3-0.2-0.3-0.3c0-0.2-0.1-0.5-0.1-0.8h-0.2c0,0.4,0,0.7-0.1,0.9
	c0,0.2-0.1,0.3-0.2,0.3h-0.3C1950.6,924.2,1950.6,924.1,1950.6,923.8L1950.6,923.8z"/>
<path class="st2" d="M1921.4,925.9c0.1-0.7,0.4-1.3,1-1.9s1.4-1.4,2.3-2.6s1.6-2.1,1.8-2.8c0.3-0.7,0.4-1.2,0.3-1.7
	s-0.3-0.9-0.7-1.2s-0.8-0.4-1.3-0.4s-1,0.2-1.4,0.6c-0.4,0.3-0.8,0.8-1,1.5l-1.3-0.2c0.4-1.1,0.9-1.9,1.4-2.4s1.3-0.8,2.1-0.8
	c0.5,0,0.9,0,1.3,0c0.4,0.1,0.8,0.2,1.2,0.5s0.7,0.6,1,1.2s0.3,1.1,0.3,1.9c-0.1,0.7-0.4,1.6-1.1,2.6s-1.9,2.6-3.8,4.8h5.1v1.3h-7.1
	L1921.4,925.9L1921.4,925.9z"/>
<path class="st1" d="M1524.5,910.2c0.1-5.2,4.4-9.5,9.6-9.6c5.1-0.1,9.3,4.1,9.2,9.2c0,5.2-4.3,9.5-9.5,9.6
	C1528.6,919.6,1524.5,915.5,1524.5,910.2z"/>
<polyline class="st1" points="1518,910 1547,910 1547,903 "/>
<polyline class="st1" points="1539.4,896 1533.9,896 1533.9,926.2 "/>
<path class="st2" d="M1522.8,899.4l0.2,0.2c0.2-0.1,0.4-0.1,0.6-0.1h2l-0.5-0.5l-0.3,0.3L1522.8,899.4L1522.8,899.4z M1522.2,900.7
	l0.2,0.2c0.2-0.1,0.4-0.1,0.6-0.1h0.7c-0.2,0.5-0.4,0.9-0.7,1.3c-0.3,0.4-0.6,0.7-0.8,0.7l0.4,0.6c0.2-0.2,0.5-0.3,1.1-0.4
	s1.1-0.2,1.7-0.2c0.1,0.2,0.2,0.3,0.2,0.5c0,0.1,0.1,0.1,0.2,0s0.2-0.2,0.2-0.4s-0.1-0.3-0.2-0.5s-0.5-0.5-1.1-0.9l-0.1,0.1
	c0.4,0.5,0.6,0.9,0.7,1l-2.6,0.2c0.3-0.2,0.7-0.8,1.3-1.6l0.2-0.1l-0.4-0.3h2.5l-0.5-0.5l-0.4,0.4H1522.2L1522.2,900.7z
	 M1523.9,896.3c-0.2,0.7-0.4,1.3-0.8,1.9s-0.8,1.1-1.4,1.6l0.1,0.1c0.7-0.5,1.2-1,1.5-1.4s0.6-0.9,0.8-1.4c0.2,0.6,0.5,1,0.9,1.5
	c0.3,0.4,0.7,0.7,1.1,1c0.2-0.2,0.3-0.3,0.6-0.3v-0.1c-0.5-0.2-0.9-0.4-1.3-0.8s-0.8-0.8-1.1-1.5l0.3-0.2L1523.9,896.3L1523.9,896.3
	z M1519.9,899c0.4-0.5,0.9-1.2,1.3-2.1l0.3-0.2l-0.7-0.4c-0.1,0.4-0.3,1-0.6,1.6c-0.3,0.7-0.6,1-0.8,1l0.4,0.5
	c0.1-0.1,0.3-0.2,0.5-0.2s0.5-0.1,0.8-0.1c-0.5,0.7-0.8,1.2-1,1.4s-0.4,0.3-0.5,0.4l0.3,0.6c0.2-0.1,0.5-0.2,0.8-0.4
	s0.8-0.2,1.4-0.4v-0.1l-1.9,0.3c0.7-0.7,1.3-1.5,2-2.6l0.3-0.2l-0.6-0.4c-0.2,0.5-0.4,0.9-0.6,1.3L1519.9,899L1519.9,899z
	 M1519.5,902.5l0.3,0.5c0.2-0.2,1.1-0.6,2.4-1l-0.1-0.1C1520.7,902.2,1519.8,902.5,1519.5,902.5L1519.5,902.5z"/>
<path class="st3" d="M1522.8,899.4l0.2,0.2c0.2-0.1,0.4-0.1,0.6-0.1h2l-0.5-0.5l-0.3,0.3L1522.8,899.4L1522.8,899.4z M1522.2,900.7
	l0.2,0.2c0.2-0.1,0.4-0.1,0.6-0.1h0.7c-0.2,0.5-0.4,0.9-0.7,1.3c-0.3,0.4-0.6,0.7-0.8,0.7l0.4,0.6c0.2-0.2,0.5-0.3,1.1-0.4
	s1.1-0.2,1.7-0.2c0.1,0.2,0.2,0.3,0.2,0.5c0,0.1,0.1,0.1,0.2,0s0.2-0.2,0.2-0.4s-0.1-0.3-0.2-0.5s-0.5-0.5-1.1-0.9l-0.1,0.1
	c0.4,0.5,0.6,0.9,0.7,1l-2.6,0.2c0.3-0.2,0.7-0.8,1.3-1.6l0.2-0.1l-0.4-0.3h2.5l-0.5-0.5l-0.4,0.4H1522.2L1522.2,900.7z
	 M1523.9,896.3c-0.2,0.7-0.4,1.3-0.8,1.9s-0.8,1.1-1.4,1.6l0.1,0.1c0.7-0.5,1.2-1,1.5-1.4s0.6-0.9,0.8-1.4c0.2,0.6,0.5,1,0.9,1.5
	c0.3,0.4,0.7,0.7,1.1,1c0.2-0.2,0.3-0.3,0.6-0.3v-0.1c-0.5-0.2-0.9-0.4-1.3-0.8s-0.8-0.8-1.1-1.5l0.3-0.2L1523.9,896.3L1523.9,896.3
	z M1519.9,899c0.4-0.5,0.9-1.2,1.3-2.1l0.3-0.2l-0.7-0.4c-0.1,0.4-0.3,1-0.6,1.6c-0.3,0.7-0.6,1-0.8,1l0.4,0.5
	c0.1-0.1,0.3-0.2,0.5-0.2s0.5-0.1,0.8-0.1c-0.5,0.7-0.8,1.2-1,1.4s-0.4,0.3-0.5,0.4l0.3,0.6c0.2-0.1,0.5-0.2,0.8-0.4
	s0.8-0.2,1.4-0.4v-0.1l-1.9,0.3c0.7-0.7,1.3-1.5,2-2.6l0.3-0.2l-0.6-0.4c-0.2,0.5-0.4,0.9-0.6,1.3L1519.9,899L1519.9,899z
	 M1519.5,902.5l0.3,0.5c0.2-0.2,1.1-0.6,2.4-1l-0.1-0.1C1520.7,902.2,1519.8,902.5,1519.5,902.5L1519.5,902.5z"/>
<path class="st2" d="M1542.3,923.9L1542.3,923.9c0.4,0.2,0.7,0.4,0.8,0.7c0.3-0.1,0.4-0.2,0.5-0.3s0.1-0.3,0.1-0.5V919l0.2-0.2
	l-0.4-0.4l-0.3,0.3h-0.9l0.5-0.8l0.2-0.1l-0.6-0.3c0,0.4-0.1,0.8-0.2,1.2h-0.3l-0.4-0.3c0,0.5,0,0.9,0,1.4v1.3h-0.8l0.2,0.2l0.3-0.1
	h0.3c0,0.6,0,1.2-0.1,1.8s-0.3,1.1-0.7,1.7l0.1,0.1c0.5-0.5,0.8-1.1,0.9-1.5s0.2-1.1,0.2-2h1.3v2.5c0,0.1,0,0.2-0.1,0.2
	S1542.8,923.9,1542.3,923.9L1542.3,923.9z M1541.9,918.8h1.3v2.2h-1.3V918.8z M1542.3,919.4c0.1,0.3,0.2,0.6,0.2,0.8
	c0,0.3,0.1,0.4,0.2,0.3c0.1,0,0.2-0.1,0.2-0.3c0.1-0.1,0-0.3-0.1-0.4S1542.5,919.5,1542.3,919.4L1542.3,919.4z M1542.3,921.6
	L1542.3,921.6c0.1,0.4,0.3,0.7,0.3,1c0,0.2,0.1,0.3,0.2,0.3s0.2-0.1,0.2-0.3c0-0.1,0-0.3-0.1-0.4
	C1542.8,922,1542.5,921.8,1542.3,921.6L1542.3,921.6z M1545.2,917.8c0.2,0.4,0.3,0.7,0.4,0.9c0.1,0.3,0.2,0.3,0.3,0.3
	s0.2-0.2,0.2-0.3s0-0.3-0.2-0.4S1545.4,917.9,1545.2,917.8L1545.2,917.8z M1546.8,919.2h-2.9l0.2,0.2c0.2-0.1,0.4-0.1,0.6-0.1h2.9
	l-0.5-0.5L1546.8,919.2L1546.8,919.2z M1546.6,923.8v-3.2l0.2-0.2l-0.4-0.4l-0.3,0.3h-1l-0.5-0.3c0,0.8,0,1.4,0,2
	c0,0.5-0.1,1-0.2,1.4s-0.4,0.8-0.8,1.2l0.1,0.1c0.6-0.4,0.9-0.8,1.1-1.3s0.3-0.9,0.3-1.4s0-1,0-1.6h1.1v3.6c0,0.3,0.2,0.5,0.5,0.5
	h0.7c0,0,0.1,0,0.2-0.1s0.2-0.2,0.3-0.3c-0.2,0-0.3-0.2-0.3-0.3c0-0.2-0.1-0.5-0.1-0.8h-0.2c0,0.4,0,0.7-0.1,0.9
	c0,0.2-0.1,0.3-0.2,0.3h-0.3C1546.6,924.2,1546.6,924.1,1546.6,923.8L1546.6,923.8z"/>
<path class="st4" d="M1542.3,923.9L1542.3,923.9c0.4,0.2,0.7,0.4,0.8,0.7c0.3-0.1,0.4-0.2,0.5-0.3s0.1-0.3,0.1-0.5V919l0.2-0.2
	l-0.4-0.4l-0.3,0.3h-0.9l0.5-0.8l0.2-0.1l-0.6-0.3c0,0.4-0.1,0.8-0.2,1.2h-0.3l-0.4-0.3c0,0.5,0,0.9,0,1.4v1.3h-0.8l0.2,0.2l0.3-0.1
	h0.3c0,0.6,0,1.2-0.1,1.8s-0.3,1.1-0.7,1.7l0.1,0.1c0.5-0.5,0.8-1.1,0.9-1.5s0.2-1.1,0.2-2h1.3v2.5c0,0.1,0,0.2-0.1,0.2
	S1542.8,923.9,1542.3,923.9L1542.3,923.9z M1541.9,918.8h1.3v2.2h-1.3V918.8z M1542.3,919.4c0.1,0.3,0.2,0.6,0.2,0.8
	c0,0.3,0.1,0.4,0.2,0.3c0.1,0,0.2-0.1,0.2-0.3c0.1-0.1,0-0.3-0.1-0.4S1542.5,919.5,1542.3,919.4L1542.3,919.4z M1542.3,921.6
	L1542.3,921.6c0.1,0.4,0.3,0.7,0.3,1c0,0.2,0.1,0.3,0.2,0.3s0.2-0.1,0.2-0.3c0-0.1,0-0.3-0.1-0.4
	C1542.8,922,1542.5,921.8,1542.3,921.6L1542.3,921.6z M1545.2,917.8c0.2,0.4,0.3,0.7,0.4,0.9c0.1,0.3,0.2,0.3,0.3,0.3
	s0.2-0.2,0.2-0.3s0-0.3-0.2-0.4S1545.4,917.9,1545.2,917.8L1545.2,917.8z M1546.8,919.2h-2.9l0.2,0.2c0.2-0.1,0.4-0.1,0.6-0.1h2.9
	l-0.5-0.5L1546.8,919.2L1546.8,919.2z M1546.6,923.8v-3.2l0.2-0.2l-0.4-0.4l-0.3,0.3h-1l-0.5-0.3c0,0.8,0,1.4,0,2
	c0,0.5-0.1,1-0.2,1.4s-0.4,0.8-0.8,1.2l0.1,0.1c0.6-0.4,0.9-0.8,1.1-1.3s0.3-0.9,0.3-1.4s0-1,0-1.6h1.1v3.6c0,0.3,0.2,0.5,0.5,0.5
	h0.7c0,0,0.1,0,0.2-0.1s0.2-0.2,0.3-0.3c-0.2,0-0.3-0.2-0.3-0.3c0-0.2-0.1-0.5-0.1-0.8h-0.2c0,0.4,0,0.7-0.1,0.9
	c0,0.2-0.1,0.3-0.2,0.3h-0.3C1546.6,924.2,1546.6,924.1,1546.6,923.8L1546.6,923.8z"/>
<path class="st2" d="M1517.4,925.9c0.1-0.7,0.4-1.3,1-1.9s1.4-1.4,2.3-2.6s1.6-2.1,1.8-2.8c0.3-0.7,0.4-1.2,0.3-1.7
	s-0.3-0.9-0.7-1.2s-0.8-0.4-1.3-0.4s-1,0.2-1.4,0.6c-0.4,0.3-0.8,0.8-1,1.5l-1.3-0.2c0.4-1.1,0.9-1.9,1.4-2.4s1.3-0.8,2.1-0.8
	c0.5,0,0.9,0,1.3,0c0.4,0.1,0.8,0.2,1.2,0.5s0.7,0.6,1,1.2s0.3,1.1,0.3,1.9c-0.1,0.7-0.4,1.6-1.1,2.6s-1.9,2.6-3.8,4.8h5.1v1.3h-7.1
	L1517.4,925.9L1517.4,925.9z"/>
<path class="st0" d="M2077.2,335.1c11,4.2,21.4,9.6,31.7,15.2c1.1,0.6,0.5,2-0.6,1.7c-16.9-5.2-34-10.2-51.4-13.2
	c-14.2-2.4-28.4-3.5-42.7-4.3c-19.2-1-51.3-0.3-70.4,0.7c-0.5,0-0.9-0.4-0.9-0.9l-0.4-14.8c0-0.5,0.4-0.9,0.9-0.9
	C1983.1,318.9,2039.1,320.6,2077.2,335.1L2077.2,335.1z"/>
<path class="st0" d="M1702.8,522.7c-16.8-3-28.5-6.3-28.5-6.3c-1.2-0.3-0.9-1.8,0.3-1.8c21.6,1.5,40.4,3.9,59.2,4.4
	c18.7,0.5,37.3-0.8,58.3-6.5c34.3-9.4,64.5-28.9,92.8-50.8c14.3-11.1,28.5-22.4,43.2-33c31-22.1,62-36.6,98.9-44.6
	c11.7-2.5,25.3-4.6,37.3-4.6c10.8,0,21.4,1.7,32,3.9c1.2,0.2,1,1.8-0.2,1.8c-12.2-0.5-24-0.4-36.1,1.3c-10,1.4-20.3,3.8-29.9,6.7
	c-41.2,12.7-59.6,23.6-87.7,44.1c-17.1,12.5-37.9,28.9-54.8,41.5c-39.2,29.2-77,46.7-125.4,48.7
	C1741.6,528.5,1719.6,525.7,1702.8,522.7L1702.8,522.7z"/>
<path class="st0" d="M1609.3,602.3c-1.1,0.3-2,0.7-2.8,1c-0.9,0.3-1.9,0.6-3.3,0.6l-16.1-3.1c-9.7-1.9-19.3-3.8-28.9-5.7
	c-12.6-2.5-25.2-5-37.7-7.8l-6.8-1.5l-6.4-1.5c-17.7-4-35.3-8.4-52.7-13.6c-8.2-2.5-16.6-5-24.5-8.4c-9.9-4.2-19.7-8.8-21.5-21.5
	c-0.4-3-0.6-6.2-0.3-9.3c0.8-9.2,4.7-16.5,12.2-21.8c4.6-3.2,10.2-4.8,15.9-5.6c5.7-0.8,11.5-0.9,16.7-0.9
	c5.1-0.1,10.2-0.1,15.3-0.1c11.9,0,23.7,0.1,35.6,0.1c29.1,0.1,58.3,0.6,87.4-0.2c31.3-0.9,55.7-4.3,86.4-10.6
	c45-9.2,87.1-27.1,127.5-49.6c25.7-14.3,49-29.5,74.8-43.4c26-13.9,48.4-25.2,83.2-34.9c21.2-5.9,38.7-9,60.5-10.4
	c17.1-1.1,40.2-1.1,59.8,4.8c6.7,2,11.7,3.9,18,6.9c1.1,0.5,0.6,2-0.6,1.7c-11.9-2.6-24.7-3.5-36.8-4.2c-15-0.9-31.2,0.3-46.1,2.4
	c-17.6,2.4-26.8,5.3-40,8.8c-24.5,6.5-45.8,14-68.5,25.6c-15.9,8.1-35.8,20.9-51,30.2c-20.8,12.9-38.3,22.6-59.9,33.9
	c-17.5,9.2-35.4,17.7-53.9,24.7c-20.4,7.7-41.5,13.5-62.8,17.9c-30.1,6.2-59.8,8.5-90.4,9.6c-18.8,0.7-37.6,0.9-56.4,0.6
	c-19.2-0.4-38.4-1-57.6-1.1c-11.1,0-22.5-0.3-33.6,1.2c-7.1,0.9-17.6,2.9-20.7,10c-1.2,2.8-1.3,5.9-0.9,9
	c1.1,8.5,6.4,11.7,14.1,14.6c4.7,1.8,9.4,3.2,14.1,4.6c9.4,2.8,19,5.2,28.5,7.6c15.8,4,31.6,7.8,47.4,11.7
	c31.3,7.5,62.7,14.9,94,22.2c0.1,0,0.5,0.3,0.6,0.4l0.2,0.4c0.3,0.6,0.1,1.2-0.5,1.3L1609.3,602.3L1609.3,602.3z"/>
<path class="st0" d="M1288.8,912.5c-11,4.2-21.4,9.7-31.7,15.2c-1.1,0.6-0.5,2,0.7,1.7c16.9-5.2,34-10.2,51.4-13.2
	c14.2-2.4,28.4-3.5,42.7-4.3c19.2-1,51.3-0.3,70.4,0.7c0.5,0,0.9-0.4,0.9-0.9l0.4-14.8c0-0.5-0.4-0.9-0.9-0.9
	C1382.9,896.2,1327,897.9,1288.8,912.5L1288.8,912.5z"/>
<path class="st0" d="M1663.3,1100c16.8-3,28.5-6.3,28.5-6.3c1.2-0.3,0.9-1.8-0.3-1.8c-21.6,1.5-40.4,3.9-59.2,4.4
	c-18.7,0.5-37.3-0.8-58.3-6.6c-34.3-9.4-64.5-28.9-92.8-50.8c-14.3-11.1-28.5-22.4-43.2-33c-31-22.1-62-36.6-98.9-44.6
	c-11.7-2.5-25.3-4.6-37.3-4.6c-10.8,0-21.4,1.7-32,3.9c-1.2,0.2-1,1.8,0.2,1.8c12.2-0.5,24-0.4,36.1,1.3c10,1.4,20.3,3.8,29.9,6.7
	c41.2,12.7,59.6,23.6,87.7,44.1c17.1,12.5,37.9,28.9,54.8,41.5c39.2,29.2,77,46.7,125.4,48.7
	C1624.5,1105.9,1646.4,1103.1,1663.3,1100L1663.3,1100z"/>
<path class="st0" d="M1756.8,1179.7c1.1,0.3,2,0.7,2.8,1c0.9,0.3,1.9,0.6,3.3,0.6l16.1-3.1c9.7-1.9,19.3-3.8,28.9-5.7
	c12.6-2.5,25.2-5.1,37.7-7.8l6.8-1.5l6.4-1.4c17.7-4,35.3-8.4,52.7-13.6c8.2-2.5,16.6-5,24.5-8.4c9.9-4.2,19.7-8.8,21.5-21.5
	c0.4-3.1,0.6-6.2,0.3-9.3c-0.8-9.2-4.7-16.6-12.2-21.8c-4.6-3.2-10.2-4.8-15.9-5.6c-5.7-0.8-11.5-0.8-16.7-0.9
	c-5.1-0.1-10.2-0.1-15.3-0.1c-11.9,0-23.7,0.1-35.6,0.1c-29.1,0.2-58.3,0.6-87.4-0.2c-31.3-0.9-55.7-4.3-86.4-10.6
	c-45-9.2-87.1-27.1-127.5-49.6c-25.7-14.3-49-29.5-74.8-43.4c-26-13.9-48.4-25.2-83.2-34.9c-21.2-5.9-38.7-9-60.5-10.4
	c-17.1-1.1-40.2-1.1-59.8,4.8c-6.7,2-11.7,3.9-18,6.9c-1.1,0.5-0.6,2,0.6,1.7c11.8-2.6,24.7-3.5,36.8-4.2c15-0.9,31.2,0.3,46.1,2.4
	c17.6,2.4,26.8,5.3,40,8.8c24.5,6.5,45.8,14,68.5,25.6c15.9,8.1,35.8,20.9,51,30.2c20.8,12.8,38.3,22.6,59.9,33.9
	c17.5,9.2,35.4,17.7,53.9,24.7c20.4,7.7,41.5,13.5,62.8,17.9c30.1,6.2,59.8,8.5,90.4,9.6c18.8,0.7,37.6,0.9,56.4,0.6
	c19.2-0.4,38.4-1,57.6-1.1c11.1,0,22.5-0.3,33.6,1.2c7.1,0.9,17.7,2.9,20.7,10c1.2,2.8,1.3,5.9,0.9,9.1c-1.1,8.6-6.4,11.7-14.1,14.6
	c-4.7,1.8-9.4,3.2-14.1,4.6c-9.4,2.8-19,5.2-28.5,7.6c-15.8,4-31.6,7.8-47.4,11.7c-31.3,7.5-62.7,14.9-94,22.2
	c-0.1,0-0.5,0.3-0.6,0.4l-0.2,0.4c-0.3,0.6-0.1,1.2,0.5,1.3L1756.8,1179.7L1756.8,1179.7z"/>
</svg>
