<?xml version="1.0" encoding="utf-8"?>
<!-- Generator: Adobe Illustrator 28.0.0, SVG Export Plug-In . SVG Version: 6.00 Build 0)  -->
<svg version="1.1" id="_Ç_" xmlns="http://www.w3.org/2000/svg" xmlns:xlink="http://www.w3.org/1999/xlink" x="0px" y="0px"
	 width="1133.9px" height="1417.3px" viewBox="0 0 1133.9 1417.3" style="enable-background:new 0 0 1133.9 1417.3;"
	 xml:space="preserve">
<style type="text/css">
	.st0{fill:#00CBFF;}
	.st1{fill:none;stroke:#FF0000;stroke-width:4;stroke-miterlimit:3.86;}
	
		.st2{fill-rule:evenodd;clip-rule:evenodd;fill:#B63BCF;stroke:#231F20;stroke-width:4;stroke-linecap:round;stroke-linejoin:round;}
	.st3{fill-rule:evenodd;clip-rule:evenodd;fill:#ED1C24;}
	.st4{fill-rule:evenodd;clip-rule:evenodd;fill:#231F20;}
	.st5{font-family:'ArialMT';}
	.st6{font-size:12px;}
</style>
<g>
	<path class="st0" d="M372,528.9c-2.1,6.7-4.2,13.4-6.1,20.1l-0.4,1.7l-0.6,2.4l-8,4l5.9,6.8c0,0-21.1,102.4-30.2,147.6
		c-9.1,45.1-20.8,103.4-20.8,103.4l-5.6,2.8l3.4,6.4l-0.3,9.9l26.1-4.4c1.7-0.3,3.4-0.6,5.1-0.8c0.4,0,0.9-0.1,1.5-0.1
		c12.3-1.4,15.9,5.5,15.7,15.6c-0.2,9.4,0.5,27.6-0.6,51c-0.6,4.1-1.1,8-1.2,11.5c-0.3,13.2-0.6,26.6,0.2,39.8
		c21.6-32.6,50.9-75,73.1-107.9c19-28.2,47.4-64.6,55-72c7.6-7.3,10.8-12.1,24.7-4.9c4.3,2.2,10.2,5.5,16.3,9.1
		c-2.6-16.6-5.8-36.8-8.3-53.9c-5.4-36.3-17.3-96.4-18.1-130.2c-0.4-17.4,0.7-29.3,3.5-38.2c-3.1-0.1-6.3-0.2-9.6-0.5
		c-18.7-1.3-23.1-2-31-19.7c-6.2-14-15.9-45.5-24.3-74c-4.3,0.8-8.7,0.7-13.4,0.6c-9-0.2-20.4-1-26-1.4c-3.9,7.4-8.2,18.5-12.3,30.6
		C380.5,499.4,376.1,515.5,372,528.9L372,528.9L372,528.9z M394.3,660.8c4.8-11.7,9.6-23.5,15.4-35.4c4.7-9.5,10.8-11.7,21.2-12.1
		c10.7-0.5,38.2,0.5,46.8,0.5c6.8,0,7.5,2.3,1.7,6.2c-5.2,3.5-66,44-75.7,49.9C394.1,675.7,389.2,672.9,394.3,660.8L394.3,660.8
		L394.3,660.8z M386.7,733.8c-0.8-9.8-0.9-21.5-0.4-33.7c0.5-10.9,5.9-14,16.6-13.5c12.9,0.6,61.2,2.2,69.4,2.4s8.7,5.8,1.2,10.6
		c-7,4.5-55.4,33.6-68.9,41.8C394.6,747.6,387.4,746.6,386.7,733.8L386.7,733.8L386.7,733.8z M481,643.4c7.1-3.6,9.3-3.4,10.3,5.1
		c0.4,3.9,1.4,8.1,1.8,12.3c0.8,7-0.5,9.1-7.7,8.8c-7.1-0.3-26.2-1.6-34.8-1.9c-8.4-0.4-9-3.9-1.9-7.5L481,643.4L481,643.4
		L481,643.4z M407.3,773.9l75.5-55.6c4.7-3.5,10.5-0.2,5.2,5.9c-24,28.2-49.4,58.9-75.9,86.2c-5.2,5.4-9.9,3.7-12.3-2.8
		c-1.8-4.9-2.7-10.8-2.8-15.1C396.7,785.2,399.5,779.6,407.3,773.9L407.3,773.9L407.3,773.9z M389.1,617.5l35.3-101.1
		c1.9-5.3,4.9-8.3,9.1-1.4c4.3,6.9,6.7,12.1,8.6,16.9c1.9,4.9,3.3,8.9-2.5,18c-14.8,23.4-31.5,46.1-46.6,69.3
		C390.8,622.9,387.7,621.2,389.1,617.5L389.1,617.5L389.1,617.5z M435.5,586.1l13.6-20.1c4.2-6.2,8.7-7.5,15.8-6.7s6.3,0.3,11.2,1.3
		s8,2.6,8,9.4c0,6.8,0.1,15-0.3,20.5c-0.4,5.4-2.1,7.5-9.7,7.2s-25.7-1.4-32.9-1.9C433.8,595.1,431.1,593.1,435.5,586.1L435.5,586.1
		L435.5,586.1z"/>
	<g>
		<path id="targetPath-up" class="st1" d="M567.4,367.4c28.5-0.1,45.1,1.6,62,15.7c16.9,14.2,34.6,36.1,46,51s20.3,14.9,32.6,14.5
			c12.3-0.3,29.2-1.8,29.2-1.8c14.2,23.8,35,101.4,35,101.4l12.1,6l-8.7,10.1c0,0,21,99.8,30.2,144.8
			c9.2,45.1,20.7,100.8,20.7,100.8l8.2,4.1l-5.1,9.6c0,0,4.3,21.4,9,45.3c4.6,24,29.5,144.8,29.5,144.8s-11.3,6-52.6,14.7
			c-41.3,8.7-84.4,10.2-84.4,10.2l0.7,10.8c-22.9,0.2-63.7-0.9-63.7-0.9c-2.4-16.6-7.1-29.5-14.1-41s-13.5-22.8-12.2-30.2
			c1.5-7.4,10.1-13.7,29.9-24.6c19.8-10.8,26.1-24,22.1-48c-3.9-24-21.1-47.3-43.1-67.1s-49.6-34.9-49.6-34.9s7.9-50.4,13.1-86.6
			s16.9-96.2,17.7-130c0.6-33.8-4.4-46.5-16-55.7s-33.1-12.6-50.7-12.6c-17.6,0-37.6,3.7-49.2,12.8c-11.6,9.1-16.6,21.8-15.8,55.7
			c0.8,33.8,12.8,93.8,18.1,130c5.4,36.2,13.5,86.6,13.5,86.6s-27.5,15.2-49.4,35.1c-22,19.9-39,43.3-42.9,67.3s2.5,37.2,22.3,48
			s28.5,16.9,29.9,24.4c1.4,7.4-5.1,18.7-12,30.2c-7,11.5-11.6,24.5-13.9,41c0,0-40.8,1.3-63.7,1.1l0.7-10.8c0,0-43.2-1.1-84.5-9.6
			c-41.2-8.5-52.6-14.5-52.6-14.5s24.4-120.9,28.9-145c4.6-24,8.8-45.3,8.8-45.3l-5.1-9.6l8.2-4.1c0,0,11.2-55.7,20.3-100.8
			c9.1-45.1,29.6-145,29.6-145l-8.7-10.1l12.1-6c0,0,20.4-77.7,34.6-101.6c0,0,16.9,1.4,29.2,1.6s21.2,0.2,32.6-14.7
			c11.4-14.8,28.9-37.1,45.7-51.2s33.5-15.9,62-15.9S538.9,367.5,567.4,367.4L567.4,367.4L567.4,367.4z"/>
		<path class="st0" d="M760.3,528.2c2.1,6.7,4.1,13.4,6.1,20.1l0.5,1.7l0.6,2.4l8,4l-5.9,6.8c0,0,21.5,102.4,30.8,147.4
			S821.6,814,821.6,814l5.6,2.8l-3.4,6.4l0.3,9.9l-26.1-4.4c-1.7-0.3-3.4-0.6-5.1-0.8c-0.5,0-1-0.1-1.5-0.1
			c-12.3-1.4-15.9,5.5-15.7,15.6c0.2,9.4-0.3,27.6,0.8,51c0.6,4.1,1.1,8,1.2,11.5c0.3,13.2,0.6,26.6,0,39.8
			c-21.8-32.6-51.1-74.8-73.5-107.7c-19.2-28.2-47.6-64.4-55.2-71.8c-7.6-7.3-10.8-12.1-24.7-4.9c-4.3,2.2-10.2,5.5-16.3,9.1
			c2.6-16.6,5.6-36.8,8.1-53.9c5.2-36.3,16.9-96.4,17.7-130.2c0.4-17.4-0.9-29.3-3.7-38.2c3.1-0.1,6.3-0.2,9.6-0.5
			c18.7-1.3,23.1-2,31-19.9c6.2-14,15.7-45.5,24.1-74c4.3,0.8,8.7,0.7,13.4,0.6c9-0.2,20.4-1,26-1.4c3.9,7.4,8.2,18.5,12.5,30.6
			C751.7,498.8,756.1,514.8,760.3,528.2L760.3,528.2L760.3,528.2z M738.5,660.2c-4.8-11.7-9.6-23.5-15.6-35.4
			c-4.7-9.5-10.8-11.7-21.2-12.1c-10.7-0.5-38.2,0.7-46.8,0.7c-6.8,0-7.5,2.3-1.7,6.2c5.2,3.5,66.2,43.8,75.9,49.7
			C738.8,675.1,743.7,672.3,738.5,660.2L738.5,660.2L738.5,660.2z M746.3,733.2c0.8-9.8,0.9-21.5,0.2-33.7
			c-0.5-10.9-5.9-14-16.6-13.5c-13,0.6-61.2,2.4-69.4,2.6c-8.2,0.2-8.7,5.8-1.2,10.6c7,4.5,55.6,33.4,69.1,41.6
			C738.5,747,745.7,746,746.3,733.2L746.3,733.2L746.3,733.2z M651.7,643.1c-7.1-3.6-9.3-3.4-10.3,5.1c-0.4,3.9-1.4,8.1-1.8,12.3
			c-0.8,7,0.5,9.1,7.7,8.8c7.1-0.3,26.2-1.6,34.8-2.1c8.4-0.4,9-3.9,1.9-7.5L651.7,643.1L651.7,643.1L651.7,643.1z M725.9,773.3
			l-75.7-55.4c-4.7-3.5-10.5-0.2-5.2,5.9c24.2,28.2,49.6,58.7,76.3,86c5.2,5.4,9.9,3.7,12.3-2.8c1.8-4.9,2.7-10.8,2.8-15.1
			C736.5,784.6,733.7,779,725.9,773.3L725.9,773.3L725.9,773.3z M743.5,616.9L707.8,516c-1.9-5.3-4.9-8.3-9.1-1.4
			c-4.3,6.9-6.7,12.1-8.6,16.9c-1.9,4.8-3.3,8.9,2.5,18c14.8,23.4,31.7,45.9,46.8,69.1C741.9,622.3,744.9,620.6,743.5,616.9
			L743.5,616.9L743.5,616.9z M697,585.7l-13.6-20.1c-4.2-6.2-8.7-7.5-15.8-6.7s-6.3,0.3-11.2,1.3s-8,2.6-8,9.4
			c0,6.8-0.1,15,0.3,20.5c0.4,5.4,2.1,7.5,9.7,7.2c7.6-0.3,25.7-1.4,33-2.1C698.7,594.7,701.5,592.6,697,585.7L697,585.7L697,585.7z
			"/>
		<g>
			<path class="st2" d="M704,704.5c1-1.8,2-3.8,3.1-6c2.2-5.5,4-12.3,5.1-18.7c1.4-8.2,1.3-16.5-3.3-27.7
				c-5.8-14.4-10.5-25.8-13.1-44.8l-2.8-0.2c-2.7,15.7-6.3,32.8-8.1,45.5c-1.4,10-1.5,19.8-0.4,29.6c1.6,15.6,4.1,29.7,3.1,45.7
				c-0.7,12.4-2.8,25-7,35.8c6.9-9.2,14.4-24.9,18.4-36.8C701.8,718.6,703.5,711.6,704,704.5L704,704.5L704,704.5z"/>
			<path class="st3" d="M680.5,763.7c6.9-9.2,14.4-24.9,18.4-36.8c5.9-16.9,6.8-28.4,2.7-47.3c-2.1-9.8-4.3-18.4-5.9-27.1
				c-2.3-12.3-3.4-25.1-2.8-45.4c-2.7,15.7-6.3,32.8-8.1,45.5c-1.4,10-1.5,19.8-0.4,29.6c1.6,15.6,4.1,29.7,3.1,45.7
				C686.8,740.3,684.7,752.9,680.5,763.7L680.5,763.7L680.5,763.7z M695.8,607.3c2.5,19,7.3,30.4,13.1,44.8
				c4.5,11.2,4.6,19.5,3.3,27.7c-1.1,6.4-2.8,13.1-5.1,18.7c-0.5-11.8-4.8-28.6-7.8-42.1C695.4,639,695,624.9,695.8,607.3
				L695.8,607.3L695.8,607.3z"/>
		</g>
		<g>
			<path class="st2" d="M428.9,705c-1-1.8-2.1-3.8-3.1-6c-2.2-5.5-4-12.3-5.1-18.7c-1.4-8.2-1.3-16.5,3.1-27.7
				c5.8-14.4,10.6-25.8,13-44.8l2.8-0.2c2.7,15.7,6.5,32.8,8.3,45.5c1.4,10,1.5,19.8,0.6,29.6c-1.6,15.6-3.9,29.7-3,45.7
				c0.7,12.4,2.8,25,7.2,35.8c-6.9-9.2-14.4-24.9-18.6-36.8C431.2,719.1,429.5,712.1,428.9,705L428.9,705z"/>
			<path class="st3" d="M452.7,764.1c-6.9-9.2-14.4-24.9-18.6-36.8c-5.9-16.9-7-28.4-2.9-47.3c2.1-9.8,4.3-18.4,5.9-27.1
				c2.3-12.3,3.4-25.1,2.6-45.4c2.7,15.7,6.5,32.8,8.3,45.5c1.4,10,1.5,19.8,0.6,29.6c-1.6,15.6-3.9,29.7-3,45.7
				C446.2,740.8,448.3,753.3,452.7,764.1L452.7,764.1L452.7,764.1z M436.9,607.8c-2.5,19-7.1,30.4-13,44.8
				c-4.5,11.2-4.6,19.5-3.1,27.7c1.1,6.4,2.8,13.1,5.1,18.7c0.5-11.8,4.6-28.6,7.6-42.1C437.3,639.5,437.6,625.4,436.9,607.8z"/>
		</g>
		<g>
			<path class="st4" d="M571,678.9l-0.2-1.2c0.6-0.2,1.1-0.5,1.5-0.9s0.6-0.9,0.5-1.5c0-0.6-0.3-1.1-0.8-1.5s-1-0.5-1.6-0.5
				s-1.1,0.3-1.4,0.7s-0.6,1.1-0.7,2.1h-0.9c-0.1-0.9-0.3-1.6-0.8-2.1s-0.9-0.6-1.6-0.6s-1.1,0.3-1.4,0.9c-0.3,0.5-0.3,1.1-0.1,1.7
				c0.2,0.6,0.9,1.1,1.9,1.5l-0.2,1.2c-0.8-0.3-1.5-0.6-2-1.1s-0.9-1.1-1-1.9c-0.1-0.8,0-1.5,0.3-2.1s0.8-1,1.4-1.3
				c0.6-0.3,1.3-0.3,2-0.1s1.4,0.7,1.9,1.5c0.3-0.6,0.7-1.1,1.2-1.5s1.3-0.5,2.1-0.3c0.9,0.1,1.6,0.5,2.1,1.2s0.8,1.4,0.8,2.3
				c0,0.9-0.3,1.6-0.8,2.2C572.7,678.2,572,678.7,571,678.9L571,678.9L571,678.9z"/>
			<path class="st4" d="M573.7,670.1c-0.7,0-1.3-0.4-1.8-0.9c-0.5-0.6-1.4-1.3-2.5-2.2s-2-1.5-2.7-1.8s-1.2-0.4-1.6-0.3
				c-0.4,0.1-0.8,0.3-1.1,0.6c-0.3,0.4-0.4,0.8-0.4,1.2s0.2,0.9,0.5,1.4c0.3,0.4,0.8,0.8,1.4,1l-0.2,1.3c-1-0.4-1.8-0.8-2.3-1.4
				c-0.5-0.6-0.7-1.2-0.8-2c0-0.5,0-0.9,0-1.2s0.2-0.7,0.5-1.1c0.2-0.4,0.6-0.7,1.1-0.9s1.1-0.3,1.8-0.3s1.5,0.4,2.5,1
				s2.5,1.8,4.6,3.6v-4.9h1.2v6.8L573.7,670.1L573.7,670.1L573.7,670.1z"/>
			<path class="st4" d="M570,661.6c-0.7,0-1.2-0.2-1.7-0.4s-1-0.5-1.7-0.9l-4.3-2.8V656l4.5,2.8c-0.3-1.2-0.3-2.2,0.1-2.9
				c0.4-0.7,0.9-1.2,1.4-1.5s1.1-0.4,1.7-0.4c0.6,0,1.2,0.1,1.8,0.3s1.1,0.6,1.6,1.1s0.7,1.2,0.8,2.2c0,0.9-0.1,1.7-0.5,2.4
				c-0.4,0.6-0.9,1.1-1.6,1.4S570.7,661.7,570,661.6L570,661.6L570,661.6z M572.2,659.5c0.4-0.4,0.7-0.9,0.7-1.6s-0.2-1.2-0.7-1.7
				s-1.2-0.7-2.2-0.7s-1.6,0.3-2,0.8s-0.5,1.2-0.4,1.9s0.4,1.2,1,1.5s1.2,0.5,1.9,0.4C571.3,660.1,571.8,659.9,572.2,659.5
				L572.2,659.5L572.2,659.5z"/>
			<path class="st4" d="M567.5,653c-1.2,0-2.1-0.2-2.9-0.5c-0.7-0.3-1.3-0.7-1.7-1.2s-0.7-1.2-0.7-2s0.3-1.5,1-2.1s1.5-1,2.5-1.1
				s2.1-0.2,3.4-0.2c1.3,0.1,2.3,0.3,3.2,0.7c0.8,0.4,1.4,1,1.7,1.7s0.3,1.5-0.1,2.3c-0.4,0.8-0.9,1.3-1.5,1.6s-1.3,0.5-2,0.7
				C569.7,653.1,568.7,653.1,567.5,653L567.5,653L567.5,653z M567,651.6c1.2,0.1,2.4,0.1,3.3-0.1c1-0.2,1.7-0.6,2.1-1.1
				c0.4-0.5,0.5-1,0.2-1.6s-0.8-0.9-1.5-1.2c-0.8-0.2-1.6-0.4-2.4-0.4s-1.7,0-2.4,0.1s-1.4,0.3-2,0.6s-0.9,0.8-0.9,1.4
				c0,0.6,0.3,1.1,0.9,1.5C564.8,651.2,565.7,651.5,567,651.6L567,651.6L567,651.6z"/>
			<path class="st4" d="M570.8,636.9v2l3.1,0.4v1.1l-3.1-0.4v2.2l3.1,0.4v1.1l-3.1-0.4v1.4h-1.3v-1.5l-2.9-0.4v1.9h-1.3v-2l-3-0.4
				v-1.1l3,0.4v-2.2l-3-0.4v-1.1l3,0.4v-1.4h1.3v1.5l2.9,0.4v-1.9H570.8z M566.7,639.5v2.2l2.9,0.4v-2.2L566.7,639.5z"/>
			<path class="st4" d="M570.9,635.7l-0.2-1.2c0.6-0.2,1.1-0.5,1.5-0.9s0.6-0.9,0.5-1.5c0-0.6-0.3-1.1-0.8-1.5s-1-0.5-1.6-0.5
				s-1.1,0.3-1.4,0.7s-0.6,1.1-0.7,2.1h-0.9c-0.1-0.9-0.3-1.6-0.8-2.1s-0.9-0.6-1.6-0.6c-0.7,0-1.1,0.3-1.4,0.9
				c-0.3,0.5-0.3,1.1-0.1,1.7c0.2,0.6,0.9,1.1,1.9,1.5l-0.2,1.2c-0.8-0.3-1.5-0.6-2-1.1s-0.9-1.1-1-1.9c-0.1-0.8,0-1.5,0.3-2.1
				s0.8-1,1.4-1.3c0.6-0.3,1.3-0.3,2-0.1s1.4,0.7,1.9,1.5c0.3-0.6,0.7-1.1,1.2-1.5s1.3-0.5,2.1-0.3s1.6,0.5,2.1,1.2s0.8,1.4,0.8,2.3
				c0,0.9-0.3,1.6-0.8,2.2C572.6,635,571.9,635.5,570.9,635.7L570.9,635.7L570.9,635.7z"/>
			<path class="st4" d="M571.3,622.3v5.2h-1.1l-7.9-5.5v-1h7.9v-1.6h1.1v1.6h2.6v1.3H571.3z M570.1,622.3h-5.4l5.4,3.8V622.3z"/>
		</g>
	</g>
</g>
<text transform="matrix(1 0 0 1 25.7095 1390.7959)" class="st5 st6">Size: 400 500</text>
</svg>
