<?xml version="1.0" encoding="utf-8"?>
<!-- Generator: Adobe Illustrator 28.0.0, SVG Export Plug-In . SVG Version: 6.00 Build 0)  -->
<svg version="1.1" id="_x38_Pro" xmlns="http://www.w3.org/2000/svg" xmlns:xlink="http://www.w3.org/1999/xlink" x="0px" y="0px"
	 viewBox="0 0 2219.9 1243.3" style="enable-background:new 0 0 2219.9 1243.3;" xml:space="preserve">
<style type="text/css">
	.st0{display:none;fill:none;stroke:#231815;stroke-width:1.35;stroke-miterlimit:3.86;}
	.st1{display:none;fill-rule:evenodd;clip-rule:evenodd;fill:#231815;}
	.st2{display:none;fill:none;stroke:#231815;stroke-width:0.28;stroke-miterlimit:3.86;}
	.st3{display:none;fill:none;stroke:#231815;stroke-width:0.27;stroke-miterlimit:3.86;}
	.st4{display:none;fill:none;stroke:#040000;stroke-width:0.71;stroke-linecap:round;stroke-linejoin:round;}
	.st5{display:none;fill:#4858A6;}
	.st6{display:none;}
	.st7{display:inline;}
	.st8{clip-path:url(#SVGID_00000153688830090524351200000002880875373108031135_);}
	.st9{fill:#42B035;}
	.st10{clip-path:url(#SVGID_00000052789821357398445940000015953011530103876284_);}
	.st11{clip-path:url(#SVGID_00000025432571440813666080000011431101211957971381_);}
	.st12{display:none;fill-rule:evenodd;clip-rule:evenodd;fill:#2DBCEB;}
	.st13{clip-path:url(#SVGID_00000142856021616961533830000009296932298397170822_);}
	.st14{fill:#B0D144;}
	.st15{display:none;fill:none;stroke:#FFFFFF;stroke-width:1.84;stroke-miterlimit:3.86;}
	.st16{display:none;fill:none;stroke:#231815;stroke-miterlimit:3.86;}
	.st17{display:none;fill:#B0D144;}
	.st18{display:none;fill-rule:evenodd;clip-rule:evenodd;fill:#42B035;}
	.st19{clip-path:url(#SVGID_00000150823973679811912380000005438160992983419571_);}
	.st20{fill:none;stroke:#FFFFFF;stroke-width:1.02;stroke-linejoin:round;}
	.st21{display:none;fill-rule:evenodd;clip-rule:evenodd;fill:#E71F19;}
	.st22{display:none;fill:#E71F19;}
</style>
<path id="m8_00000029745506691130870220000012985804815580255890_" class="st0" d="M1142.9,626c0.1-5.2,4.4-9.5,9.6-9.6
	c5.1-0.1,9.3,4.1,9.2,9.2c0,5.2-4.3,9.5-9.5,9.6S1142.9,631.2,1142.9,626z"/>
<polyline id="m8_00000100340234225275085090000004902227870112586682_" class="st0" points="1136.4,625.8 1165.5,625.8 
	1165.5,618.8 "/>
<polyline id="m8_00000152249487505309560660000006681893368438268048_" class="st0" points="1157.8,611.7 1152.4,611.7 1152.4,642 
	"/>
<path id="m8_00000078767846593446188760000003156491407758110374_" class="st1" d="M1141.3,615.1l0.2,0.2c0.2-0.1,0.4-0.1,0.6-0.1h2
	l-0.5-0.5l-0.3,0.3L1141.3,615.1L1141.3,615.1z M1140.7,616.5l0.2,0.2c0.2-0.1,0.4-0.1,0.6-0.1h0.7c-0.2,0.5-0.4,0.9-0.7,1.3
	s-0.6,0.7-0.8,0.7l0.4,0.6c0.2-0.2,0.5-0.3,1.1-0.4c0.6-0.1,1.1-0.2,1.7-0.2c0.1,0.2,0.2,0.3,0.2,0.5c0,0.1,0.1,0.1,0.2,0
	s0.2-0.2,0.2-0.4c0-0.1-0.1-0.3-0.2-0.5s-0.5-0.5-1-0.9l-0.1,0.1c0.4,0.5,0.6,0.9,0.7,1l-2.6,0.2c0.3-0.2,0.7-0.8,1.3-1.6l0.2-0.1
	l-0.4-0.3h2.5l-0.5-0.5l-0.4,0.4H1140.7L1140.7,616.5z M1142.4,612.1c-0.2,0.6-0.4,1.3-0.8,1.9c-0.4,0.6-0.8,1.1-1.4,1.6l0.1,0.1
	c0.7-0.5,1.2-1,1.5-1.4c0.4-0.5,0.6-0.9,0.8-1.4c0.2,0.6,0.5,1,0.9,1.5c0.3,0.4,0.7,0.7,1.1,1c0.1-0.2,0.3-0.3,0.6-0.3V615
	c-0.5-0.2-0.9-0.4-1.3-0.8c-0.4-0.3-0.8-0.8-1.1-1.5l0.3-0.2L1142.4,612.1L1142.4,612.1z M1138.3,614.8c0.4-0.5,0.9-1.2,1.3-2.1
	l0.3-0.2l-0.7-0.4c-0.1,0.4-0.3,1-0.6,1.6c-0.3,0.7-0.6,1-0.8,1l0.4,0.5c0.1-0.1,0.3-0.2,0.5-0.2s0.5-0.1,0.8-0.1
	c-0.5,0.7-0.8,1.1-1,1.4c-0.2,0.2-0.4,0.3-0.5,0.4l0.3,0.6c0.2-0.1,0.5-0.2,0.8-0.4c0.4-0.1,0.8-0.2,1.4-0.4v-0.1l-1.9,0.3
	c0.6-0.7,1.3-1.5,2-2.6l0.3-0.2l-0.6-0.4c-0.2,0.5-0.4,0.9-0.6,1.3L1138.3,614.8L1138.3,614.8z M1137.9,618.3l0.3,0.5
	c0.2-0.2,1.1-0.6,2.5-1l-0.1-0.1C1139.2,618,1138.3,618.2,1137.9,618.3L1137.9,618.3z"/>
<path id="m8_00000091714581725314476480000002834772445012914583_" class="st2" d="M1141.3,615.1l0.2,0.2c0.2-0.1,0.4-0.1,0.6-0.1h2
	l-0.5-0.5l-0.3,0.3L1141.3,615.1L1141.3,615.1z M1140.7,616.5l0.2,0.2c0.2-0.1,0.4-0.1,0.6-0.1h0.7c-0.2,0.5-0.4,0.9-0.7,1.3
	s-0.6,0.7-0.8,0.7l0.4,0.6c0.2-0.2,0.5-0.3,1.1-0.4c0.6-0.1,1.1-0.2,1.7-0.2c0.1,0.2,0.2,0.3,0.2,0.5c0,0.1,0.1,0.1,0.2,0
	s0.2-0.2,0.2-0.4c0-0.1-0.1-0.3-0.2-0.5s-0.5-0.5-1-0.9l-0.1,0.1c0.4,0.5,0.6,0.9,0.7,1l-2.6,0.2c0.3-0.2,0.7-0.8,1.3-1.6l0.2-0.1
	l-0.4-0.3h2.5l-0.5-0.5l-0.4,0.4H1140.7L1140.7,616.5z M1142.4,612.1c-0.2,0.6-0.4,1.3-0.8,1.9c-0.4,0.6-0.8,1.1-1.4,1.6l0.1,0.1
	c0.7-0.5,1.2-1,1.5-1.4c0.4-0.5,0.6-0.9,0.8-1.4c0.2,0.6,0.5,1,0.9,1.5c0.3,0.4,0.7,0.7,1.1,1c0.1-0.2,0.3-0.3,0.6-0.3V615
	c-0.5-0.2-0.9-0.4-1.3-0.8c-0.4-0.3-0.8-0.8-1.1-1.5l0.3-0.2L1142.4,612.1L1142.4,612.1z M1138.3,614.8c0.4-0.5,0.9-1.2,1.3-2.1
	l0.3-0.2l-0.7-0.4c-0.1,0.4-0.3,1-0.6,1.6c-0.3,0.7-0.6,1-0.8,1l0.4,0.5c0.1-0.1,0.3-0.2,0.5-0.2s0.5-0.1,0.8-0.1
	c-0.5,0.7-0.8,1.1-1,1.4c-0.2,0.2-0.4,0.3-0.5,0.4l0.3,0.6c0.2-0.1,0.5-0.2,0.8-0.4c0.4-0.1,0.8-0.2,1.4-0.4v-0.1l-1.9,0.3
	c0.6-0.7,1.3-1.5,2-2.6l0.3-0.2l-0.6-0.4c-0.2,0.5-0.4,0.9-0.6,1.3L1138.3,614.8L1138.3,614.8z M1137.9,618.3l0.3,0.5
	c0.2-0.2,1.1-0.6,2.5-1l-0.1-0.1C1139.2,618,1138.3,618.2,1137.9,618.3L1137.9,618.3z"/>
<path id="m8_00000098930386429625163790000001098803312591965574_" class="st1" d="M1160.7,639.6L1160.7,639.6
	c0.4,0.2,0.7,0.5,0.8,0.7c0.3-0.1,0.4-0.2,0.5-0.3s0.1-0.3,0.1-0.5v-4.8l0.2-0.2l-0.4-0.4l-0.3,0.3h-0.9l0.5-0.8l0.2-0.1l-0.6-0.3
	c0,0.4-0.1,0.8-0.2,1.2h-0.3l-0.4-0.3c0,0.5,0,0.9,0,1.4v1.3h-0.8l0.2,0.2l0.3-0.1h0.3c0,0.6,0,1.2-0.1,1.8
	c-0.1,0.5-0.3,1.1-0.7,1.7l0.1,0.1c0.5-0.5,0.8-1.1,0.9-1.5s0.2-1.1,0.2-2h1.3v2.5c0,0.1,0,0.2-0.1,0.2
	C1161.5,639.7,1161.2,639.7,1160.7,639.6L1160.7,639.6z M1160.3,634.6h1.3v2.2h-1.3V634.6z M1160.7,635.1c0.1,0.3,0.2,0.6,0.2,0.8
	c0,0.3,0.1,0.4,0.2,0.3c0.1,0,0.2-0.1,0.2-0.3s0-0.3-0.1-0.4C1161.1,635.5,1160.9,635.3,1160.7,635.1L1160.7,635.1z M1160.7,637.3
	L1160.7,637.3c0.1,0.4,0.3,0.7,0.3,1c0,0.2,0.1,0.3,0.2,0.3s0.2-0.1,0.2-0.3s0-0.3-0.1-0.4C1161.2,637.8,1161,637.6,1160.7,637.3
	L1160.7,637.3z M1163.6,633.5c0.2,0.4,0.3,0.7,0.4,0.9s0.2,0.3,0.3,0.3s0.2-0.2,0.2-0.3s0-0.3-0.2-0.4S1163.9,633.7,1163.6,633.5
	L1163.6,633.5z M1165.2,634.9h-2.9l0.2,0.2c0.2-0.1,0.4-0.1,0.6-0.1h2.9l-0.5-0.5L1165.2,634.9L1165.2,634.9z M1165,639.6v-3.2
	l0.2-0.2l-0.4-0.4l-0.3,0.3h-1l-0.5-0.3c0,0.8,0,1.4,0,2s-0.1,1-0.2,1.4s-0.4,0.8-0.8,1.2l0.1,0.1c0.5-0.4,0.9-0.8,1.1-1.3
	s0.3-0.9,0.3-1.4s0-1,0-1.6h1.1v3.6c0,0.3,0.2,0.5,0.5,0.5h0.7c0,0,0.1,0,0.2-0.1c0.1,0,0.2-0.2,0.3-0.3c-0.2,0-0.3-0.2-0.3-0.4
	s-0.1-0.5-0.1-0.8h-0.2c0,0.4,0,0.7,0,0.9s-0.1,0.3-0.2,0.3h-0.3C1165.1,639.9,1165,639.8,1165,639.6L1165,639.6z"/>
<path id="m8_00000023263306159879101730000017896427282290277524_" class="st3" d="M1160.7,639.6L1160.7,639.6
	c0.4,0.2,0.7,0.5,0.8,0.7c0.3-0.1,0.4-0.2,0.5-0.3s0.1-0.3,0.1-0.5v-4.8l0.2-0.2l-0.4-0.4l-0.3,0.3h-0.9l0.5-0.8l0.2-0.1l-0.6-0.3
	c0,0.4-0.1,0.8-0.2,1.2h-0.3l-0.4-0.3c0,0.5,0,0.9,0,1.4v1.3h-0.8l0.2,0.2l0.3-0.1h0.3c0,0.6,0,1.2-0.1,1.8
	c-0.1,0.5-0.3,1.1-0.7,1.7l0.1,0.1c0.5-0.5,0.8-1.1,0.9-1.5s0.2-1.1,0.2-2h1.3v2.5c0,0.1,0,0.2-0.1,0.2
	C1161.5,639.7,1161.2,639.7,1160.7,639.6L1160.7,639.6z M1160.3,634.6h1.3v2.2h-1.3V634.6z M1160.7,635.1c0.1,0.3,0.2,0.6,0.2,0.8
	c0,0.3,0.1,0.4,0.2,0.3c0.1,0,0.2-0.1,0.2-0.3s0-0.3-0.1-0.4C1161.1,635.5,1160.9,635.3,1160.7,635.1L1160.7,635.1z M1160.7,637.3
	L1160.7,637.3c0.1,0.4,0.3,0.7,0.3,1c0,0.2,0.1,0.3,0.2,0.3s0.2-0.1,0.2-0.3s0-0.3-0.1-0.4C1161.2,637.8,1161,637.6,1160.7,637.3
	L1160.7,637.3z M1163.6,633.5c0.2,0.4,0.3,0.7,0.4,0.9s0.2,0.3,0.3,0.3s0.2-0.2,0.2-0.3s0-0.3-0.2-0.4S1163.9,633.7,1163.6,633.5
	L1163.6,633.5z M1165.2,634.9h-2.9l0.2,0.2c0.2-0.1,0.4-0.1,0.6-0.1h2.9l-0.5-0.5L1165.2,634.9L1165.2,634.9z M1165,639.6v-3.2
	l0.2-0.2l-0.4-0.4l-0.3,0.3h-1l-0.5-0.3c0,0.8,0,1.4,0,2s-0.1,1-0.2,1.4s-0.4,0.8-0.8,1.2l0.1,0.1c0.5-0.4,0.9-0.8,1.1-1.3
	s0.3-0.9,0.3-1.4s0-1,0-1.6h1.1v3.6c0,0.3,0.2,0.5,0.5,0.5h0.7c0,0,0.1,0,0.2-0.1c0.1,0,0.2-0.2,0.3-0.3c-0.2,0-0.3-0.2-0.3-0.4
	s-0.1-0.5-0.1-0.8h-0.2c0,0.4,0,0.7,0,0.9s-0.1,0.3-0.2,0.3h-0.3C1165.1,639.9,1165,639.8,1165,639.6L1165,639.6z"/>
<path id="m8_00000167359520496616419070000003479510801299866027_" class="st1" d="M1135.8,641.6c0-0.7,0.4-1.3,1-1.9
	c0.6-0.6,1.4-1.4,2.3-2.6s1.5-2.1,1.8-2.8s0.4-1.2,0.3-1.7s-0.3-0.9-0.7-1.2c-0.4-0.3-0.8-0.4-1.3-0.4s-1,0.2-1.4,0.6
	c-0.5,0.3-0.8,0.8-1,1.5l-1.3-0.2c0.4-1.1,0.9-1.9,1.4-2.4c0.6-0.5,1.3-0.8,2.1-0.8c0.5,0,0.9,0,1.3,0c0.4,0.1,0.8,0.2,1.2,0.5
	c0.4,0.3,0.7,0.6,1,1.2c0.3,0.5,0.4,1.1,0.3,1.9c-0.1,0.7-0.4,1.6-1.1,2.6s-1.9,2.6-3.8,4.8h5.1v1.3h-7.1L1135.8,641.6L1135.8,641.6
	z"/>
<path id="m8_00000095309120424784552580000015199386709571330705_" class="st0" d="M738.9,626c0.1-5.2,4.4-9.5,9.6-9.6
	c5.1-0.1,9.3,4.1,9.2,9.2c0,5.2-4.3,9.5-9.5,9.6S738.9,631.2,738.9,626L738.9,626z"/>
<polyline id="m8_00000104694799479734012600000018270703794473232285_" class="st0" points="732.4,625.8 761.5,625.8 761.5,618.8 
	"/>
<polyline id="m8_00000096749913456727842150000005860530179998613685_" class="st0" points="753.8,611.7 748.4,611.7 748.4,642 "/>
<path id="m8_00000101817366743996591430000018019255143777027740_" class="st1" d="M737.3,615.1l0.2,0.2c0.2-0.1,0.4-0.1,0.6-0.1h2
	l-0.5-0.5l-0.3,0.3L737.3,615.1L737.3,615.1z M736.7,616.5l0.2,0.2c0.2-0.1,0.4-0.1,0.6-0.1h0.7c-0.2,0.5-0.4,0.9-0.7,1.3
	s-0.6,0.7-0.8,0.7l0.4,0.6c0.2-0.2,0.5-0.3,1.1-0.4c0.6-0.1,1.1-0.2,1.7-0.2c0.1,0.2,0.1,0.3,0.2,0.5c0,0.1,0.1,0.1,0.2,0
	c0.1-0.1,0.2-0.2,0.2-0.4c0-0.1,0-0.3-0.2-0.5c-0.1-0.2-0.5-0.5-1-0.9l-0.1,0.1c0.4,0.5,0.6,0.9,0.7,1l-2.6,0.2
	c0.3-0.2,0.7-0.8,1.3-1.6l0.2-0.1l-0.4-0.3h2.5l-0.5-0.5l-0.4,0.4H736.7L736.7,616.5z M738.4,612.1c-0.2,0.6-0.4,1.3-0.8,1.9
	c-0.4,0.6-0.8,1.1-1.4,1.6l0.1,0.1c0.7-0.5,1.2-1,1.5-1.4c0.4-0.5,0.6-0.9,0.8-1.4c0.2,0.6,0.5,1,0.9,1.5c0.4,0.4,0.7,0.7,1.1,1
	c0.1-0.2,0.4-0.3,0.6-0.3V615c-0.5-0.2-0.9-0.4-1.3-0.8c-0.4-0.3-0.8-0.8-1.1-1.5l0.3-0.2L738.4,612.1L738.4,612.1z M734.3,614.8
	c0.4-0.5,0.9-1.2,1.3-2.1l0.3-0.2l-0.7-0.4c-0.1,0.4-0.3,1-0.6,1.6c-0.3,0.7-0.6,1-0.8,1l0.4,0.5c0.1-0.1,0.3-0.2,0.5-0.2
	s0.5-0.1,0.8-0.1c-0.5,0.7-0.8,1.1-1,1.4c-0.2,0.2-0.4,0.3-0.5,0.4l0.3,0.6c0.2-0.1,0.5-0.2,0.8-0.4c0.4-0.1,0.8-0.2,1.4-0.4v-0.1
	l-1.9,0.3c0.6-0.7,1.3-1.5,2-2.6l0.3-0.2l-0.6-0.4c-0.2,0.5-0.4,0.9-0.6,1.3L734.3,614.8L734.3,614.8z M733.9,618.3l0.3,0.5
	c0.2-0.2,1.1-0.6,2.4-1l-0.1-0.1C735.2,618,734.3,618.2,733.9,618.3L733.9,618.3z"/>
<path id="m8_00000044162692210875562670000012480881218719509412_" class="st2" d="M737.3,615.1l0.2,0.2c0.2-0.1,0.4-0.1,0.6-0.1h2
	l-0.5-0.5l-0.3,0.3L737.3,615.1L737.3,615.1z M736.7,616.5l0.2,0.2c0.2-0.1,0.4-0.1,0.6-0.1h0.7c-0.2,0.5-0.4,0.9-0.7,1.3
	s-0.6,0.7-0.8,0.7l0.4,0.6c0.2-0.2,0.5-0.3,1.1-0.4c0.6-0.1,1.1-0.2,1.7-0.2c0.1,0.2,0.1,0.3,0.2,0.5c0,0.1,0.1,0.1,0.2,0
	c0.1-0.1,0.2-0.2,0.2-0.4c0-0.1,0-0.3-0.2-0.5c-0.1-0.2-0.5-0.5-1-0.9l-0.1,0.1c0.4,0.5,0.6,0.9,0.7,1l-2.6,0.2
	c0.3-0.2,0.7-0.8,1.3-1.6l0.2-0.1l-0.4-0.3h2.5l-0.5-0.5l-0.4,0.4H736.7L736.7,616.5z M738.4,612.1c-0.2,0.6-0.4,1.3-0.8,1.9
	c-0.4,0.6-0.8,1.1-1.4,1.6l0.1,0.1c0.7-0.5,1.2-1,1.5-1.4c0.4-0.5,0.6-0.9,0.8-1.4c0.2,0.6,0.5,1,0.9,1.5c0.4,0.4,0.7,0.7,1.1,1
	c0.1-0.2,0.4-0.3,0.6-0.3V615c-0.5-0.2-0.9-0.4-1.3-0.8c-0.4-0.3-0.8-0.8-1.1-1.5l0.3-0.2L738.4,612.1L738.4,612.1z M734.3,614.8
	c0.4-0.5,0.9-1.2,1.3-2.1l0.3-0.2l-0.7-0.4c-0.1,0.4-0.3,1-0.6,1.6c-0.3,0.7-0.6,1-0.8,1l0.4,0.5c0.1-0.1,0.3-0.2,0.5-0.2
	s0.5-0.1,0.8-0.1c-0.5,0.7-0.8,1.1-1,1.4c-0.2,0.2-0.4,0.3-0.5,0.4l0.3,0.6c0.2-0.1,0.5-0.2,0.8-0.4c0.4-0.1,0.8-0.2,1.4-0.4v-0.1
	l-1.9,0.3c0.6-0.7,1.3-1.5,2-2.6l0.3-0.2l-0.6-0.4c-0.2,0.5-0.4,0.9-0.6,1.3L734.3,614.8L734.3,614.8z M733.9,618.3l0.3,0.5
	c0.2-0.2,1.1-0.6,2.4-1l-0.1-0.1C735.2,618,734.3,618.2,733.9,618.3L733.9,618.3z"/>
<path id="m8_00000099656505750563435910000000880924642862670772_" class="st1" d="M756.7,639.6L756.7,639.6
	c0.4,0.2,0.7,0.5,0.8,0.7c0.3-0.1,0.4-0.2,0.5-0.3s0.1-0.3,0.1-0.5v-4.8l0.2-0.2l-0.4-0.4l-0.3,0.3h-0.9l0.5-0.8l0.2-0.1l-0.6-0.3
	c0,0.4-0.1,0.8-0.2,1.2h-0.3l-0.4-0.3c0,0.5,0,0.9,0,1.4v1.3h-0.8l0.2,0.2l0.3-0.1h0.3c0,0.6,0,1.2-0.1,1.8
	c-0.1,0.5-0.3,1.1-0.7,1.7l0.1,0.1c0.5-0.5,0.8-1.1,0.9-1.5s0.2-1.1,0.2-2h1.4v2.5c0,0.1,0,0.2-0.1,0.2
	C757.5,639.7,757.2,639.7,756.7,639.6L756.7,639.6z M756.3,634.6h1.4v2.2h-1.4V634.6z M756.7,635.1c0.1,0.3,0.2,0.6,0.2,0.8
	c0,0.3,0.1,0.4,0.2,0.3c0.1,0,0.2-0.1,0.2-0.3s0-0.3-0.1-0.4C757.1,635.5,756.9,635.3,756.7,635.1L756.7,635.1z M756.7,637.3
	L756.7,637.3c0.1,0.4,0.3,0.7,0.3,1c0,0.2,0.1,0.3,0.2,0.3c0.1,0,0.2-0.1,0.2-0.3s0-0.3-0.1-0.4S757,637.6,756.7,637.3L756.7,637.3z
	 M759.6,633.5c0.2,0.4,0.3,0.7,0.4,0.9c0.1,0.3,0.1,0.3,0.3,0.3c0.1-0.1,0.2-0.2,0.2-0.3s0-0.3-0.2-0.4
	C760.1,633.9,759.9,633.7,759.6,633.5L759.6,633.5z M761.2,634.9h-2.9l0.2,0.2c0.2-0.1,0.4-0.1,0.6-0.1h2.9l-0.5-0.5L761.2,634.9
	L761.2,634.9z M761,639.6v-3.2l0.2-0.2l-0.4-0.4l-0.3,0.3h-1l-0.5-0.3c0,0.8,0,1.4,0,2s-0.1,1-0.2,1.4c-0.1,0.4-0.4,0.8-0.8,1.2
	l0.1,0.1c0.6-0.4,0.9-0.8,1.1-1.3c0.2-0.5,0.3-0.9,0.3-1.4s0-1,0-1.6h1.1v3.6c0,0.3,0.2,0.5,0.5,0.5h0.7c0,0,0.1,0,0.2-0.1
	c0.1,0,0.2-0.2,0.4-0.3c-0.2,0-0.3-0.2-0.3-0.4s-0.1-0.5-0.1-0.8h-0.1c0,0.4,0,0.7,0,0.9s-0.1,0.3-0.2,0.3h-0.3
	C761.1,639.9,761,639.8,761,639.6L761,639.6z"/>
<path id="m8_00000183931848914264262750000008767921541357862546_" class="st3" d="M756.7,639.6L756.7,639.6
	c0.4,0.2,0.7,0.5,0.8,0.7c0.3-0.1,0.4-0.2,0.5-0.3s0.1-0.3,0.1-0.5v-4.8l0.2-0.2l-0.4-0.4l-0.3,0.3h-0.9l0.5-0.8l0.2-0.1l-0.6-0.3
	c0,0.4-0.1,0.8-0.2,1.2h-0.3l-0.4-0.3c0,0.5,0,0.9,0,1.4v1.3h-0.8l0.2,0.2l0.3-0.1h0.3c0,0.6,0,1.2-0.1,1.8
	c-0.1,0.5-0.3,1.1-0.7,1.7l0.1,0.1c0.5-0.5,0.8-1.1,0.9-1.5s0.2-1.1,0.2-2h1.4v2.5c0,0.1,0,0.2-0.1,0.2
	C757.5,639.7,757.2,639.7,756.7,639.6L756.7,639.6z M756.3,634.6h1.4v2.2h-1.4V634.6z M756.7,635.1c0.1,0.3,0.2,0.6,0.2,0.8
	c0,0.3,0.1,0.4,0.2,0.3c0.1,0,0.2-0.1,0.2-0.3s0-0.3-0.1-0.4C757.1,635.5,756.9,635.3,756.7,635.1L756.7,635.1z M756.7,637.3
	L756.7,637.3c0.1,0.4,0.3,0.7,0.3,1c0,0.2,0.1,0.3,0.2,0.3c0.1,0,0.2-0.1,0.2-0.3s0-0.3-0.1-0.4S757,637.6,756.7,637.3L756.7,637.3z
	 M759.6,633.5c0.2,0.4,0.3,0.7,0.4,0.9c0.1,0.3,0.1,0.3,0.3,0.3c0.1-0.1,0.2-0.2,0.2-0.3s0-0.3-0.2-0.4
	C760.1,633.9,759.9,633.7,759.6,633.5L759.6,633.5z M761.2,634.9h-2.9l0.2,0.2c0.2-0.1,0.4-0.1,0.6-0.1h2.9l-0.5-0.5L761.2,634.9
	L761.2,634.9z M761,639.6v-3.2l0.2-0.2l-0.4-0.4l-0.3,0.3h-1l-0.5-0.3c0,0.8,0,1.4,0,2s-0.1,1-0.2,1.4c-0.1,0.4-0.4,0.8-0.8,1.2
	l0.1,0.1c0.6-0.4,0.9-0.8,1.1-1.3c0.2-0.5,0.3-0.9,0.3-1.4s0-1,0-1.6h1.1v3.6c0,0.3,0.2,0.5,0.5,0.5h0.7c0,0,0.1,0,0.2-0.1
	c0.1,0,0.2-0.2,0.4-0.3c-0.2,0-0.3-0.2-0.3-0.4s-0.1-0.5-0.1-0.8h-0.1c0,0.4,0,0.7,0,0.9s-0.1,0.3-0.2,0.3h-0.3
	C761.1,639.9,761,639.8,761,639.6L761,639.6z"/>
<path id="m8" class="st1" d="M731.8,641.6c0-0.7,0.4-1.3,1-1.9c0.6-0.6,1.4-1.4,2.3-2.6c0.9-1.2,1.6-2.1,1.8-2.8
	c0.3-0.7,0.4-1.2,0.3-1.7c-0.1-0.5-0.3-0.9-0.7-1.2s-0.8-0.4-1.3-0.4s-1,0.2-1.4,0.6c-0.5,0.3-0.8,0.8-1,1.5l-1.3-0.2
	c0.4-1.1,0.9-1.9,1.4-2.4c0.6-0.5,1.3-0.8,2.1-0.8c0.5,0,0.9,0,1.3,0c0.4,0.1,0.8,0.2,1.2,0.5s0.7,0.6,1,1.2
	c0.3,0.5,0.4,1.1,0.3,1.9c-0.1,0.7-0.4,1.6-1.1,2.6s-1.9,2.6-3.8,4.8h5.1v1.3h-7.1L731.8,641.6L731.8,641.6z"/>
<polyline class="st4" points="601.8,713.8 622,703.8 640.1,695.3 650.2,690.9 654.7,689.5 660.5,688.3 665,688 670.6,688.2 
	673.3,688.7 677.3,690.1 682.2,692.8 688,697.3 693.3,702.3 703,712.1 717,726.2 725.7,733.8 729.2,736.4 735.5,740.5 742.4,743.9 
	749.3,746.3 756.4,748 759.4,748.5 767.3,748.9 775.2,748.5 778.4,748.1 787.3,746.5 795.9,744 797.3,743.6 806.4,739.8 
	815.1,735.2 819.3,732.7 828.6,726.2 837.2,719 844.2,712.3 853,702.9 862.1,691.8 867.8,684.1 887.1,656.2 894.2,647.4 900,641.8 
	901.3,640.8 906.2,637.3 911.7,634.6 914.5,633.6 920.4,632.2 928,631.7 929.5,631.6 939.1,632 946.9,632.8 963.8,635.1 
	974.5,636.7 976.8,641.6 980.6,648.5 984.4,654.1 985.2,655.2 989,659 992.4,661.2 993.6,661.8 997.5,662.7 1001.6,662.8 
	1006.8,661.8 1010.4,660.6 1018.5,656.9 1022.5,654.9 1030,651.6 1031.3,651.2 1036.1,650 1039.7,650 1041.9,650.6 1045.4,652.4 
	1047.4,654.1 1054.5,661.1 1058.9,664.6 1061.4,665.8 1065.4,666.5 1069.5,666.2 1073.4,665 1075.8,663.9 1081.9,660.9 
	1086.7,658.8 1088.1,658.5 1091.1,658.3 1092.2,658.5 1094.8,659.4 1098.5,661.8 1099.6,662.7 1105.7,667.6 1109.5,670.2 
	1113.2,672.4 1114.3,672.8 1117.5,673.2 1118.6,673.1 1122.3,672 1123.5,671.5 1128.5,668.9 1134.7,665.6 1139.5,663.9 
	1140.8,663.6 1143.9,663.6 1146.1,663.9 1149.6,665.5 1151.8,666.9 1157.6,671.9 1162.3,675.6 1163.3,676.3 1167.3,678.2 
	1168.3,678.6 1172.2,679.3 1174.8,679.3 1178.5,678.4 1181.9,676.6 1182.9,675.8 1186.3,672.9 1190,668.4 1192.5,664.7 
	1196.4,657.3 1197.5,654.7 1199.3,648 1200.1,643.9 1201.1,633.9 1201.2,632.5 1201.4,627.5 "/>
<polyline class="st4" points="1201.4,627.5 1201.2,622.4 1200.3,612.5 1200.1,611.1 1198.3,602.9 1197.5,600.2 1194.6,593.9 
	1192.4,590.3 1188.2,584.3 1184.1,580.1 1182.9,579.1 1179.6,577.1 1176,575.9 1174.8,575.7 1170.9,575.8 1168.3,576.4 
	1164.2,578.1 1163.3,578.7 1159.4,581.5 1157.6,583.2 1151.8,588.1 1148.5,590.1 1146.1,591.1 1142.8,591.5 1140.7,591.3 
	1137,590.4 1134.7,589.3 1128.4,586.2 1123.5,583.5 1119.9,582.1 1118.5,581.9 1115.2,582 1114.2,582.2 1111.2,583.6 1109.4,584.7 
	1105.7,587.5 1099.5,592.3 1094.8,595.6 1092.1,596.5 1089,596.7 1088,596.6 1084.2,595.3 1081.8,594.1 1075.8,591.1 1070.8,589.1 
	1069.5,588.9 1065.5,588.5 1061.4,589.2 1057.7,591.2 1054.4,593.9 1047.4,600.9 1044.3,603.3 1041.9,604.5 1038.4,605.1 
	1036.1,605 1031.3,603.9 1023.7,600.7 1022.4,600.2 1010.4,594.5 1004.2,592.7 1001.7,592.3 997.5,592.3 993.6,593.3 990.1,595.2 
	987.1,597.9 985.3,599.9 981.3,605.4 980.6,606.6 976.8,613.4 974.6,618.4 963.8,620 946.9,622.3 934.3,623.4 929.5,623.5 
	922,623.1 916,622 914.5,621.6 908.9,619.3 903.6,616.2 901.2,614.3 896.4,610.1 891,604 887.1,599 876.9,584.4 867.7,571.1 
	858,558.3 848.6,547.5 844.2,542.9 834.8,534.1 825.9,527.1 819.2,522.5 810.8,517.6 801.8,513.4 797.3,511.6 788.6,509.1 
	779.8,507.3 778.3,507.1 768.8,506.4 760.9,506.6 759.3,506.8 752,508.1 745.1,510.2 742.3,511.4 735.5,514.8 729.1,518.8 
	722.3,524.1 716.9,529 705.1,541 703,543.1 693.2,552.9 685.7,559.8 682.1,562.4 677.2,565.1 673.3,566.6 669.1,567.2 664.9,567.3 
	659,566.8 654.6,565.8 647.2,563.2 640,560 621.9,551.5 601.7,541.5 "/>
<path id="m7_00000039856114926937991730000000594307801553183659_" class="st5" d="M1374.4,629.8c10.5,4,20.4,9.3,30.3,14.7
	c1,0.5,0.5,1.9-0.6,1.6c-16.2-5-32.4-9.8-49.1-12.7c-13.5-2.3-27.2-3.4-40.8-4.2c-18.3-1-48.9-0.3-67.2,0.7c-0.5,0-0.9-0.4-0.9-0.8
	l-0.4-14.3c0-0.5,0.4-0.9,0.8-0.9C1284.6,614.1,1338,615.8,1374.4,629.8L1374.4,629.8z"/>
<g id="m6_00000129177827056626183310000014932758413525303939_" class="st6">
	<g class="st7">
		<g>
			<defs>
				<path id="SVGID_1_" d="M1374.4,629.8c10.5,4,20.4,9.3,30.3,14.7c1,0.5,0.5,1.9-0.6,1.6c-16.2-5-32.4-9.8-49.1-12.7
					c-13.5-2.3-27.2-3.4-40.8-4.2c-18.3-1-48.9-0.3-67.2,0.7c-0.5,0-0.9-0.4-0.9-0.8l-0.4-14.3c0-0.5,0.4-0.9,0.8-0.9
					C1284.6,614.1,1338,615.8,1374.4,629.8L1374.4,629.8z"/>
			</defs>
			<clipPath id="SVGID_00000122711328729512366390000002940333135813888660_">
				<use xlink:href="#SVGID_1_"  style="overflow:visible;"/>
			</clipPath>
			<g style="clip-path:url(#SVGID_00000122711328729512366390000002940333135813888660_);">
				<path class="st9" d="M1246.6,617.8c38.1,0.2,95.6,2.2,131.8,16.1c10.4,4,23.7,8.7,33.6,14.1c-16.2-5,2-25-12.3-32.4
					s-59.9-22.5-100.8-22.3s-58.7,5.4-61.4,5.9C1234.7,599.9,1246.6,617.8,1246.6,617.8L1246.6,617.8z"/>
			</g>
		</g>
	</g>
</g>
<path id="m7_00000158736366924028139960000017343417740748606122_" class="st5" d="M1016.9,810.7c-16.1-2.9-27.2-6-27.2-6
	c-1.1-0.3-0.9-1.8,0.3-1.7c20.6,1.5,38.6,3.7,56.5,4.2s35.6-0.8,55.6-6.3c32.7-9.1,61.6-27.9,88.6-49c13.7-10.7,27.2-21.6,41.3-31.8
	c29.6-21.4,59.2-35.3,94.4-43c11.2-2.4,24.2-4.5,35.6-4.4c10.3,0,20.4,1.7,30.5,3.8c1.1,0.2,1,1.8-0.2,1.7
	c-11.6-0.4-22.9-0.4-34.4,1.2c-9.6,1.3-19.3,3.6-28.6,6.5c-39.3,12.3-56.9,22.8-83.7,42.6c-16.3,12-36.2,27.9-52.3,40
	c-37.4,28.1-73.5,45.1-119.7,47C1054,816.4,1033,813.6,1016.9,810.7L1016.9,810.7z"/>
<g id="m6_00000008844077729162872920000011391431304192025507_" class="st6">
	<g class="st7">
		<g>
			<defs>
				<path id="SVGID_00000181787673483520900510000006085071275368207530_" d="M1016.9,810.7c-16.1-2.9-27.2-6-27.2-6
					c-1.1-0.3-0.9-1.8,0.3-1.7c20.6,1.5,38.6,3.7,56.5,4.2s35.6-0.8,55.6-6.3c32.7-9.1,61.6-27.9,88.6-49
					c13.7-10.7,27.2-21.6,41.3-31.8c29.6-21.4,59.2-35.3,94.4-43c11.2-2.4,24.2-4.5,35.6-4.4c10.3,0,20.4,1.7,30.5,3.8
					c1.1,0.2,1,1.8-0.2,1.7c-11.6-0.4-22.9-0.4-34.4,1.2c-9.6,1.3-19.3,3.6-28.6,6.5c-39.3,12.3-56.9,22.8-83.7,42.6
					c-16.3,12-36.2,27.9-52.3,40c-37.4,28.1-73.5,45.1-119.7,47C1054,816.4,1033,813.6,1016.9,810.7L1016.9,810.7z"/>
			</defs>
			<clipPath id="SVGID_00000122705777850928603880000002003691019074296967_">
				<use xlink:href="#SVGID_00000181787673483520900510000006085071275368207530_"  style="overflow:visible;"/>
			</clipPath>
			<g style="clip-path:url(#SVGID_00000122705777850928603880000002003691019074296967_);">
				<path class="st9" d="M1393.1,676.4c-10.2-1.3-20.3-2.3-30.6-1.5c-11.3,0.8-19.2,1.8-30.3,4.2c-35.1,7.6-69.4,23.3-98.9,44.6
					c-14.1,10.1-27.6,21.1-41.2,31.8c-27,21.1-56.8,40.1-89.7,49.3c-40.2,11.2-70.8,3.8-112.2-2c0,0,85.4-19.6,87.8-20.2
					c2.4-0.5,142.2-76.1,160.6-85.6c18.5-9.5,32.9-23.1,54.9-25.5s47.9-7,54.7-7.1c6.9-0.1,13.7-1.3,20.6-0.4
					c6.9,0.9,17.2,3.8,17.2,3.8S1381.5,676.8,1393.1,676.4L1393.1,676.4z"/>
			</g>
		</g>
	</g>
</g>
<path id="m7" class="st5" d="M927.7,887.6c-1.1,0.3-1.9,0.7-2.7,1c-0.9,0.3-1.9,0.6-3.1,0.6l-15.4-3c-9.2-1.8-18.4-3.7-27.6-5.5
	c-12-2.4-24-4.9-36-7.5l-6.5-1.4l-6.1-1.4c-16.9-3.9-33.8-8.1-50.3-13.1c-7.9-2.4-15.8-4.8-23.4-8.1c-9.5-4.1-18.8-8.5-20.5-20.8
	c-0.4-3-0.5-6-0.2-8.9c0.8-8.9,4.5-16,11.7-21c4.4-3.1,9.7-4.6,15.1-5.4c5.4-0.8,11-0.8,15.9-0.9c4.9-0.1,9.7-0.1,14.6-0.1
	c11.3,0,22.7,0.1,34,0.1c27.8,0.1,55.7,0.6,83.5-0.2c29.8-0.8,53.2-4.1,82.5-10.2c42.9-8.9,83.1-26.1,121.7-47.8
	c24.5-13.8,46.8-28.5,71.5-41.8c24.8-13.5,46.2-24.4,79.5-33.7c20.2-5.7,36.9-8.7,57.8-10c16.3-1,38.4-1,57.1,4.6
	c6.4,2,11.2,3.7,17.2,6.7c1,0.5,0.6,1.9-0.5,1.6c-11.3-2.5-23.6-3.4-35.2-4.1c-14.3-0.9-29.8,0.3-44,2.3
	c-16.8,2.3-25.6,5.1-38.2,8.4c-23.4,6.2-43.7,13.5-65.4,24.7c-15.1,7.8-34.2,20.1-48.7,29.2c-19.8,12.4-36.5,21.8-57.2,32.7
	c-16.7,8.8-33.8,17.1-51.4,23.9c-19.4,7.4-39.6,13-59.9,17.2c-28.8,6-57.1,8.2-86.4,9.3c-17.9,0.7-35.9,0.9-53.9,0.5
	c-18.3-0.3-36.6-1-55-1c-10.6,0-21.5-0.3-32,1.1c-6.8,0.9-16.8,2.8-19.8,9.6c-1.1,2.7-1.2,5.7-0.9,8.7c1.1,8.2,6.1,11.3,13.5,14.1
	c4.4,1.7,9,3.1,13.5,4.5c9,2.7,18.1,5,27.2,7.3c15,3.9,30.1,7.6,45.2,11.2c29.9,7.3,59.8,14.3,89.8,21.4c0.1,0,0.5,0.3,0.5,0.4
	l0.2,0.3c0.3,0.6,0.1,1.1-0.5,1.3L927.7,887.6L927.7,887.6z"/>
<g id="m6" class="st6">
	<g class="st7">
		<g>
			<defs>
				<path id="SVGID_00000111171525307303677210000017010314331768685471_" d="M927.7,887.6c-1.1,0.3-1.9,0.7-2.7,1
					c-0.9,0.3-1.9,0.6-3.1,0.6l-15.4-3c-9.2-1.8-18.4-3.7-27.6-5.5c-12-2.4-24-4.9-36-7.5l-6.5-1.4l-6.1-1.4
					c-16.9-3.9-33.8-8.1-50.3-13.1c-7.9-2.4-15.8-4.8-23.4-8.1c-9.5-4.1-18.8-8.5-20.5-20.8c-0.4-3-0.5-6-0.2-8.9
					c0.8-8.9,4.5-16,11.7-21c4.4-3.1,9.7-4.6,15.1-5.4c5.4-0.8,11-0.8,15.9-0.9c4.9-0.1,9.7-0.1,14.6-0.1c11.3,0,22.7,0.1,34,0.1
					c27.8,0.1,55.7,0.6,83.5-0.2c29.8-0.8,53.2-4.1,82.5-10.2c42.9-8.9,83.1-26.1,121.7-47.8c24.5-13.8,46.8-28.5,71.5-41.8
					c24.8-13.5,46.2-24.4,79.5-33.7c20.2-5.7,36.9-8.7,57.8-10c16.3-1,38.4-1,57.1,4.6c6.4,2,11.2,3.7,17.2,6.7
					c1,0.5,0.6,1.9-0.5,1.6c-11.3-2.5-23.6-3.4-35.2-4.1c-14.3-0.9-29.8,0.3-44,2.3c-16.8,2.3-25.6,5.1-38.2,8.4
					c-23.4,6.2-43.7,13.5-65.4,24.7c-15.1,7.8-34.2,20.1-48.7,29.2c-19.8,12.4-36.5,21.8-57.2,32.7c-16.7,8.8-33.8,17.1-51.4,23.9
					c-19.4,7.4-39.6,13-59.9,17.2c-28.8,6-57.1,8.2-86.4,9.3c-17.9,0.7-35.9,0.9-53.9,0.5c-18.3-0.3-36.6-1-55-1
					c-10.6,0-21.5-0.3-32,1.1c-6.8,0.9-16.8,2.8-19.8,9.6c-1.1,2.7-1.2,5.7-0.9,8.7c1.1,8.2,6.1,11.3,13.5,14.1
					c4.4,1.7,9,3.1,13.5,4.5c9,2.7,18.1,5,27.2,7.3c15,3.9,30.1,7.6,45.2,11.2c29.9,7.3,59.8,14.3,89.8,21.4c0.1,0,0.5,0.3,0.5,0.4
					l0.2,0.3c0.3,0.6,0.1,1.1-0.5,1.3L927.7,887.6L927.7,887.6z"/>
			</defs>
			<clipPath id="SVGID_00000096742714546490905860000013004041939741349543_">
				<use xlink:href="#SVGID_00000111171525307303677210000017010314331768685471_"  style="overflow:visible;"/>
			</clipPath>
			<g style="clip-path:url(#SVGID_00000096742714546490905860000013004041939741349543_);">
				<path class="st9" d="M993.5,782.2c43.1-8.9,83.1-22.8,121.8-44.6c24.5-13.8,46.8-28.5,71.4-41.8c24.8-13.4,46.1-24.3,79.3-33.6
					c20.2-5.7,36.8-8.7,57.6-10c16.3-1,44.8-1.5,66.3,4.8c6.4,1.9,11.1,3.7,17.1,6.6c-11.3-2.5-0.3-5.8-0.3-5.8
					s-31.5-10.5-40.6-13.1c-9.1-2.7-54.2-4.9-78.6,0.3c-24.4,5.3-42.3,2.8-89.9,25.1s-50.3,33.6-111.7,57.9
					C1024.6,752.3,964.1,788.3,993.5,782.2L993.5,782.2z"/>
			</g>
		</g>
	</g>
</g>
<path id="m5" class="st12" d="M971.9,627.7l8.8,1.3l1.9,4.6c1.4,3.3,3.8,8.3,6.7,12.7c3.2,4.8,5.9,7.1,7.2,7.6
	c0.9,0.3,2.5,0.6,4,0.5l2.5-0.4c1.5-0.3,2.9-0.7,3.6-1c2.6-1.2,7.6-3.7,12.8-6c2.7-1.2,5.5-2.4,8-3.3c2.4-0.9,5.3-1.8,7.9-2
	c2.7-0.2,6.2-0.1,9.6,1.1c1.8,0.6,3.2,1.5,4.3,2.2c0.9,0.6,1.8,1.3,2.7,2c2.3,1.8,4.4,3.9,6,5.5c0.8,0.8,1.5,1.5,2.3,2.3
	c0.6,0.6,1.3,1.2,1.9,1.8c2.1,1.7,3.4,2.1,5.6,1.6c0.8-0.2,1.5-0.4,2.1-0.7c1-0.4,2.1-1,3.2-1.5l8.6-4.1l2.7-0.8
	c6.5-2,13.1-0.4,18,3.4l12.5,9.5c1.7,1.3,2.9,1.4,4.6,0.5l7.4-3.9c1.7-0.9,3.5-1.8,5.3-2.6c2-0.9,4.5-1.8,7.2-2.2
	c10.1-1.6,17.3,4.4,21.5,8c2,1.7,3.9,3.5,6.1,5.1c1.8,1.3,3.2,2,4.4,2.2c1.9,0.4,2.9,0.3,3.9,0c1.7-0.6,4.5-2.8,6.6-5.6l2.2-3.2
	c2.2-3.2,4-6.6,5.2-9.8c1.7-4.7,2.3-9.8,2.9-16.3c0.2-2.5,0.6-5.2,0.5-7.8c-0.2-8.8-0.9-17.6-3.4-24.5c-1.2-3.2-3.1-6.6-5.2-9.8
	c-0.7-1.1-1.5-2.1-2.2-3.2c-0.7-0.9-1.3-1.6-1.9-2.2c-2.3-2.3-4.9-3.6-5.8-3.7c-0.5,0-1.3,0-2.8,0.3c-1.6,0.4-3.6,1.4-5.4,2.8
	l-5.5,4.7c-2,1.7-4.8,4.1-8.2,5.7c-3.6,1.8-7.9,2.8-12.9,2c-2.8-0.4-5.2-1.3-7.2-2.2c-1.8-0.8-3.6-1.7-5.3-2.6l-7.4-3.9
	c-1.6-0.8-2.6-0.6-2.9-0.5l-3.8,2.6c-4,2.7-7.7,5.7-11.5,8.6l-0.6,0.5l-1.9,1c-5.9,3-11.3,2.1-15.4,0.8l-1.7-0.5l-8.6-4.1
	c-1-0.5-2.1-1-3.2-1.5c-0.9-0.4-1.5-0.6-1.9-0.6c-3.2-0.6-5.1,0.4-9.2,4.5c-1.1,1.1-2.2,2.3-3.3,3.4c-1.2,1.2-2.6,2.5-4.2,3.7
	c-3.2,2.5-7.6,4.8-13.3,4.7h-2.6l-0.6-0.1c-3.5-0.5-6.7-1.6-9.5-2.7c-2.6-1-5.2-2.3-7.6-3.4l-11-5.1c-0.7-0.3-2.1-0.7-3.6-1
	c-3.2-0.6-4.7-0.5-6.6,0.1l-2.7,2c-3.9,3.7-8.5,11.9-11.1,18.1l-1.9,4.6L971.9,627.7L971.9,627.7z M603.6,702.6
	c8.8-4.1,17.6-8.3,26.4-12.4c3.4-1.6,6.9-3.3,10.4-4.8c3.8-1.7,7.7-3.2,11.7-4.3c8-2.2,19.6-3.1,28.9,1.2
	c7.4,3.4,13.7,9.2,18.4,13.9l23.7,24c2,2.1,4.5,4.2,7.2,6.2c3.4,2.6,6.5,4.9,9.7,6.7c12.1,6.8,25.5,8.5,39.7,5.9l5.8-1
	c3-0.7,6.1-1.7,9-2.6c2.5-0.8,5-2,7.4-3.1l5.4-2.6c7.2-3.8,14.8-9.1,21-14.5l6.5-6.1c3.2-2.9,6.2-6,9.1-9.2c8.4-9.5,15.8-19.6,23-30
	l6.5-9.3c2-2.9,4-5.9,6.2-8.8c2.3-3.1,4.6-6.2,7.2-9.1c5.1-5.8,11.4-11.4,19.3-15.1c-7.8-3.8-13.9-9-18.9-14.7
	c-2.6-2.9-5-5.9-7.3-9.1c-2.2-3-4.3-6.1-6.5-9.2l-6.5-9.3c-6.9-10-13.8-19.6-21.5-28.3c-8.8-10-20.1-20.4-30.9-27.2
	c-12.5-7.8-25.8-13.1-39.8-14.3c-5.3-0.5-9.9-0.7-14.3-0.2c-9.4,1.2-18.2,4.8-26.1,10.4l-4,3.1c-2.6,2-5.1,4.1-7.1,6.2l-23.7,23.9
	c-4.6,4.6-10.9,10.4-18.2,13.8c-9.4,4.4-20.8,3.6-29,1.3c-4-1.1-7.9-2.6-11.7-4.3c-3.5-1.5-7-3.2-10.4-4.8l-11.9-5.7
	c-4.8-2.1-9.7-4-14.5-5.9v-32l9.6-14.6l3.9-6.5l5.9-10.7l0.7-1.3l3.6-8.4l2.4-7.2l0.3-1.3l1.7-8.7l12.4-6.4l0.2-5.1l-1.9-28.1
	l-0.4-6.5l-0.2-14.8l0.3-7.5c7.6,0.1,15.2,0.3,22.8,0.8c7.9,0.5,15.6,1.1,23.1,3.7c3.8,1.3,8.3,3.8,11.1,6.6
	c9.5,9.5,14.6,24.8,19.3,36.8c7,17.5,11.1,30,32.5,30.3c13.7,0.1,27.4,0.1,41.1,1.2c36.1,2.9,67.1,14.3,94.1,38.4
	c12.8,11.5,23.4,25,35.1,37.6c4.8,5.2,10.7,12.5,17.9,14.7c2.3,0.7,4.6,0.8,6.9,0.7c14.8-0.4,22.9-17.6,37.3-20.2
	c1.7-0.3,3.4,0,5.1,0.2c3.1,0.4,6.5,1.8,9.2,3.4c2.1,1.3,4.3,3,6.3,4.5c4.4,3.3,10,8.5,15.9,8.3c1.5,0,3-0.5,4.4-1l3.1-1.2
	c2.6-1.3,5.3-3.2,7.6-5c4.2-3.3,11.8-10.6,17.6-11.4c12-1.6,17.9,13,27.1,14.7c4.8,0.9,9.2-3.1,12-6.5c4.7-5.6,8.6-12.7,16.4-14.4
	c10.3-2.2,20.3,9.5,30.1,10.8c2.4,0.3,5.3-0.1,7.6-0.8c2.6-0.8,5.1-2.4,7.4-3.7l8-4.7c2.2-1.3,5.1-2.3,7.7-2.7l2.7-0.4
	c4.7-0.3,9.2,1.6,12.7,4.7l2.4,2.5c1.6,1.7,3.2,3.7,4.5,5.6l20,31.6c1.6,2.6,3.5,5.1,5.4,7.5c10.7,13.8,19.4,19.6,33.5,29.8
	c0.8,0.6,2,2.2,2.5,3.1l1,1.9c1.4,3.8,1.5,7.9,0.1,11.7l-1.1,2.1c-0.5,1-1.6,2.5-2.5,3.2c-14.2,10.2-22.9,16-33.5,29.8
	c-1.9,2.4-3.8,4.9-5.4,7.5l-20,31.6l-2.2,2.9c-4.6,6.1-10.5,10.9-18.6,9.7c-2.1-0.3-4.2-0.7-6.2-1.5c-8.3-3.6-16.5-11.7-25.9-10.5
	c-1.6,0.2-3.4,0.8-4.8,1.5l-2.8,1.2c-4.8,2.5-11.5,7-16.8,8.1c-2.1,0.4-4.4,0.3-6.5-0.2c-7.2-1.8-11.3-9-15.7-14.2
	c-3.7-4.4-8.5-8.4-14.4-5.7c-2.5,1.1-4.3,2.8-6.4,4.6l-6.5,5.7c-1.4,1.2-3.7,2.3-5.4,2.9c-2.1,0.6-4.1,1.1-6.3,0.8
	c-4.5-0.8-8.6-4.2-12-6.9c-5.6-4.5-13.1-11.2-20.7-11.8c-1.5-0.1-3,0.5-4.4,0.9c-1.3,0.4-3.1,1.1-4.2,1.9l-8.5,6.3
	c-3.2,2.4-5.8,4.3-9.4,5.8l-2.5,0.8c-10.2,3.2-17.9-3.5-25.3-9.6c-2.5-2-5-4.1-7.7-5.9c-2.5-1.7-5.3-2.7-8.2-3.5
	c-2.5-0.7-5.1-0.9-7.6-0.4c-2.3,0.4-4.6,1-6.7,2.1c-6.1,3.3-17.7,17-22.1,22c-6.2,7-12.2,14.1-18.8,20.7
	c-12.2,12.3-26.1,23-41.8,30.7L846,769c-5.3,2.3-10.9,4.4-16.5,6c-3.6,1-7.3,2-10.9,2.8l-9.5,1.7c-5.6,1-11.4,1.7-17,2.2
	c-13.7,1.1-27.4,1-41.1,1.2c-8,0.1-16.5,2.2-21.6,8.6l-1.8,2.2c-2.9,4.4-4.8,9.3-6.9,14.1c-3.2,7.5-5.9,15.2-9.3,22.6
	c-5.3,11.5-10.5,21.4-23,25.9c-10.6,3.8-23.2,4-34.3,4.2l-12,0.3l-0.3-13.9l0.7-14.8l1.4-16.4l0.5-11.5l-0.1-5.3l-12.5-6.4l-0.3-2
	l-1.6-7.9l-2.3-7.2l-4.3-9.8l-2.1-4l-7.7-13.1l-9.6-14.7L603.6,702.6L603.6,702.6z"/>
<g id="m4" class="st6">
	<g class="st7">
		<g>
			<defs>
				<path id="SVGID_00000055708669434531132370000014552529312983261090_" d="M971.9,627.7l8.8,1.3l1.9,4.6
					c1.4,3.3,3.8,8.3,6.7,12.7c3.2,4.8,5.9,7.1,7.2,7.6c0.9,0.3,2.5,0.6,4,0.5l2.5-0.4c1.5-0.3,2.9-0.7,3.6-1
					c2.6-1.2,7.6-3.7,12.8-6c2.7-1.2,5.5-2.4,8-3.3c2.4-0.9,5.3-1.8,7.9-2c2.7-0.2,6.2-0.1,9.6,1.1c1.8,0.6,3.2,1.5,4.3,2.2
					c0.9,0.6,1.8,1.3,2.7,2c2.3,1.8,4.4,3.9,6,5.5c0.8,0.8,1.5,1.5,2.3,2.3c0.6,0.6,1.3,1.2,1.9,1.8c2.1,1.7,3.4,2.1,5.6,1.6
					c0.8-0.2,1.5-0.4,2.1-0.7c1-0.4,2.1-1,3.2-1.5l8.6-4.1l2.7-0.8c6.5-2,13.1-0.4,18,3.4l12.5,9.5c1.7,1.3,2.9,1.4,4.6,0.5l7.4-3.9
					c1.7-0.9,3.5-1.8,5.3-2.6c2-0.9,4.5-1.8,7.2-2.2c10.1-1.6,17.3,4.4,21.5,8c2,1.7,3.9,3.5,6.1,5.1c1.8,1.3,3.2,2,4.4,2.2
					c1.9,0.4,2.9,0.3,3.9,0c1.7-0.6,4.5-2.8,6.6-5.6l2.2-3.2c2.2-3.2,4-6.6,5.2-9.8c1.7-4.7,2.3-9.8,2.9-16.3
					c0.2-2.5,0.6-5.2,0.5-7.8c-0.2-8.8-0.9-17.6-3.4-24.5c-1.2-3.2-3.1-6.6-5.2-9.8c-0.7-1.1-1.5-2.1-2.2-3.2
					c-0.7-0.9-1.3-1.6-1.9-2.2c-2.3-2.3-4.9-3.6-5.8-3.7c-0.5,0-1.3,0-2.8,0.3c-1.6,0.4-3.6,1.4-5.4,2.8l-5.5,4.7
					c-2,1.7-4.8,4.1-8.2,5.7c-3.6,1.8-7.9,2.8-12.9,2c-2.8-0.4-5.2-1.3-7.2-2.2c-1.8-0.8-3.6-1.7-5.3-2.6l-7.4-3.9
					c-1.6-0.8-2.6-0.6-2.9-0.5l-3.8,2.6c-4,2.7-7.7,5.7-11.5,8.6l-0.6,0.5l-1.9,1c-5.9,3-11.3,2.1-15.4,0.8l-1.7-0.5l-8.6-4.1
					c-1-0.5-2.1-1-3.2-1.5c-0.9-0.4-1.5-0.6-1.9-0.6c-3.2-0.6-5.1,0.4-9.2,4.5c-1.1,1.1-2.2,2.3-3.3,3.4c-1.2,1.2-2.6,2.5-4.2,3.7
					c-3.2,2.5-7.6,4.8-13.3,4.7h-2.6l-0.6-0.1c-3.5-0.5-6.7-1.6-9.5-2.7c-2.6-1-5.2-2.3-7.6-3.4l-11-5.1c-0.7-0.3-2.1-0.7-3.6-1
					c-3.2-0.6-4.7-0.5-6.6,0.1l-2.7,2c-3.9,3.7-8.5,11.9-11.1,18.1l-1.9,4.6L971.9,627.7L971.9,627.7z M603.6,702.6
					c8.8-4.1,17.6-8.3,26.4-12.4c3.4-1.6,6.9-3.3,10.4-4.8c3.8-1.7,7.7-3.2,11.7-4.3c8-2.2,19.6-3.1,28.9,1.2
					c7.4,3.4,13.7,9.2,18.4,13.9l23.7,24c2,2.1,4.5,4.2,7.2,6.2c3.4,2.6,6.5,4.9,9.7,6.7c12.1,6.8,25.5,8.5,39.7,5.9l5.8-1
					c3-0.7,6.1-1.7,9-2.6c2.5-0.8,5-2,7.4-3.1l5.4-2.6c7.2-3.8,14.8-9.1,21-14.5l6.5-6.1c3.2-2.9,6.2-6,9.1-9.2
					c8.4-9.5,15.8-19.6,23-30l6.5-9.3c2-2.9,4-5.9,6.2-8.8c2.3-3.1,4.6-6.2,7.2-9.1c5.1-5.8,11.4-11.4,19.3-15.1
					c-7.8-3.8-13.9-9-18.9-14.7c-2.6-2.9-5-5.9-7.3-9.1c-2.2-3-4.3-6.1-6.5-9.2l-6.5-9.3c-6.9-10-13.8-19.6-21.5-28.3
					c-8.8-10-20.1-20.4-30.9-27.2c-12.5-7.8-25.8-13.1-39.8-14.3c-5.3-0.5-9.9-0.7-14.3-0.2c-9.4,1.2-18.2,4.8-26.1,10.4l-4,3.1
					c-2.6,2-5.1,4.1-7.1,6.2l-23.7,23.9c-4.6,4.6-10.9,10.4-18.2,13.8c-9.4,4.4-20.8,3.6-29,1.3c-4-1.1-7.9-2.6-11.7-4.3
					c-3.5-1.5-7-3.2-10.4-4.8l-11.9-5.7c-4.8-2.1-9.7-4-14.5-5.9v-32l9.6-14.6l3.9-6.5l5.9-10.7l0.7-1.3l3.6-8.4l2.4-7.2l0.3-1.3
					l1.7-8.7l12.4-6.4l0.2-5.1l-1.9-28.1l-0.4-6.5l-0.2-14.8l0.3-7.5c7.6,0.1,15.2,0.3,22.8,0.8c7.9,0.5,15.6,1.1,23.1,3.7
					c3.8,1.3,8.3,3.8,11.1,6.6c9.5,9.5,14.6,24.8,19.3,36.8c7,17.5,11.1,30,32.5,30.3c13.7,0.1,27.4,0.1,41.1,1.2
					c36.1,2.9,67.1,14.3,94.1,38.4c12.8,11.5,23.4,25,35.1,37.6c4.8,5.2,10.7,12.5,17.9,14.7c2.3,0.7,4.6,0.8,6.9,0.7
					c14.8-0.4,22.9-17.6,37.3-20.2c1.7-0.3,3.4,0,5.1,0.2c3.1,0.4,6.5,1.8,9.2,3.4c2.1,1.3,4.3,3,6.3,4.5c4.4,3.3,10,8.5,15.9,8.3
					c1.5,0,3-0.5,4.4-1l3.1-1.2c2.6-1.3,5.3-3.2,7.6-5c4.2-3.3,11.8-10.6,17.6-11.4c12-1.6,17.9,13,27.1,14.7
					c4.8,0.9,9.2-3.1,12-6.5c4.7-5.6,8.6-12.7,16.4-14.4c10.3-2.2,20.3,9.5,30.1,10.8c2.4,0.3,5.3-0.1,7.6-0.8
					c2.6-0.8,5.1-2.4,7.4-3.7l8-4.7c2.2-1.3,5.1-2.3,7.7-2.7l2.7-0.4c4.7-0.3,9.2,1.6,12.7,4.7l2.4,2.5c1.6,1.7,3.2,3.7,4.5,5.6
					l20,31.6c1.6,2.6,3.5,5.1,5.4,7.5c10.7,13.8,19.4,19.6,33.5,29.8c0.8,0.6,2,2.2,2.5,3.1l1,1.9c1.4,3.8,1.5,7.9,0.1,11.7
					l-1.1,2.1c-0.5,1-1.6,2.5-2.5,3.2c-14.2,10.2-22.9,16-33.5,29.8c-1.9,2.4-3.8,4.9-5.4,7.5l-20,31.6l-2.2,2.9
					c-4.6,6.1-10.5,10.9-18.6,9.7c-2.1-0.3-4.2-0.7-6.2-1.5c-8.3-3.6-16.5-11.7-25.9-10.5c-1.6,0.2-3.4,0.8-4.8,1.5l-2.8,1.2
					c-4.8,2.5-11.5,7-16.8,8.1c-2.1,0.4-4.4,0.3-6.5-0.2c-7.2-1.8-11.3-9-15.7-14.2c-3.7-4.4-8.5-8.4-14.4-5.7
					c-2.5,1.1-4.3,2.8-6.4,4.6l-6.5,5.7c-1.4,1.2-3.7,2.3-5.4,2.9c-2.1,0.6-4.1,1.1-6.3,0.8c-4.5-0.8-8.6-4.2-12-6.9
					c-5.6-4.5-13.1-11.2-20.7-11.8c-1.5-0.1-3,0.5-4.4,0.9c-1.3,0.4-3.1,1.1-4.2,1.9l-8.5,6.3c-3.2,2.4-5.8,4.3-9.4,5.8l-2.5,0.8
					c-10.2,3.2-17.9-3.5-25.3-9.6c-2.5-2-5-4.1-7.7-5.9c-2.5-1.7-5.3-2.7-8.2-3.5c-2.5-0.7-5.1-0.9-7.6-0.4c-2.3,0.4-4.6,1-6.7,2.1
					c-6.1,3.3-17.7,17-22.1,22c-6.2,7-12.2,14.1-18.8,20.7c-12.2,12.3-26.1,23-41.8,30.7L846,769c-5.3,2.3-10.9,4.4-16.5,6
					c-3.6,1-7.3,2-10.9,2.8l-9.5,1.7c-5.6,1-11.4,1.7-17,2.2c-13.7,1.1-27.4,1-41.1,1.2c-8,0.1-16.5,2.2-21.6,8.6l-1.8,2.2
					c-2.9,4.4-4.8,9.3-6.9,14.1c-3.2,7.5-5.9,15.2-9.3,22.6c-5.3,11.5-10.5,21.4-23,25.9c-10.6,3.8-23.2,4-34.3,4.2l-12,0.3
					l-0.3-13.9l0.7-14.8l1.4-16.4l0.5-11.5l-0.1-5.3l-12.5-6.4l-0.3-2l-1.6-7.9l-2.3-7.2l-4.3-9.8l-2.1-4l-7.7-13.1l-9.6-14.7
					L603.6,702.6L603.6,702.6z"/>
			</defs>
			<clipPath id="SVGID_00000017498264349366736900000000484961444516895872_">
				<use xlink:href="#SVGID_00000055708669434531132370000014552529312983261090_"  style="overflow:visible;"/>
			</clipPath>
			<g style="clip-path:url(#SVGID_00000017498264349366736900000000484961444516895872_);">
				<polygon class="st14" points="968.3,636 972,644.1 976,651.4 978.4,655.1 981.1,658.7 984.6,662.3 987.9,664.9 991.6,666.8 
					995.4,667.9 998.7,668.3 1002.1,668.2 1006.6,667.4 1012.3,665.6 1028.8,657.9 1034.8,655.8 1036.7,655.4 1038.4,655.4 
					1040.1,655.7 1042,656.8 1043.8,658.2 1050.7,665.2 1054.8,668.4 1057.1,669.9 1059.7,671 1062.3,671.7 1066.4,672 
					1070.5,671.5 1074.4,670.4 1078.1,668.9 1086.5,664.6 1088.9,663.9 1091,663.9 1093.1,664.7 1106.4,674.8 1109.4,676.6 
					1112.6,678 1115.9,678.6 1119.2,678.6 1122.6,677.8 1125.8,676.5 1136.8,670.7 1139.1,669.7 1141.5,669.1 1143.1,669 
					1144.6,669.2 1146.7,670.1 1148.6,671.4 1157.1,678.7 1160.5,681 1163.5,682.6 1166.7,683.9 1171.1,684.8 1175.3,684.8 
					1178.2,684.3 1182,682.8 1186,680.3 1189.2,677.6 1192.9,673.5 1196.9,667.7 1199.9,662.4 1202.4,656.8 1204.1,651 1205.3,645 
					1206,639.1 1206.7,627.8 1206,616.5 1205.3,610.6 1204.1,604.6 1202.4,598.8 1200,593.2 1196.9,587.9 1193.4,582.7 
					1189.8,578.5 1186.1,575.3 1182.3,572.9 1178.9,571.5 1175.4,570.8 1171.6,570.8 1166.8,571.7 1163.5,573 1160.5,574.6 
					1157.2,576.9 1148.6,584.2 1146.7,585.5 1144.6,586.3 1143.1,586.6 1141.5,586.5 1139.1,585.9 1131.1,581.9 1125.8,579.1 
					1122.6,577.8 1119.2,577 1115.9,576.9 1112.7,577.6 1109.5,578.9 1106.5,580.7 1096.3,588.5 1093.5,590.7 1091,591.7 
					1088.9,591.7 1086.5,590.9 1078.1,586.7 1074.4,585.1 1070.6,584 1066.4,583.5 1063,583.8 1059.7,584.6 1056.1,586.3 
					1053.3,588.2 1050.8,590.4 1043.8,597.3 1042,598.7 1040.1,599.8 1038.4,600.1 1036.7,600.1 1033,599.2 1024.7,595.7 
					1012.3,589.9 1006.7,588.1 1002.1,587.3 997.4,587.3 994.4,587.8 991.6,588.7 988.6,590.1 985,592.8 981.2,596.8 978.4,600.3 
					976,604.1 972,611.4 968.4,619.5 				"/>
				<g>
					<g>
						<g>
							<defs>
								<rect id="SVGID_00000173133985949251035650000012650376814843313800_" x="523.2" y="332.9" width="409.1" height="608.2"/>
							</defs>
							<clipPath id="SVGID_00000078017543192892557380000010421552749846545586_">
								<use xlink:href="#SVGID_00000173133985949251035650000012650376814843313800_"  style="overflow:visible;"/>
							</clipPath>
						</g>
					</g>
				</g>
			</g>
		</g>
	</g>
</g>
<path id="m3_00000121269925764781567640000011896758881150701216_" class="st15" d="M630,556.5l-8.6-4.1c-6.8-3-13.8-5.6-20.7-8.3
	l-0.6-0.3"/>
<path id="m3_00000016768662100746057730000006990549492584835488_" class="st15" d="M951.2,622.9c-5.4,0.7-11.6,1.5-17.8,1.7
	c-8.2,0.3-16.5-0.4-22.9-3.3c-7.2-3.3-12.8-8-17.6-13.3c-1.9-2.1-3.6-4.3-5.4-6.6"/>
<path id="m3_00000127041082688991979150000014536677322355756433_" class="st15" d="M1151.3,665.7c1.5,1,3,2.2,4.4,3.4
	c2.1,1.8,4.3,3.8,6.6,5.5c2.3,1.6,4.7,2.9,7.3,3.5c2.9,0.6,5.3,0.7,8.1-0.2c3.9-1.3,7.9-5,10.4-8.4l2.3-3.4
	c2.4-3.5,4.6-7.5,6.1-11.5c1.1-2.9,1.8-5.9,2.2-8.9c0.5-3.1,0.8-6.1,1.1-9.2c0.3-2.8,0.6-5.9,0.6-8.7c-0.2-8.8-0.9-18.7-3.9-26.9
	c-1.5-4-3.7-8-6.1-11.5c-0.8-1.1-1.6-2.3-2.4-3.4c-0.8-1.1-1.7-2.2-2.6-3.1c-2.7-2.7-7-5.6-10.6-5.9c-1.7-0.1-3.3,0.1-5.1,0.5
	c-3.1,0.7-6.2,2.4-8.7,4.4l-5.7,4.8c-1.3,1.1-2.6,2.2-4,3.2"/>
<path id="m3_00000029724547839626552240000012150778293800506273_" class="st15" d="M887.6,654c1.6-2.1,3.2-4.2,5-6.2
	c4.8-5.4,10.3-10.3,17.1-13.3c6.9-3.1,15.1-3.9,23.3-3.7c6.2,0.2,12.5,1,18.2,1.8"/>
<path id="m3" class="st15" d="M600,712.8l0.6-0.3c9.8-4.6,19.6-9.2,29.4-13.8"/>
<polygon class="st16" points="593.8,627.8 593.8,734.1 604.2,749.9 612.2,763.2 614.3,767.4 618.5,776.7 621.2,785.1 622.9,792.6 
	623.3,795.2 635.3,801.3 635.4,807.5 635,818.7 633.5,836.1 632.8,850.5 633,864.9 633.5,872.8 634.9,885.2 637.1,897.5 
	638.6,903.5 642.2,914.9 646.5,926 655,945.6 656.2,948.4 797.5,927.9 914.6,910.6 933.6,907.9 943.6,917.9 950.4,905.5 
	1009.3,897.3 1079.8,886.9 1112.6,881.7 1161.6,873.3 1197.4,866.4 1212,863.3 1218.8,861.7 1229.7,870.9 1235.4,857.9 
	1262.3,850.9 1287.5,843.5 1293.7,841.6 1315.3,834.2 1335.1,826.6 1351.5,819.3 1367.5,811.4 1384.4,802.1 1395.6,795.4 
	1410.4,785.7 1423.5,776.2 1429.8,771.1 1439.3,762.6 1448.3,753.5 1456.7,743.9 1458.7,741.4 1466.3,731.1 1473.2,720.3 
	1479.3,709 1480.8,706.1 1485.7,694.6 1489.7,682.8 1492.1,673.8 1494.8,661.4 1496.8,647.3 1497.1,644.1 1497.8,636.3 
	1509.7,628.5 1497.7,618.4 1497.1,611.5 1495.3,597.3 1492.9,584.9 1492.2,581.9 1488.8,569.8 1484.5,558 1480.7,549.5 
	1474.8,538.1 1468.1,527.2 1460.7,516.7 1458.7,514.2 1450.5,504.4 1441.6,495.2 1432.2,486.6 1429.8,484.5 1418.3,475.6 
	1405.1,466.3 1395.6,460.2 1378.8,450.3 1361.7,441.2 1351.5,436.2 1335.1,429 1316.9,421.9 1295.3,414.5 1293.7,414 1270.2,406.9 
	1244.9,400.1 1235.4,397.7 1229.7,384.7 1218.8,393.8 1212.1,392.3 1179.6,385.6 1142.1,378.8 1112.6,373.8 1050.4,364.1 
	1009.4,358.2 950.5,349.9 943.6,337.5 933.7,347.6 914.6,344.9 823.9,331.5 797.5,327.6 662.9,308 656.2,307 646.5,329.4 
	641.3,343.4 638.6,351.9 636.2,362.5 634.3,374.9 633.5,382.6 632.9,396.9 633.1,411.3 633.6,419.3 635.5,447.8 635.3,454.2 
	623.3,460.3 621.9,467.9 621.3,470.4 618.5,478.7 614.3,488 609.1,497.6 604.2,505.5 593.8,521.3 "/>
<polygon class="st16" points="604.7,627.9 604.6,732.6 614.6,747.7 622.3,760.8 624.4,764.9 628.2,773.4 630.8,780.7 631.2,782.2 
	632.9,790.5 633.2,792 645.2,798.1 645.4,804.2 644.9,815.2 643.4,832.3 642.8,846.4 643,860.5 643.4,868.3 644.9,881.1 
	646.9,892.2 648.4,898.4 651.7,908.9 656.1,920.5 664.4,939.8 665.6,942.6 803.5,922.4 917.8,905.4 936.1,902.8 946.2,912.9 
	953,900.4 1010.3,892.4 1079.6,882 1111,877 1159.6,868.6 1195.2,861.7 1208.1,859 1214.5,857.5 1225.4,866.7 1231.1,853.6 
	1258,846.6 1283.1,839.2 1287.8,837.7 1309.4,830.2 1327.7,823.1 1344.2,815.8 1360.2,807.8 1376,799.1 1387.2,792.4 1401.7,782.8 
	1414.5,773.4 1420.6,768.5 1430.2,759.8 1439.4,750.5 1447.8,740.7 1448.9,739.4 1456.5,728.8 1463.5,717.8 1468.9,707.7 
	1470.3,704.7 1474.7,694.4 1478.9,682.3 1481.5,672.9 1484,660.8 1486,647 1486.3,643.9 1487,636.3 1498.9,628.5 1486.9,618.4 
	1486.3,611.8 1484.6,597.9 1482.2,585.7 1481.4,582.7 1478,570.3 1473.6,558.3 1470.4,550.9 1465.2,540.7 1459.3,530.9 
	1451.9,520.1 1448.9,516.3 1440.5,506.3 1431.5,497 1421.9,488.2 1420.7,487.1 1409.5,478.3 1396.6,469.3 1387.3,463.3 
	1370.4,453.2 1354.5,444.7 1344.3,439.8 1327.8,432.5 1309.5,425.4 1289.4,418.4 1287.8,417.9 1264.4,410.7 1239.1,403.9 
	1231.1,401.9 1225.5,388.9 1214.6,398.1 1208.2,396.6 1176,389.9 1138.7,383.1 1111.1,378.5 1050.1,368.9 1010.4,363.1 953.1,355 
	946.3,342.6 936.3,352.7 918,350.1 828.5,336.7 803.6,333 670.8,313.5 665.7,312.9 656.3,334.9 650.8,349.5 648.5,356.9 646,367.9 
	644.3,379 643.6,387.1 642.9,401.1 643.1,415.2 643.5,423.1 645.4,451.1 645.3,457.3 633.3,463.4 631.6,471.8 631.2,473.2 
	628.9,480.5 625.1,489.1 624.5,490.5 618.6,501.2 614.6,507.7 604.7,522.8 "/>
<path id="m2_00000096756266015650322060000008292161608103127999_" class="st17" d="M948.4,679.6c-6-0.5-16.6-1.9-22.5,0.1
	c-2.2,0.7-4.3,1.8-6.3,3c-6.3,3.4-12,7.8-17.7,12c-1.1,0.8-6.1,4.7-6.9,1.5c-0.4-1.8,0.5-3.4,1.4-4.9c3.5-5.3,8-10.3,12.3-15
	c4.5-5.1,14.5-17.2,22.3-18.3c6-0.8,14.7,0.6,20.6,1.3c2.8,0.3,5.8,0.6,8.5,1.2c1,0.2,2.1,0.5,2.8,1.2c2.1,1.7,1.2,6.9,0.9,9
	c-0.7,4.6-0.9,9.5-6.8,9.7c-2.9,0.1-5.9-0.3-8.8-0.6L948.4,679.6L948.4,679.6z"/>
<path id="m2_00000050629238095214006900000009672281556729662092_" class="st17" d="M948.4,575.2c-6,0.5-16.6,1.9-22.5-0.1
	c-2.2-0.7-4.3-1.8-6.3-3c-6.3-3.4-12-7.8-17.7-12c-1.1-0.8-6.1-4.7-6.9-1.5c-0.4,1.8,0.5,3.4,1.4,4.9c3.5,5.3,8,10.3,12.3,15
	c4.5,5.1,14.5,17.2,22.3,18.3c6,0.8,14.7-0.6,20.6-1.3c2.8-0.3,5.8-0.6,8.5-1.2c1-0.2,2.1-0.5,2.8-1.2c2.1-1.7,1.2-6.9,0.9-9
	c-0.7-4.6-0.9-9.5-6.8-9.7c-2.9-0.1-5.9,0.3-8.8,0.6L948.4,575.2L948.4,575.2z"/>
<path id="m2_00000103944618019145320620000007307632559239503765_" class="st17" d="M807.6,488.6c7,3.5,13.6,7.8,20,12.1
	c6.8,4.5,13.4,9.1,19.9,14c4.6,3.4,9.1,7,13.3,10.9c2.3,2.1,4.5,4.4,6.7,6.6c2.5,2.5,8.5,9.5,12.9,9.6c1.7,0,3-0.8,3.9-2.1
	c4.8-6.4-6.7-15.6-10.9-18.7c-0.4-0.3-0.7-0.5-1.1-0.8c-17.2-12.4-44.5-26-65.1-31.8L807.6,488.6L807.6,488.6z"/>
<path id="m2" class="st17" d="M807.6,766.4c7-3.5,13.6-7.8,20-12.1c6.8-4.5,13.4-9.1,19.9-14c4.6-3.4,9.1-7,13.3-10.9
	c2.3-2.1,4.5-4.4,6.7-6.6c2.5-2.5,8.5-9.5,12.9-9.6c1.7,0,3,0.9,3.9,2.1c4.8,6.4-6.7,15.6-10.9,18.7c-0.4,0.3-0.7,0.5-1.1,0.8
	c-17.2,12.4-44.5,26-65.1,31.8L807.6,766.4L807.6,766.4z"/>
<path id="m1_00000045610453477154945670000016602956277035269293_" class="st18" d="M762.2,822.6c1.4,0,2.2-0.1,2.5-0.2
	c0.3-0.1,0.5-0.3,0.7-0.5s0.3-0.5,0.3-0.9s-0.1-0.8-0.3-1s-0.5-0.4-1-0.5c-0.2,0-0.9,0-2,0h-2v3.1L762.2,822.6L762.2,822.6z
	 M757.2,817h6.1c1.5,0,2.6,0.1,3.3,0.4c0.7,0.2,1.3,0.7,1.7,1.3s0.6,1.4,0.6,2.2c0,1-0.3,1.9-1,2.6c-0.6,0.6-1.4,1-2.4,1.2
	c0.5,0.3,0.8,0.6,1.2,0.9c0.4,0.4,0.9,1.2,1.6,2.2l1.9,2.9h-3.8l-2.1-3c-0.7-1-1.2-1.7-1.5-2s-0.5-0.4-0.8-0.5s-0.7-0.1-1.4-0.1
	h-0.4v5.6h-3.1L757.2,817L757.2,817z"/>
<path id="m1_00000017508353690834673600000007806469384901178523_" class="st18" d="M775.8,817v7.4c0,1.2,0,1.9,0.1,2.2
	c0.1,0.5,0.4,0.9,0.8,1.2c0.4,0.3,1,0.5,1.7,0.5s1.3-0.2,1.7-0.4s0.6-0.7,0.7-1.1c0.1-0.5,0.1-1.2,0.1-2.3V817h3.2v7.2
	c0,1.6-0.1,2.8-0.2,3.5c-0.2,0.7-0.5,1.3-0.9,1.8s-1,0.9-1.7,1.1c-0.7,0.3-1.6,0.4-2.7,0.4c-1.3,0-2.4-0.2-3.1-0.5
	c-0.7-0.3-1.3-0.7-1.7-1.2s-0.7-1-0.8-1.5c-0.2-0.8-0.3-1.9-0.3-3.5V817H775.8L775.8,817z"/>
<polygon id="m1_00000165231816161780503840000013080334585260690871_" class="st18" points="788.2,817 791.2,817 796.6,825.6 
	796.6,817 799.6,817 799.6,830.7 796.5,830.7 791.1,822.3 791.1,830.7 788.2,830.7 "/>
<path id="m1_00000178181691024830302250000013206770536646721434_" class="st18" d="M953.9,841c2,2.3,4.5,3.4,7.6,3.4
	s5.6-1.1,7.5-3.3s2.9-5.6,2.9-10.2c0-4.6-1-7.9-2.9-10.1c-1.9-2.2-4.4-3.3-7.6-3.3c-3.2,0-5.7,1.1-7.6,3.3
	c-1.9,2.2-2.9,5.5-2.9,10.1C950.8,835.4,951.9,838.8,953.9,841L953.9,841z M943,820.3c0.9-2.2,2.2-4.1,3.9-5.8
	c1.6-1.7,3.4-3,5.4-3.8c2.6-1.1,5.6-1.7,8.9-1.6c6.1,0,11,2,14.8,5.9c3.7,3.9,5.6,9.4,5.6,16.2s-1.8,12.2-5.4,16
	c-3.7,3.9-8.6,5.8-14.6,5.8c-6.1,0-11.1-2-14.8-5.9s-5.5-9.2-5.6-15.9C941.1,826.9,941.7,823.3,943,820.3L943,820.3z M913.4,826.9
	c3.8,0,6-0.2,6.8-0.4s1.4-0.8,1.9-1.5c0.4-0.7,0.7-1.6,0.7-2.7c0-1.2-0.3-2.2-0.9-2.9c-0.6-0.7-1.4-1.2-2.6-1.4
	c-0.6-0.1-2.5-0.1-5.6-0.2h-5.5v9L913.4,826.9L913.4,826.9z M899.2,810.2c0-0.4,0.3-0.7,0.6-0.7l16.4,0.1c4.1,0,7.2,0.4,9.2,1.2
	s3.6,2.2,4.8,4.2s1.8,4.3,1.8,6.8c0,3.2-0.9,5.9-2.7,8.1c-1.5,1.8-3.6,3-6.3,3.7c1.1,0.8,2.1,1.7,2.9,2.6c1.1,1.3,2.7,3.6,4.5,6.8
	l4.7,8c0.3,0.6,0.1,1.1-0.5,1.1h-9.3c-0.1,0-0.5-0.2-0.5-0.3l-5.6-9c-2-3.2-3.4-5.2-4.1-5.9c-0.7-0.8-1.4-1.3-2.1-1.5
	c-0.7-0.3-2-0.4-3.7-0.4h-1l0.1,16.4c0,0.4-0.3,0.7-0.6,0.7H900c-0.3,0-0.6-0.3-0.6-0.7L899.2,810.2L899.2,810.2z M869.5,828h3.6
	c3.1,0,5-0.2,5.9-0.6c0.9-0.4,1.6-1,2.1-1.8s0.8-1.7,0.8-2.8c0-1.3-0.4-2.4-1.1-3.2c-0.7-0.9-1.6-1.4-2.8-1.6
	c-0.9-0.2-2.7-0.3-5.5-0.3h-3.1L869.5,828L869.5,828z M860.3,810.1c0-0.4,0.3-0.7,0.6-0.7h12.5c4.7,0,7.9,0.2,9.4,0.7
	c2.4,0.7,4.3,2.1,5.9,4.3c1.6,2.2,2.4,5,2.4,8.4c0,2.6-0.4,4.8-1.3,6.7c-0.9,1.8-2,3.2-3.5,4.3c-1.4,1-2.8,1.7-4.2,2
	c-1.9,0.4-4.6,0.6-8.2,0.6h-4.4l0.1,14.8c0,0.4-0.3,0.7-0.6,0.7h-7.8c-0.3,0-0.6-0.3-0.6-0.7L860.3,810.1L860.3,810.1z M819.8,824.7
	c-1-1.6-1.5-3.3-1.4-5.1c0.1-3.1,1.5-5.7,4.1-7.6c2.6-2,6.1-2.8,10.6-2.7c4.4,0.1,7.9,1.2,10.3,3.3c2.4,2.1,3.6,4.7,3.5,7.9
	c-0.1,2-0.7,3.7-2,5.2c-1,1.2-2.4,2.2-4,2.9c2.1,1,3.7,2.2,4.9,3.8c1.3,1.8,1.9,3.9,1.9,6.3c-0.1,3.8-1.7,6.9-4.6,9.2
	c-2.9,2.3-6.7,3.4-11.2,3.2c-4.2-0.1-7.8-1.2-10.6-3.3c-3.3-2.5-4.9-5.7-4.8-9.8c0.1-2.3,0.8-4.3,2.2-6.2c1.2-1.6,3-2.9,5.2-3.8
	C822,827.2,820.6,826.1,819.8,824.7L819.8,824.7z M828.6,823.7c0.9,0.8,2.1,1.3,3.7,1.3c1.6,0,2.9-0.3,3.9-1.1
	c0.9-0.8,1.5-1.8,1.5-3.3c0-1.4-0.4-2.4-1.2-3.2c-0.9-0.8-2.1-1.3-3.7-1.3c-1.7,0-3,0.3-3.9,1.1c-1,0.8-1.5,1.8-1.5,3.2
	C827.3,821.8,827.7,822.9,828.6,823.7L828.6,823.7z M827.4,842.7c1.1,1.2,2.6,1.8,4.4,1.8c1.8,0.1,3.2-0.5,4.4-1.5
	c1.1-1,1.8-2.6,1.9-4.7c0.1-1.8-0.5-3.3-1.5-4.4c-1.1-1.1-2.5-1.7-4.4-1.8c-2.1-0.1-3.7,0.5-4.7,1.7c-1.1,1.2-1.6,2.6-1.7,4
	C825.8,839.9,826.3,841.5,827.4,842.7L827.4,842.7z"/>
<g id="m1_00000026145609688687510050000006323294233846103168_" class="st6">
	<g class="st7">
		<g>
			<defs>
				<path id="SVGID_00000024682516199822888300000009460055204632312240_" d="M953.9,841c2,2.3,4.5,3.4,7.6,3.4s5.6-1.1,7.5-3.3
					s2.9-5.6,2.9-10.2c0-4.6-1-7.9-2.9-10.1c-1.9-2.2-4.4-3.3-7.6-3.3c-3.2,0-5.7,1.1-7.6,3.3c-1.9,2.2-2.9,5.5-2.9,10.1
					C950.8,835.4,951.9,838.8,953.9,841L953.9,841z M943,820.3c0.9-2.2,2.2-4.1,3.9-5.8c1.6-1.7,3.4-3,5.4-3.8
					c2.6-1.1,5.6-1.7,8.9-1.6c6.1,0,11,2,14.8,5.9c3.7,3.9,5.6,9.4,5.6,16.2s-1.8,12.2-5.4,16c-3.7,3.9-8.6,5.8-14.6,5.8
					c-6.1,0-11.1-2-14.8-5.9s-5.5-9.2-5.6-15.9C941.1,826.9,941.7,823.3,943,820.3L943,820.3z M913.4,826.9c3.8,0,6-0.2,6.8-0.4
					s1.4-0.8,1.9-1.5c0.4-0.7,0.7-1.6,0.7-2.7c0-1.2-0.3-2.2-0.9-2.9c-0.6-0.7-1.4-1.2-2.6-1.4c-0.6-0.1-2.5-0.1-5.6-0.2h-5.5v9
					L913.4,826.9L913.4,826.9z M899.2,810.2c0-0.4,0.3-0.7,0.6-0.7l16.4,0.1c4.1,0,7.2,0.4,9.2,1.2s3.6,2.2,4.8,4.2s1.8,4.3,1.8,6.8
					c0,3.2-0.9,5.9-2.7,8.1c-1.5,1.8-3.6,3-6.3,3.7c1.1,0.8,2.1,1.7,2.9,2.6c1.1,1.3,2.7,3.6,4.5,6.8l4.7,8c0.3,0.6,0.1,1.1-0.5,1.1
					h-9.3c-0.1,0-0.5-0.2-0.5-0.3l-5.6-9c-2-3.2-3.4-5.2-4.1-5.9c-0.7-0.8-1.4-1.3-2.1-1.5c-0.7-0.3-2-0.4-3.7-0.4h-1l0.1,16.4
					c0,0.4-0.3,0.7-0.6,0.7H900c-0.3,0-0.6-0.3-0.6-0.7L899.2,810.2L899.2,810.2z M869.5,828h3.6c3.1,0,5-0.2,5.9-0.6
					c0.9-0.4,1.6-1,2.1-1.8s0.8-1.7,0.8-2.8c0-1.3-0.4-2.4-1.1-3.2c-0.7-0.9-1.6-1.4-2.8-1.6c-0.9-0.2-2.7-0.3-5.5-0.3h-3.1
					L869.5,828L869.5,828z M860.3,810.1c0-0.4,0.3-0.7,0.6-0.7h12.5c4.7,0,7.9,0.2,9.4,0.7c2.4,0.7,4.3,2.1,5.9,4.3
					c1.6,2.2,2.4,5,2.4,8.4c0,2.6-0.4,4.8-1.3,6.7c-0.9,1.8-2,3.2-3.5,4.3c-1.4,1-2.8,1.7-4.2,2c-1.9,0.4-4.6,0.6-8.2,0.6h-4.4
					l0.1,14.8c0,0.4-0.3,0.7-0.6,0.7h-7.8c-0.3,0-0.6-0.3-0.6-0.7L860.3,810.1L860.3,810.1z M819.8,824.7c-1-1.6-1.5-3.3-1.4-5.1
					c0.1-3.1,1.5-5.7,4.1-7.6c2.6-2,6.1-2.8,10.6-2.7c4.4,0.1,7.9,1.2,10.3,3.3c2.4,2.1,3.6,4.7,3.5,7.9c-0.1,2-0.7,3.7-2,5.2
					c-1,1.2-2.4,2.2-4,2.9c2.1,1,3.7,2.2,4.9,3.8c1.3,1.8,1.9,3.9,1.9,6.3c-0.1,3.8-1.7,6.9-4.6,9.2c-2.9,2.3-6.7,3.4-11.2,3.2
					c-4.2-0.1-7.8-1.2-10.6-3.3c-3.3-2.5-4.9-5.7-4.8-9.8c0.1-2.3,0.8-4.3,2.2-6.2c1.2-1.6,3-2.9,5.2-3.8
					C822,827.2,820.6,826.1,819.8,824.7L819.8,824.7z M828.6,823.7c0.9,0.8,2.1,1.3,3.7,1.3c1.6,0,2.9-0.3,3.9-1.1
					c0.9-0.8,1.5-1.8,1.5-3.3c0-1.4-0.4-2.4-1.2-3.2c-0.9-0.8-2.1-1.3-3.7-1.3c-1.7,0-3,0.3-3.9,1.1c-1,0.8-1.5,1.8-1.5,3.2
					C827.3,821.8,827.7,822.9,828.6,823.7L828.6,823.7z M827.4,842.7c1.1,1.2,2.6,1.8,4.4,1.8c1.8,0.1,3.2-0.5,4.4-1.5
					c1.1-1,1.8-2.6,1.9-4.7c0.1-1.8-0.5-3.3-1.5-4.4c-1.1-1.1-2.5-1.7-4.4-1.8c-2.1-0.1-3.7,0.5-4.7,1.7c-1.1,1.2-1.6,2.6-1.7,4
					C825.8,839.9,826.3,841.5,827.4,842.7L827.4,842.7z"/>
			</defs>
			<clipPath id="SVGID_00000169559411770876169070000006223688411027156413_">
				<use xlink:href="#SVGID_00000024682516199822888300000009460055204632312240_"  style="overflow:visible;"/>
			</clipPath>
			<g style="clip-path:url(#SVGID_00000169559411770876169070000006223688411027156413_);">
				<line class="st20" x1="816" y1="812.1" x2="993.2" y2="812.8"/>
				<line class="st20" x1="816" y1="815.7" x2="993.2" y2="816.4"/>
				<line class="st20" x1="816" y1="819.3" x2="993.2" y2="820"/>
				<line class="st20" x1="816.1" y1="822.9" x2="993.2" y2="823.6"/>
				<line class="st20" x1="816.1" y1="826.5" x2="993.3" y2="827.2"/>
				<line class="st20" x1="816.1" y1="830.2" x2="993.3" y2="830.9"/>
				<line class="st20" x1="816.1" y1="833.8" x2="993.3" y2="834.5"/>
				<line class="st20" x1="816.1" y1="837.4" x2="993.3" y2="838.1"/>
				<line class="st20" x1="816.1" y1="841" x2="993.3" y2="841.7"/>
				<line class="st20" x1="816.1" y1="844.7" x2="993.3" y2="845.3"/>
				<line class="st20" x1="816.2" y1="848.3" x2="993.3" y2="849"/>
				<line class="st20" x1="816.2" y1="851.9" x2="993.4" y2="852.6"/>
				<line class="st20" x1="816.2" y1="855.5" x2="993.4" y2="856.2"/>
			</g>
		</g>
	</g>
</g>
<polygon id="m1_00000100362783376711370520000008689317995608032145_" class="st18" points="836.4,802.3 836.5,795.1 837.9,795.2 
	840.5,800 840.6,795.2 841.9,795.2 841.8,802.4 840.4,802.4 837.8,797.6 837.7,802.3 "/>
<polygon id="m1_00000168093737473330797890000009461145081919316104_" class="st18" points="843.2,802.5 843.3,795.3 848.3,795.4 
	848.3,796.6 844.6,796.5 844.6,798.1 848,798.2 848,799.4 844.6,799.3 844.6,801.3 848.3,801.4 848.3,802.6 "/>
<polygon id="m1_00000020356282728175561320000013965088514630881156_" class="st18" points="850.3,802.6 848.9,795.4 850.3,795.5 
	851.2,800.4 852.5,795.5 854.1,795.5 855.2,800.6 856.3,795.6 857.7,795.6 855.9,802.7 854.5,802.7 853.3,797.3 851.8,802.7 "/>
<path id="m1_00000176745641901864561800000003014075005357110703_" class="st18" d="M860.5,800.5l1.3-0.1c0.1,0.5,0.2,0.8,0.5,1
	c0.2,0.2,0.6,0.3,1,0.4c0.4,0,0.8-0.1,1-0.3s0.3-0.4,0.3-0.7c0-0.2,0-0.3-0.1-0.4c-0.1-0.1-0.2-0.2-0.5-0.3
	c-0.2-0.1-0.5-0.2-1.1-0.3c-0.7-0.2-1.2-0.5-1.5-0.7c-0.4-0.4-0.6-0.9-0.6-1.5c0-0.4,0.1-0.7,0.3-1s0.5-0.5,0.8-0.7
	c0.4-0.2,0.8-0.2,1.3-0.2c0.8,0,1.5,0.2,1.9,0.6c0.4,0.4,0.6,0.9,0.6,1.6h-1.4c0-0.4-0.2-0.6-0.4-0.8s-0.5-0.2-0.9-0.3
	c-0.4,0-0.7,0.1-0.9,0.2c-0.1,0.1-0.2,0.3-0.2,0.4c0,0.2,0.1,0.3,0.2,0.4c0.2,0.2,0.6,0.3,1.2,0.5c0.7,0.2,1.1,0.4,1.5,0.5
	c0.3,0.2,0.5,0.4,0.7,0.7s0.3,0.7,0.2,1.1c0,0.4-0.1,0.8-0.3,1.2c-0.2,0.3-0.5,0.6-0.9,0.8s-0.9,0.2-1.5,0.2c-0.9,0-1.5-0.2-1.9-0.7
	C860.9,801.9,860.6,801.3,860.5,800.5L860.5,800.5z"/>
<path id="m1_00000127043740301575967670000000568989887150729660_" class="st18" d="M868.4,797v2h0.7c0.5,0,0.9,0,1.1-0.1
	c0.2-0.1,0.3-0.2,0.4-0.3c0.1-0.2,0.2-0.4,0.2-0.6c0-0.3-0.1-0.5-0.2-0.7c-0.1-0.2-0.3-0.3-0.5-0.3s-0.5,0-1,0L868.4,797L868.4,797z
	 M867.1,802.9v-7.2h2.2c0.8,0,1.4,0,1.6,0.1c0.4,0.1,0.7,0.3,1,0.7s0.4,0.8,0.4,1.4c0,0.4-0.1,0.8-0.2,1.1s-0.3,0.5-0.6,0.7
	s-0.5,0.3-0.7,0.3c-0.3,0.1-0.8,0.1-1.4,0.1h-0.9v2.7h-1.4L867.1,802.9L867.1,802.9z"/>
<path id="m1_00000182494323009955035250000009838129184520519574_" class="st18" d="M874.4,799.4c0,0.8,0.2,1.4,0.5,1.9
	c0.4,0.4,0.8,0.6,1.3,0.6s1-0.2,1.3-0.6c0.3-0.4,0.5-1,0.5-1.9c0-0.8-0.2-1.4-0.5-1.8c-0.3-0.4-0.8-0.6-1.4-0.6s-1,0.2-1.4,0.6
	C874.6,797.9,874.4,798.6,874.4,799.4L874.4,799.4z M873,799.4c0-0.7,0.1-1.3,0.3-1.8c0.1-0.4,0.4-0.7,0.6-1
	c0.3-0.3,0.5-0.5,0.9-0.6c0.4-0.2,0.9-0.3,1.5-0.3c1,0,1.8,0.3,2.4,1c0.6,0.7,0.9,1.6,0.9,2.7c0,1.2-0.3,2.1-0.9,2.7
	c-0.6,0.7-1.4,1-2.4,1s-1.8-0.3-2.4-1S873,800.6,873,799.4L873,799.4z"/>
<path id="m1_00000028285947459911092690000005488605696553687484_" class="st18" d="M882,798.7h1c0.7,0,1,0,1.2-0.1s0.3-0.2,0.4-0.3
	c0.1-0.2,0.1-0.3,0.1-0.5s-0.1-0.4-0.2-0.6c-0.1-0.2-0.3-0.2-0.5-0.3c-0.1,0-0.4,0-1,0h-1.1L882,798.7L882,798.7z M880.7,802.8
	l-0.1-7.2h2.9c0.7,0,1.2,0,1.6,0.2c0.3,0.1,0.6,0.3,0.8,0.7c0.2,0.3,0.3,0.7,0.3,1.1c0,0.5-0.1,1-0.4,1.3s-0.7,0.6-1.3,0.7
	c0.3,0.2,0.5,0.4,0.7,0.6c0.2,0.2,0.5,0.6,0.8,1.2l0.8,1.4h-1.6l-1-1.5c-0.4-0.5-0.6-0.9-0.7-1s-0.3-0.2-0.4-0.3
	c-0.1,0-0.4-0.1-0.7-0.1H882v3L880.7,802.8L880.7,802.8z"/>
<polygon id="m1_00000098939205934079952540000013039787075414595732_" class="st18" points="889,802.7 888.9,796.8 886.9,796.8 
	886.9,795.6 892.2,795.5 892.2,796.7 890.3,796.8 890.4,802.7 "/>
<path id="m1_00000170975818601813666210000000077553919887177663_" class="st18" d="M894.5,798.5h1c0.7,0,1.1,0,1.2-0.1
	s0.3-0.2,0.4-0.3c0.1-0.1,0.1-0.3,0.1-0.5s-0.1-0.4-0.2-0.6c-0.1-0.1-0.3-0.2-0.5-0.3c-0.1,0-0.4,0-1,0h-1.1L894.5,798.5
	L894.5,798.5z M893.2,802.7l-0.1-7.2h2.9c0.7,0,1.2,0,1.6,0.2c0.3,0.1,0.6,0.4,0.8,0.7s0.3,0.7,0.3,1.1c0,0.5-0.1,1-0.4,1.3
	c-0.3,0.4-0.7,0.6-1.3,0.7c0.3,0.2,0.5,0.4,0.7,0.6c0.2,0.2,0.5,0.6,0.8,1.1l0.8,1.4h-1.6l-1-1.5c-0.4-0.5-0.6-0.9-0.7-1
	s-0.3-0.2-0.4-0.3s-0.4-0.1-0.7-0.1h-0.3l0.1,3H893.2L893.2,802.7z"/>
<path id="m1_00000003077132671392577280000007729568294228033962_" class="st18" d="M903.4,799.7l-1-2.6l-0.8,2.7L903.4,799.7
	L903.4,799.7z M906,802.4h-1.5l-0.6-1.6l-2.7,0.1l-0.5,1.6h-1.4l2.4-7.3h1.4L906,802.4L906,802.4z"/>
<polygon id="m1_00000059294467503893746370000011529229809090604220_" class="st18" points="907.8,802.4 905.2,795.3 906.6,795.3 
	908.5,800.5 910,795.2 911.4,795.1 909.3,802.4 "/>
<path id="m1_00000149360649544624949990000016287578132507668415_" class="st18" d="M913.5,798.1h1c0.7,0,1-0.1,1.2-0.1
	c0.2-0.1,0.3-0.2,0.4-0.3c0.1-0.2,0.1-0.3,0.1-0.5s-0.1-0.4-0.2-0.6c-0.1-0.1-0.3-0.2-0.5-0.3c-0.1,0-0.4,0-1,0h-1.1L913.5,798.1
	L913.5,798.1z M912.3,802.2l-0.2-7.2l2.9-0.1c0.7,0,1.2,0,1.6,0.1c0.3,0.1,0.6,0.3,0.8,0.7c0.2,0.3,0.3,0.7,0.3,1.1
	c0,0.5-0.1,1-0.4,1.4c-0.3,0.4-0.7,0.6-1.3,0.7c0.3,0.2,0.5,0.4,0.7,0.6c0.2,0.2,0.5,0.6,0.8,1.1l0.9,1.4l-1.6,0.1l-1-1.5
	c-0.4-0.5-0.6-0.9-0.8-1s-0.3-0.2-0.4-0.3s-0.4-0.1-0.7-0.1h-0.3l0.1,3H912.3L912.3,802.2z"/>
<path id="m1_00000093135612695353430320000012611646493523592832_" class="st18" d="M922.8,797.5l1-0.1c0.6,0,1-0.1,1.2-0.2
	s0.3-0.2,0.4-0.3s0.1-0.3,0.1-0.5s-0.1-0.4-0.2-0.6s-0.3-0.2-0.5-0.2c-0.1,0-0.4,0-1,0l-1,0.1V797.5z M921.7,801.7l-0.3-7.2l2.8-0.2
	c0.7,0,1.2,0,1.6,0.1s0.6,0.3,0.8,0.6s0.3,0.7,0.3,1.1c0,0.5-0.1,1-0.4,1.4c-0.3,0.4-0.7,0.6-1.3,0.7c0.3,0.2,0.5,0.3,0.8,0.6
	c0.2,0.2,0.5,0.6,0.8,1.1l0.9,1.3l-1.6,0.1l-1-1.5c-0.4-0.5-0.6-0.9-0.8-1c-0.1-0.1-0.3-0.2-0.4-0.3c-0.2,0-0.4-0.1-0.7,0h-0.3
	l0.1,3L921.7,801.7L921.7,801.7z"/>
<path id="m1_00000117646516881567600630000005319466594461535160_" class="st18" d="M929.4,797.7c0,0.8,0.2,1.4,0.6,1.8
	c0.4,0.4,0.8,0.6,1.4,0.5c0.5,0,1-0.3,1.3-0.7s0.5-1.1,0.4-1.9c0-0.8-0.2-1.4-0.6-1.8c-0.4-0.4-0.8-0.6-1.4-0.5
	c-0.6,0-1,0.3-1.3,0.7C929.5,796.3,929.3,796.9,929.4,797.7L929.4,797.7z M928,797.9c0-0.7,0-1.3,0.2-1.9c0.1-0.4,0.3-0.7,0.6-1
	s0.5-0.5,0.8-0.7c0.4-0.2,0.9-0.3,1.4-0.4c1,0,1.8,0.2,2.4,0.8c0.6,0.6,1,1.5,1,2.7c0.1,1.2-0.2,2.1-0.8,2.8s-1.3,1.1-2.3,1.1
	c-1,0.1-1.8-0.2-2.4-0.8C928.4,799.9,928,799,928,797.9L928,797.9z"/>
<path id="m1_00000057122432028070227660000009648892844989479571_" class="st18" d="M939,797.8l-1.1-2.6l-0.7,2.7L939,797.8
	L939,797.8z M941.7,800.5l-1.5,0.1l-0.7-1.6l-2.7,0.2l-0.5,1.7L935,801l2.1-7.3l1.4-0.1L941.7,800.5L941.7,800.5z"/>
<path id="m1_00000121265342352652856770000008538479833637274286_" class="st18" d="M943.4,794.4l0.3,4.7l1-0.1
	c0.4,0,0.6-0.1,0.8-0.1c0.2-0.1,0.4-0.2,0.5-0.3s0.2-0.4,0.3-0.7s0.1-0.8,0-1.3s-0.1-1-0.2-1.3c-0.1-0.3-0.2-0.5-0.4-0.7
	c-0.2-0.1-0.4-0.2-0.6-0.3c-0.2,0-0.6,0-1.1,0L943.4,794.4L943.4,794.4z M942,793.3l2.5-0.2c0.6,0,1,0,1.3,0c0.4,0.1,0.8,0.3,1,0.6
	c0.3,0.3,0.5,0.7,0.7,1.1c0.2,0.5,0.3,1,0.3,1.7c0,0.6,0,1.1-0.1,1.5c-0.1,0.5-0.3,1-0.6,1.3c-0.2,0.3-0.5,0.5-0.9,0.6
	c-0.3,0.1-0.7,0.2-1.2,0.2l-2.5,0.2L942,793.3L942,793.3z"/>
<polygon id="m1_00000083085171972098397730000014048998484698052501_" class="st18" points="949.1,799.9 949,798.5 950.3,798.4 
	950.4,799.7 "/>
<path id="m1_00000029037677478592567180000002532243603049239988_" class="st18" d="M955.1,796.5l-1.1-2.6l-0.7,2.7L955.1,796.5
	L955.1,796.5z M957.8,799.1l-1.5,0.1l-0.7-1.6l-2.7,0.2l-0.4,1.7l-1.4,0.1l2-7.4l1.4-0.1L957.8,799.1L957.8,799.1z"/>
<path id="m1_00000140708374921469577800000010069585926589747586_" class="st18" d="M959.5,795.7l0.2,1.9l1.2-0.1
	c0.5,0,0.8-0.1,0.9-0.2c0.2-0.1,0.3-0.2,0.5-0.3c0.1-0.2,0.2-0.4,0.1-0.6c0-0.2-0.1-0.4-0.2-0.5c-0.1-0.1-0.3-0.2-0.5-0.3
	s-0.6,0-1.2,0L959.5,795.7L959.5,795.7z M959.2,792.9l0.2,1.6l0.9-0.1c0.5-0.1,0.9-0.1,1-0.1c0.2,0,0.4-0.2,0.5-0.3
	c0.1-0.2,0.2-0.3,0.1-0.6c0-0.2-0.1-0.4-0.2-0.5c-0.1-0.1-0.3-0.2-0.5-0.2c-0.1,0-0.5,0-1.1,0.1L959.2,792.9L959.2,792.9z
	 M957.7,791.8l2.7-0.3c0.5-0.1,0.9-0.1,1.2-0.1s0.5,0.1,0.7,0.2s0.4,0.3,0.6,0.5c0.2,0.2,0.3,0.5,0.3,0.8s0,0.7-0.2,1
	s-0.4,0.5-0.6,0.7c0.4,0.1,0.8,0.3,1,0.5c0.2,0.3,0.4,0.6,0.4,1c0,0.3,0,0.7-0.1,1s-0.3,0.6-0.5,0.8s-0.5,0.4-0.9,0.4
	c-0.2,0-0.8,0.1-1.6,0.2l-2.3,0.2L957.7,791.8L957.7,791.8z"/>
<path id="m1_00000123412394304881860260000016030413574318026934_" class="st18" d="M966.4,791.9c-0.2,0-0.3,0.1-0.4,0.2
	s-0.2,0.3-0.2,0.6c-0.1,0.4,0,1,0.1,1.8s0.2,1.4,0.3,1.7s0.2,0.5,0.4,0.6c0.1,0.1,0.3,0.1,0.4,0.1c0.2,0,0.3-0.1,0.4-0.2
	s0.2-0.3,0.2-0.6c0-0.4,0-1-0.1-1.8s-0.2-1.4-0.3-1.7s-0.2-0.5-0.4-0.6C966.7,791.9,966.6,791.8,966.4,791.9L966.4,791.9z
	 M966.3,790.7c0.6-0.1,1.2,0.1,1.6,0.5c0.5,0.5,0.8,1.5,1,2.8s0,2.3-0.3,3c-0.3,0.5-0.8,0.8-1.4,0.9c-0.6,0.1-1.2-0.1-1.7-0.6
	s-0.8-1.4-0.9-2.8c-0.2-1.3-0.1-2.3,0.3-3C965.2,791.1,965.6,790.8,966.3,790.7L966.3,790.7z"/>
<path id="m1_00000081626913303259782000000005836304131288737197_" class="st18" d="M973.4,797.1l-1.3,0.2l-0.6-5.2
	c-0.4,0.5-0.9,1-1.5,1.2l-0.1-1.2c0.3-0.2,0.6-0.4,1-0.8c0.4-0.4,0.6-0.8,0.7-1.2l1-0.1L973.4,797.1L973.4,797.1z"/>
<path id="m1" class="st18" d="M978.1,796.4l-1.3,0.2l-0.7-5.1c-0.4,0.5-0.9,1-1.5,1.3l-0.2-1.2c0.3-0.2,0.7-0.4,1-0.8
	c0.4-0.4,0.6-0.8,0.7-1.2l1-0.2L978.1,796.4L978.1,796.4z"/>
<polygon id="m0_00000129203057835783358510000006829478275747993525_" class="st21" points="806.5,681.3 797.1,681.3 797.1,674.8 
	798.7,674.8 798.7,679.4 800.9,679.4 800.9,675.5 802.5,675.5 802.5,679.4 806.5,679.4 "/>
<path id="m0_00000098922831359099380730000017539668740118643862_" class="st21" d="M803.6,671.9c0.5,0,0.9-0.1,1.2-0.4
	c0.3-0.2,0.4-0.6,0.4-1s-0.1-0.7-0.4-0.9c-0.3-0.2-0.7-0.4-1.2-0.4c-0.4,0-0.8,0.1-1.1,0.4s-0.4,0.6-0.4,0.9c0,0.4,0.2,0.8,0.5,1
	C802.9,671.8,803.3,671.9,803.6,671.9L803.6,671.9z M799.6,671.7c0.4,0,0.6-0.1,0.8-0.3s0.3-0.5,0.3-0.8s-0.1-0.6-0.3-0.8
	s-0.5-0.3-0.8-0.3s-0.6,0.1-0.8,0.3s-0.3,0.5-0.3,0.8s0.1,0.6,0.3,0.8C799,671.6,799.2,671.7,799.6,671.7L799.6,671.7z M801.4,672.1
	c-0.2,0.5-0.5,0.8-0.8,1s-0.7,0.3-1.1,0.3c-0.7,0-1.3-0.2-1.7-0.7c-0.5-0.5-0.7-1.2-0.7-2.1c0-0.9,0.2-1.6,0.7-2.1s1-0.7,1.7-0.7
	c0.4,0,0.8,0.1,1.2,0.3c0.3,0.2,0.6,0.5,0.8,1c0.2-0.5,0.5-0.9,0.9-1.2s0.9-0.4,1.4-0.4c0.9,0,1.6,0.3,2.1,0.8s0.8,1.3,0.8,2.2
	c0,0.8-0.2,1.6-0.7,2.1c-0.5,0.7-1.3,1-2.2,1c-0.5,0-1-0.1-1.4-0.4S801.6,672.7,801.4,672.1L801.4,672.1z"/>
<polygon id="m0_00000046339905242398763000000008478200322088215993_" class="st21" points="806.5,666 797.1,666 797.1,663.1 
	803.5,661.4 797.1,659.8 797.1,656.9 806.5,656.9 806.5,658.7 799.1,658.7 806.5,660.5 806.5,662.4 799.1,664.2 806.5,664.2 "/>
<path id="m0_00000155859592339890274650000009251992298723488161_" class="st21" d="M802.8,650l-3.5,1.3l3.5,1.3V650z M806.5,646.5
	v2l-2.1,0.8v3.8l2.1,0.8v2l-9.4-3.7v-2L806.5,646.5L806.5,646.5z"/>
<polygon id="m0_00000027587145067725515820000014418269547740103588_" class="st21" points="806.5,646.4 801.6,643.2 797.1,646.1 
	797.1,643.9 799.9,642.1 797.1,640.2 797.1,638 801.6,641 806.5,637.7 806.5,640 803.3,642.1 806.5,644.2 "/>
<path id="m0_00000162313414838105821140000001556863680595787198_" class="st21" d="M800.8,630.9l1.9,0.4v-1.4l-1.9-0.4V630.9
	L800.8,630.9z M804.1,633.1v0.9h-1.4v-1.2l-1.9-0.4v1.5h-1.4v-1.8l-2.5-0.5v-1.5l2.5,0.5v-1.4l-2.5-0.5v-1.5l2.5,0.5v-0.9h1.4v1.2
	l1.9,0.4v-1.5h1.4v1.8l2.5,0.5v1.5l-2.5-0.5v1.4l2.5,0.5v1.5L804.1,633.1L804.1,633.1z"/>
<path id="m0_00000133497501550690167730000006933565472504106404_" class="st21" d="M803,622.7h-3.2l3.2,2.1V622.7z M806.5,622.7
	h-1.9v3.8H803l-6-4.1v-1.5h6v-1.2h1.6v1.2h1.9V622.7L806.5,622.7z"/>
<path id="m0_00000160172402349980933350000007729810326145525889_" class="st21" d="M804.8,612.8h1.7v6.3c-0.6-0.1-1.2-0.3-1.8-0.6
	c-0.6-0.4-1.3-1-2.3-2c-0.8-0.8-1.3-1.3-1.5-1.5c-0.4-0.2-0.7-0.4-1.1-0.4c-0.4,0-0.7,0.1-0.9,0.3s-0.3,0.5-0.3,0.9s0.1,0.7,0.3,0.9
	s0.6,0.3,1.1,0.4l-0.2,1.8c-1-0.1-1.7-0.4-2.1-1c-0.4-0.6-0.7-1.3-0.7-2.1c0-0.9,0.2-1.7,0.8-2.2c0.5-0.5,1.1-0.8,1.9-0.8
	c0.4,0,0.8,0.1,1.2,0.2s0.8,0.4,1.2,0.7c0.3,0.2,0.7,0.6,1.2,1.2s0.9,0.9,1,1.1c0.2,0.2,0.3,0.3,0.5,0.4L804.8,612.8L804.8,612.8z"
	/>
<rect id="m0_00000078033740669456648290000001550438478267389065_" x="802.2" y="607.8" class="st22" width="1.8" height="3.5"/>
<path id="m0_00000114035997204804214720000018374716653494459059_" class="st21" d="M803,603.6h-3.2l3.2,2.2V603.6z M806.5,603.6
	h-1.9v3.8H803l-6-4.1v-1.5h6v-1.2h1.6v1.2h1.9V603.6L806.5,603.6z"/>
<path id="m0_00000056385433757667811160000003301431864123223186_" class="st21" d="M804,599.9l-0.2-1.8c0.5-0.1,0.8-0.2,1-0.5
	c0.2-0.2,0.3-0.5,0.3-0.9s-0.1-0.7-0.4-0.9c-0.3-0.2-0.7-0.4-1.1-0.4c-0.4,0-0.8,0.1-1.1,0.4s-0.4,0.5-0.4,0.9c0,0.2,0,0.5,0.1,0.8
	l-1.5-0.2c0-0.5-0.1-0.9-0.3-1.1s-0.5-0.4-0.9-0.4c-0.3,0-0.6,0.1-0.8,0.3s-0.3,0.4-0.3,0.8s0.1,0.6,0.3,0.8s0.5,0.3,0.9,0.4
	l-0.3,1.7c-0.6-0.1-1-0.3-1.4-0.5c-0.3-0.2-0.6-0.6-0.8-1s-0.3-0.9-0.3-1.4c0-0.9,0.3-1.6,0.8-2.1c0.5-0.4,1-0.7,1.6-0.7
	c0.8,0,1.5,0.5,2,1.4c0.1-0.5,0.4-1,0.8-1.3s0.9-0.5,1.5-0.5c0.8,0,1.5,0.3,2.1,0.9c0.6,0.6,0.9,1.4,0.9,2.2c0,0.9-0.2,1.5-0.7,2.1
	S804.8,599.8,804,599.9L804,599.9z"/>
<path id="m0_00000055705585529393440870000007284393166054812055_" class="st21" d="M786.8,677.1v1.8H780c0.6,0.7,1.1,1.4,1.4,2.3
	h-1.6c-0.1-0.5-0.5-1-0.9-1.5s-0.9-0.9-1.5-1.1v-1.5H786.8L786.8,677.1z"/>
<path id="m0_00000034082527044209513340000006915558592843505294_" class="st21" d="M786.8,670.4v1.8H780c0.6,0.7,1.1,1.4,1.4,2.3
	h-1.6c-0.1-0.5-0.5-1-0.9-1.5s-0.9-0.9-1.5-1.1v-1.5H786.8L786.8,670.4z"/>
<rect id="m0_00000114772822358852786390000007582915315076421794_" x="785" y="665.5" class="st22" width="1.8" height="1.8"/>
<path id="m0_00000130645869601018597430000005800905857826016667_" class="st21" d="M785.1,658h1.7v6.3c-0.6-0.1-1.2-0.3-1.8-0.6
	s-1.3-1-2.3-2c-0.8-0.8-1.3-1.3-1.5-1.5c-0.4-0.2-0.7-0.4-1.1-0.4c-0.4,0-0.7,0.1-0.9,0.3s-0.3,0.5-0.3,0.9s0.1,0.7,0.3,0.9
	s0.6,0.3,1.1,0.4l-0.2,1.8c-1-0.1-1.7-0.4-2.1-1c-0.4-0.6-0.7-1.3-0.7-2.1c0-0.9,0.2-1.7,0.8-2.2c0.5-0.5,1.1-0.8,1.9-0.8
	c0.4,0,0.8,0.1,1.2,0.2s0.8,0.4,1.2,0.7c0.3,0.2,0.7,0.6,1.2,1.2s0.9,0.9,1,1.1c0.2,0.2,0.3,0.3,0.5,0.4L785.1,658L785.1,658z"/>
<path id="m0_00000026883315822809383780000010230141026201459619_" class="st21" d="M783.9,655c0.5,0,0.9-0.1,1.2-0.4
	c0.3-0.2,0.4-0.6,0.4-1s-0.1-0.7-0.4-0.9c-0.3-0.2-0.7-0.4-1.2-0.4c-0.4,0-0.8,0.1-1.1,0.4c-0.3,0.2-0.4,0.6-0.4,0.9
	c0,0.4,0.1,0.8,0.5,1C783.2,654.9,783.6,655,783.9,655L783.9,655z M779.9,654.8c0.4,0,0.6-0.1,0.8-0.3s0.3-0.5,0.3-0.8
	s-0.1-0.6-0.3-0.8s-0.5-0.3-0.9-0.3c-0.3,0-0.6,0.1-0.8,0.3s-0.3,0.5-0.3,0.8s0.1,0.6,0.3,0.8C779.3,654.7,779.5,654.8,779.9,654.8
	L779.9,654.8z M781.7,655.2c-0.2,0.5-0.5,0.8-0.8,1s-0.7,0.3-1.1,0.3c-0.7,0-1.3-0.2-1.7-0.7c-0.5-0.5-0.7-1.2-0.7-2.1
	c0-0.9,0.2-1.6,0.7-2.1s1-0.7,1.7-0.7c0.4,0,0.8,0.1,1.2,0.3c0.3,0.2,0.6,0.5,0.8,1c0.2-0.5,0.5-0.9,0.9-1.2s0.9-0.4,1.4-0.4
	c0.9,0,1.6,0.3,2.1,0.8s0.8,1.3,0.8,2.2s-0.2,1.6-0.7,2.1c-0.5,0.7-1.3,1-2.2,1c-0.5,0-1-0.1-1.4-0.4S781.9,655.8,781.7,655.2
	L781.7,655.2z"/>
<path id="m0_00000083811191015876630830000006664093346180068493_" class="st21" d="M781.1,646.9l1.9,0.4v-1.4l-1.9-0.4V646.9
	L781.1,646.9z M784.4,649v0.9H783v-1.2l-1.9-0.4v1.5h-1.4V648l-2.5-0.5V646l2.5,0.5v-1.4l-2.5-0.5v-1.5l2.5,0.5v-0.9h1.4v1.2
	l1.9,0.4v-1.5h1.4v1.8l2.5,0.5v1.5l-2.5-0.5v1.4l2.5,0.5v1.5L784.4,649L784.4,649z"/>
<path id="m0_00000011031231252935943280000006703394992754315682_" class="st21" d="M781.4,639.8v-1.4c0-0.9,0-1.5-0.1-1.7
	s-0.2-0.4-0.4-0.5s-0.4-0.2-0.7-0.2s-0.6,0.1-0.8,0.2c-0.2,0.2-0.3,0.4-0.4,0.7c0,0.2,0,0.6,0,1.4v1.5H781.4L781.4,639.8z
	 M786.8,641.7h-9.4v-4c0-1,0.1-1.7,0.2-2.2c0.2-0.5,0.5-0.8,0.9-1.1s0.9-0.4,1.5-0.4c0.7,0,1.3,0.2,1.8,0.6c0.5,0.4,0.8,1,0.9,1.8
	c0.2-0.4,0.5-0.8,0.8-1s0.8-0.6,1.5-1.1l1.8-1.2v2.3l-2,1.4c-0.7,0.5-1.2,0.8-1.4,1s-0.3,0.4-0.4,0.6s-0.1,0.5-0.1,1v0.4h3.9V641.7z
	"/>
<path id="m0_00000111879340923084004580000010322146889500888508_" class="st21" d="M777.4,632.2v-1.9h5.1c0.8,0,1.3,0,1.6-0.1
	c0.4-0.1,0.7-0.3,0.9-0.6s0.3-0.7,0.3-1.2s-0.1-0.9-0.3-1.2s-0.5-0.4-0.8-0.5c-0.3,0-0.8-0.1-1.6-0.1h-5.2v-1.9h4.9
	c1.1,0,1.9,0,2.4,0.2c0.5,0.1,0.9,0.3,1.2,0.6s0.6,0.6,0.8,1.1s0.3,1.1,0.3,1.8c0,0.9-0.1,1.6-0.3,2c-0.2,0.5-0.5,0.8-0.8,1.1
	s-0.7,0.5-1,0.5c-0.5,0.1-1.3,0.2-2.4,0.2L777.4,632.2L777.4,632.2z"/>
<polygon id="m0_00000175321237457151331480000005867650691393707676_" class="st21" points="786.8,622.7 777.4,622.7 777.4,620.9 
	783.7,617 777.4,617 777.4,615.3 786.8,615.3 786.8,617.2 780.6,621 786.8,621 "/>
<path id="m0_00000108269366313956792640000014961398075735085441_" class="st21" d="M783.9,608.2c0.5,0,0.9-0.1,1.2-0.4
	c0.3-0.2,0.4-0.6,0.4-1s-0.1-0.7-0.4-0.9c-0.3-0.2-0.7-0.4-1.2-0.4c-0.4,0-0.8,0.1-1.1,0.4c-0.3,0.2-0.4,0.6-0.4,0.9
	c0,0.4,0.1,0.8,0.5,1C783.2,608.1,783.6,608.2,783.9,608.2L783.9,608.2z M779.9,608.1c0.4,0,0.6-0.1,0.8-0.3s0.3-0.5,0.3-0.8
	s-0.1-0.6-0.3-0.8s-0.5-0.3-0.9-0.3c-0.3,0-0.6,0.1-0.8,0.3s-0.3,0.5-0.3,0.8s0.1,0.6,0.3,0.8C779.3,607.9,779.5,608.1,779.9,608.1
	L779.9,608.1z M781.7,608.4c-0.2,0.5-0.5,0.8-0.8,1s-0.7,0.3-1.1,0.3c-0.7,0-1.3-0.2-1.7-0.7c-0.5-0.5-0.7-1.2-0.7-2.1
	c0-0.9,0.2-1.6,0.7-2.1s1-0.7,1.7-0.7c0.4,0,0.8,0.1,1.2,0.3c0.3,0.2,0.6,0.5,0.8,1c0.2-0.5,0.5-0.9,0.9-1.2s0.9-0.4,1.4-0.4
	c0.9,0,1.6,0.3,2.1,0.8s0.8,1.3,0.8,2.2c0,0.8-0.2,1.6-0.7,2.1c-0.5,0.7-1.3,1-2.2,1c-0.5,0-1-0.1-1.4-0.4S781.9,609,781.7,608.4
	L781.7,608.4z"/>
<path id="m0_00000011033145501996279620000014708377214146766247_" class="st21" d="M779,600.4h2.7v-1c0-0.8,0-1.2-0.1-1.5
	s-0.2-0.5-0.5-0.6c-0.2-0.1-0.5-0.2-0.7-0.2c-0.3,0-0.6,0.1-0.8,0.3s-0.4,0.5-0.4,0.8c0,0.2-0.1,0.7-0.1,1.4L779,600.4L779,600.4z
	 M786.8,602.3h-9.4v-3c0-1.2,0-1.9,0.1-2.3c0.1-0.5,0.5-1,0.9-1.4c0.5-0.4,1.1-0.5,1.8-0.5c0.6,0,1.1,0.1,1.5,0.3s0.7,0.5,0.9,0.8
	s0.4,0.6,0.5,1c0.1,0.5,0.1,1.1,0.1,2v1.2h3.5v1.9H786.8z"/>
<path id="m0" class="st21" d="M782.1,592c1.1,0,1.9-0.2,2.4-0.7c0.6-0.5,0.8-1.1,0.8-1.9s-0.3-1.4-0.8-1.9s-1.4-0.7-2.5-0.7
	s-1.9,0.2-2.4,0.7s-0.8,1.1-0.8,1.9c0,0.8,0.3,1.4,0.8,1.9S781,592,782.1,592L782.1,592z M782.1,593.9c-1,0-1.8-0.1-2.4-0.4
	c-0.5-0.2-0.9-0.5-1.3-0.9s-0.7-0.8-0.9-1.2c-0.2-0.6-0.4-1.3-0.4-2c0-1.4,0.4-2.5,1.3-3.3c0.9-0.8,2.1-1.2,3.6-1.2s2.7,0.4,3.6,1.2
	c0.9,0.8,1.3,1.9,1.3,3.3s-0.4,2.5-1.3,3.3C784.8,593.5,783.6,593.9,782.1,593.9L782.1,593.9z"/>
<path id="m0_00000103945042872611227700000016039364569467719598_" class="st21" d="M781.4,581.4V580c0-0.9,0-1.5-0.1-1.7
	s-0.2-0.4-0.4-0.5s-0.4-0.2-0.7-0.2s-0.6,0.1-0.8,0.2c-0.2,0.2-0.3,0.4-0.4,0.7c0,0.1,0,0.6,0,1.4v1.5H781.4L781.4,581.4z
	 M786.8,583.3h-9.4v-4c0-1,0.1-1.7,0.2-2.2c0.2-0.5,0.5-0.8,0.9-1.1s0.9-0.4,1.5-0.4c0.7,0,1.3,0.2,1.8,0.6c0.5,0.4,0.8,1,0.9,1.9
	c0.2-0.4,0.5-0.8,0.8-1c0.3-0.3,0.8-0.6,1.5-1.1l1.8-1.1v2.3l-2,1.4c-0.7,0.5-1.2,0.8-1.4,1s-0.3,0.4-0.4,0.6s-0.1,0.5-0.1,1v0.4
	h3.9V583.3z"/>
<path class="st15" d="M2068.6,836.5l9-4.2c7.1-3.1,14.5-5.8,21.7-8.6l0.7-0.3"/>
<path class="st15" d="M2100.1,998.5l-0.6-0.3c-10.3-4.8-20.6-9.5-30.8-14.3"/>
</svg>
